<?xml version="1.0" encoding="utf-8"?>
<!-- Generator: Adobe Illustrator 25.1.0, SVG Export Plug-In . SVG Version: 6.00 Build 0)  -->
<svg version="1.1" id="Layer_1" xmlns="http://www.w3.org/2000/svg" xmlns:xlink="http://www.w3.org/1999/xlink" x="0px" y="0px"
	 viewBox="0 0 610 468" style="enable-background:new 0 0 610 468;" xml:space="preserve">
<style type="text/css">
	.st0{fill:#6FFFB1;}
	.st1{fill:#FEEE61;}
	.st2{fill:#FFFFFF;}
	.st3{opacity:2.000000e-02;enable-background:new    ;}
	.st4{fill:#828282;}
	.st5{fill:#FFEFF1;}
	.st6{fill:#FD5B71;}
	.st7{fill:#F2F2F2;}
	.st8{fill:#6640FF;}
	.st9{clip-path:url(#SVGID_2_);}
	.st10{fill:#FEF5ED;}
	.st11{fill:#FFA656;}
	.st12{clip-path:url(#SVGID_4_);}
	.st13{fill:#F5EEFC;}
	.st14{fill:#9B51E0;}
	.st15{clip-path:url(#SVGID_6_);}
	.st16{fill:none;stroke:#FFFFFF;stroke-width:1.6779;stroke-linejoin:round;}
	.st17{fill:#FFFFFF;stroke:#FFFFFF;stroke-width:1.6779;stroke-linecap:round;stroke-linejoin:round;}
	.st18{fill:none;stroke:#FFFFFF;stroke-width:1.6779;stroke-linecap:round;stroke-linejoin:round;}
	.st19{fill:#E6FCF4;}
	.st20{fill:#07E092;}
	.st21{clip-path:url(#SVGID_8_);}
	.st22{opacity:0.7;fill:#070417;enable-background:new    ;}
	.st23{fill:#070417;}
	.st24{opacity:0.3;fill-rule:evenodd;clip-rule:evenodd;fill:#FFE484;enable-background:new    ;}
	.st25{fill-rule:evenodd;clip-rule:evenodd;fill:#FFE484;}
	.st26{fill-rule:evenodd;clip-rule:evenodd;fill:#F23936;}
	.st27{opacity:0.3;fill-rule:evenodd;clip-rule:evenodd;fill:#F23936;enable-background:new    ;}
</style>
<g>
	<circle class="st0" cx="197" cy="197" r="197"/>
	<g>
		<circle class="st1" cx="413" cy="197" r="197"/>
	</g>
	<g>
		
			<image style="overflow:visible;opacity:0.15;" width="1534" height="1830" xlink:href="1D27F6A4.png"  transform="matrix(0.24 0 0 0.24 77.88 39.96)">
		</image>
		<g>
			<g>
				<path class="st2" d="M109,47h302c13.3,0,24,10.7,24,24v373c0,13.3-10.7,24-24,24H109c-13.3,0-24-10.7-24-24V71
					C85,57.7,95.7,47,109,47z"/>
			</g>
		</g>
	</g>
	<path class="st3" d="M126.1,279h267.6c5.6,0,10.1,4.5,10.1,10.1v50.3c0,5.6-4.5,10.1-10.1,10.1H126.1c-5.6,0-10.1-4.5-10.1-10.1
		v-50.3C116,283.5,120.5,279,126.1,279z"/>
	<path class="st4" d="M375.4,333.2c-0.2,0-0.5-0.1-0.7-0.2c-0.5-0.3-0.8-0.8-0.8-1.4v-11.4c0-0.6,0.3-1.1,0.8-1.4
		c0.2-0.1,0.5-0.2,0.7-0.2s0.5,0.1,0.7,0.2l9.7,5.8c0.2,0.1,0.4,0.3,0.5,0.5s0.2,0.4,0.2,0.7s-0.1,0.5-0.2,0.7s-0.3,0.4-0.5,0.5
		l-9.7,5.8C375.9,333.1,375.7,333.2,375.4,333.2L375.4,333.2z"/>
	<path class="st5" d="M246,315.9h38.4c2.8,0,5,2.3,5,5v10.3c0,2.8-2.3,5-5,5H246c-2.8,0-5-2.3-5-5v-10.3
		C241,318.2,243.3,315.9,246,315.9z"/>
	<path class="st6" d="M254.6,325.2h-1.1c0-0.2-0.1-0.4-0.2-0.6c-0.1-0.2-0.3-0.3-0.4-0.5c-0.2-0.1-0.4-0.2-0.6-0.3
		c-0.2-0.1-0.4-0.1-0.7-0.1c-0.4,0-0.8,0.1-1.1,0.3c-0.3,0.2-0.6,0.5-0.8,0.9s-0.3,0.9-0.3,1.5s0.1,1.1,0.3,1.5s0.5,0.7,0.8,0.9
		c0.3,0.2,0.7,0.3,1.1,0.3c0.2,0,0.5,0,0.7-0.1s0.4-0.2,0.6-0.3c0.2-0.1,0.3-0.3,0.4-0.5c0.1-0.2,0.2-0.4,0.2-0.6h1.1
		c-0.1,0.4-0.2,0.7-0.3,1c-0.2,0.3-0.4,0.6-0.7,0.8c-0.3,0.2-0.6,0.4-0.9,0.5c-0.3,0.1-0.7,0.2-1.1,0.2c-0.6,0-1.2-0.1-1.7-0.5
		c-0.5-0.3-0.9-0.7-1.2-1.3c-0.3-0.6-0.4-1.2-0.4-2s0.1-1.5,0.4-2c0.3-0.6,0.7-1,1.2-1.3s1.1-0.5,1.7-0.5c0.4,0,0.8,0.1,1.1,0.2
		s0.6,0.3,0.9,0.5c0.3,0.2,0.5,0.5,0.7,0.8C254.4,324.4,254.5,324.8,254.6,325.2z M258.1,330.2c-0.5,0-1-0.1-1.3-0.4
		c-0.4-0.2-0.7-0.6-0.9-1c-0.2-0.4-0.3-0.9-0.3-1.5s0.1-1.1,0.3-1.5c0.2-0.4,0.5-0.8,0.9-1s0.8-0.4,1.3-0.4s1,0.1,1.3,0.4
		c0.4,0.2,0.7,0.6,0.9,1c0.2,0.4,0.3,0.9,0.3,1.5s-0.1,1.1-0.3,1.5c-0.2,0.4-0.5,0.8-0.9,1C259.1,330.1,258.7,330.2,258.1,330.2z
		 M258.1,329.3c0.3,0,0.6-0.1,0.8-0.3c0.2-0.2,0.4-0.4,0.5-0.7c0.1-0.3,0.2-0.6,0.2-1s-0.1-0.7-0.2-1s-0.3-0.5-0.5-0.7
		s-0.5-0.3-0.8-0.3s-0.6,0.1-0.8,0.3c-0.2,0.2-0.4,0.4-0.5,0.7c-0.1,0.3-0.2,0.6-0.2,1s0.1,0.7,0.2,1s0.3,0.5,0.5,0.7
		C257.5,329.2,257.8,329.3,258.1,329.3z M264,330.2c-0.4,0-0.8-0.1-1.2-0.3c-0.3-0.2-0.6-0.6-0.8-1c-0.2-0.4-0.3-0.9-0.3-1.5
		s0.1-1.1,0.3-1.5c0.2-0.4,0.5-0.7,0.8-1c0.3-0.2,0.7-0.3,1.2-0.3c0.3,0,0.6,0.1,0.8,0.2c0.2,0.1,0.4,0.2,0.5,0.4
		c0.1,0.2,0.2,0.3,0.3,0.4h0.1v-2.7h1.1v7.3h-1v-0.9h-0.1c-0.1,0.1-0.2,0.2-0.3,0.4c-0.1,0.1-0.3,0.3-0.5,0.4
		C264.6,330.2,264.3,330.2,264,330.2z M264.2,329.3c0.3,0,0.6-0.1,0.8-0.2c0.2-0.2,0.4-0.4,0.5-0.7c0.1-0.3,0.2-0.6,0.2-1
		s-0.1-0.7-0.2-1s-0.3-0.5-0.5-0.7s-0.5-0.2-0.8-0.2s-0.6,0.1-0.8,0.2c-0.2,0.2-0.4,0.4-0.5,0.7c-0.1,0.3-0.2,0.6-0.2,1
		s0.1,0.7,0.2,1s0.3,0.5,0.5,0.7C263.6,329.2,263.9,329.3,264.2,329.3z M268.2,330.1v-5.5h1.1v5.5H268.2z M268.7,323.8
		c-0.2,0-0.3-0.1-0.5-0.2c-0.1-0.1-0.2-0.3-0.2-0.5s0.1-0.3,0.2-0.5c0.1-0.1,0.3-0.2,0.5-0.2s0.3,0.1,0.5,0.2
		c0.1,0.1,0.2,0.3,0.2,0.5s-0.1,0.3-0.2,0.5C269.1,323.7,268.9,323.8,268.7,323.8z M271.8,326.8v3.3h-1.1v-5.5h1v0.9h0.1
		c0.1-0.3,0.3-0.5,0.6-0.7c0.3-0.2,0.6-0.3,1-0.3s0.7,0.1,1,0.2c0.3,0.2,0.5,0.4,0.7,0.7c0.2,0.3,0.2,0.7,0.2,1.1v3.5h-1.1v-3.4
		c0-0.4-0.1-0.7-0.3-0.9c-0.2-0.2-0.5-0.3-0.9-0.3c-0.2,0-0.5,0.1-0.7,0.2s-0.3,0.3-0.5,0.5C271.8,326.3,271.8,326.6,271.8,326.8z
		 M279,332.3c-0.4,0-0.8-0.1-1.1-0.2c-0.3-0.1-0.6-0.3-0.8-0.5c-0.2-0.2-0.3-0.4-0.4-0.6l0.9-0.4c0.1,0.1,0.2,0.2,0.3,0.3
		c0.1,0.1,0.3,0.2,0.4,0.3c0.2,0.1,0.4,0.1,0.7,0.1c0.4,0,0.7-0.1,1-0.3c0.3-0.2,0.4-0.5,0.4-0.9V329h-0.1c-0.1,0.1-0.2,0.2-0.3,0.4
		c-0.1,0.1-0.3,0.3-0.5,0.4s-0.5,0.2-0.8,0.2c-0.4,0-0.8-0.1-1.2-0.3c-0.3-0.2-0.6-0.5-0.8-0.9c-0.2-0.4-0.3-0.9-0.3-1.5
		s0.1-1.1,0.3-1.5c0.2-0.4,0.5-0.7,0.8-1c0.3-0.2,0.7-0.3,1.2-0.3c0.3,0,0.6,0.1,0.8,0.2c0.2,0.1,0.4,0.2,0.5,0.4
		c0.1,0.2,0.2,0.3,0.3,0.4h0.1v-0.9h1v5.6c0,0.5-0.1,0.9-0.3,1.2c-0.2,0.3-0.5,0.5-0.9,0.7C279.9,332.2,279.5,332.3,279,332.3z
		 M279,329.1c0.3,0,0.6-0.1,0.8-0.2c0.2-0.1,0.4-0.4,0.5-0.6c0.1-0.3,0.2-0.6,0.2-1s-0.1-0.7-0.2-1s-0.3-0.5-0.5-0.7
		s-0.5-0.2-0.8-0.2s-0.6,0.1-0.8,0.2c-0.2,0.2-0.4,0.4-0.5,0.7c-0.1,0.3-0.2,0.6-0.2,1s0.1,0.7,0.2,0.9c0.1,0.3,0.3,0.5,0.5,0.6
		C278.4,329.1,278.7,329.1,279,329.1z"/>
	<path class="st7" d="M184.8,315.9h45.4c2.8,0,5,2.3,5,5v10.3c0,2.8-2.3,5-5,5h-45.4c-2.8,0-5-2.3-5-5v-10.3
		C179.8,318.2,182,315.9,184.8,315.9z"/>
	<path class="st4" d="M187.3,330.1v-7.3h2.6c0.6,0,1,0.1,1.4,0.3c0.4,0.2,0.7,0.5,0.8,0.9c0.2,0.4,0.3,0.8,0.3,1.2
		c0,0.4-0.1,0.9-0.3,1.2c-0.2,0.4-0.5,0.6-0.8,0.8c-0.4,0.2-0.8,0.3-1.4,0.3h-1.8v-0.9h1.7c0.4,0,0.7-0.1,0.9-0.2s0.4-0.3,0.5-0.5
		s0.2-0.5,0.2-0.7s-0.1-0.5-0.2-0.7c-0.1-0.2-0.3-0.4-0.5-0.5s-0.5-0.2-0.9-0.2h-1.4v6.4L187.3,330.1L187.3,330.1z M195.9,330.2
		c-0.5,0-1-0.1-1.4-0.3c-0.4-0.2-0.7-0.6-0.9-1s-0.3-0.9-0.3-1.5s0.1-1.1,0.3-1.5s0.5-0.8,0.9-1s0.8-0.4,1.3-0.4
		c0.3,0,0.6,0.1,0.9,0.2c0.3,0.1,0.6,0.3,0.8,0.5s0.4,0.5,0.5,0.9c0.1,0.3,0.2,0.8,0.2,1.3v0.4h-4.4V327h3.3c0-0.3-0.1-0.5-0.2-0.7
		c-0.1-0.2-0.3-0.4-0.5-0.5s-0.4-0.2-0.7-0.2s-0.6,0.1-0.8,0.2s-0.4,0.3-0.5,0.6c-0.1,0.2-0.2,0.5-0.2,0.8v0.6
		c0,0.4,0.1,0.7,0.2,0.9c0.1,0.3,0.3,0.5,0.5,0.6s0.5,0.2,0.8,0.2c0.2,0,0.4,0,0.6-0.1c0.2-0.1,0.3-0.1,0.4-0.3
		c0.1-0.1,0.2-0.3,0.3-0.4l1,0.2c-0.1,0.3-0.2,0.6-0.4,0.8c-0.2,0.2-0.5,0.4-0.8,0.5C196.7,330.2,196.3,330.2,195.9,330.2z
		 M199.5,330.1v-5.5h1v0.9h0.1c0.1-0.3,0.3-0.5,0.5-0.7c0.3-0.2,0.5-0.3,0.9-0.3c0.1,0,0.1,0,0.2,0c0.1,0,0.2,0,0.2,0v1
		c0,0-0.1,0-0.2,0c-0.1,0-0.2,0-0.3,0c-0.3,0-0.5,0.1-0.7,0.2s-0.4,0.3-0.5,0.4c-0.1,0.2-0.2,0.4-0.2,0.6v3.4H199.5z M207.4,326
		l-1,0.2c0-0.1-0.1-0.2-0.2-0.4c-0.1-0.1-0.2-0.2-0.3-0.3c-0.1-0.1-0.3-0.1-0.6-0.1s-0.6,0.1-0.8,0.2s-0.3,0.3-0.3,0.5
		s0.1,0.3,0.2,0.4c0.1,0.1,0.4,0.2,0.7,0.3l0.9,0.2c0.5,0.1,0.9,0.3,1.1,0.5s0.4,0.6,0.4,0.9s-0.1,0.6-0.3,0.9s-0.5,0.5-0.8,0.6
		s-0.7,0.2-1.2,0.2c-0.6,0-1.1-0.1-1.5-0.4s-0.6-0.6-0.7-1.1l1-0.2c0.1,0.3,0.2,0.5,0.4,0.6s0.5,0.2,0.8,0.2c0.4,0,0.6-0.1,0.8-0.2
		s0.3-0.3,0.3-0.5s-0.1-0.3-0.2-0.4c-0.1-0.1-0.3-0.2-0.6-0.3l-0.9-0.2c-0.5-0.1-0.9-0.3-1.1-0.6c-0.2-0.3-0.4-0.6-0.4-1
		c0-0.3,0.1-0.6,0.3-0.9c0.2-0.2,0.4-0.4,0.8-0.6c0.3-0.1,0.7-0.2,1.1-0.2c0.6,0,1.1,0.1,1.4,0.4C207.1,325.2,207.3,325.5,207.4,326
		z M211,330.2c-0.5,0-1-0.1-1.3-0.4c-0.4-0.2-0.7-0.6-0.9-1s-0.3-0.9-0.3-1.5s0.1-1.1,0.3-1.5s0.5-0.8,0.9-1s0.8-0.4,1.3-0.4
		s1,0.1,1.3,0.4c0.4,0.2,0.7,0.6,0.9,1s0.3,0.9,0.3,1.5s-0.1,1.1-0.3,1.5s-0.5,0.8-0.9,1C212,330.1,211.6,330.2,211,330.2z
		 M211,329.3c0.3,0,0.6-0.1,0.8-0.3c0.2-0.2,0.4-0.4,0.5-0.7c0.1-0.3,0.2-0.6,0.2-1s-0.1-0.7-0.2-1c-0.1-0.3-0.3-0.5-0.5-0.7
		s-0.5-0.3-0.8-0.3s-0.6,0.1-0.8,0.3c-0.2,0.2-0.4,0.4-0.5,0.7c-0.1,0.3-0.2,0.6-0.2,1s0.1,0.7,0.2,1c0.1,0.3,0.3,0.5,0.5,0.7
		S210.7,329.3,211,329.3z M215.9,326.8v3.3h-1.1v-5.5h1v0.9h0.1c0.1-0.3,0.3-0.5,0.6-0.7s0.6-0.3,1-0.3s0.7,0.1,1,0.2
		c0.3,0.2,0.5,0.4,0.7,0.7c0.2,0.3,0.2,0.7,0.2,1.1v3.5h-1.1v-3.4c0-0.4-0.1-0.7-0.3-0.9c-0.2-0.2-0.5-0.3-0.9-0.3
		c-0.2,0-0.5,0.1-0.7,0.2s-0.3,0.3-0.5,0.5C215.9,326.3,215.9,326.6,215.9,326.8z M222.4,330.2c-0.3,0-0.7-0.1-0.9-0.2
		c-0.3-0.1-0.5-0.3-0.7-0.6c-0.2-0.2-0.2-0.6-0.2-0.9s0.1-0.6,0.2-0.8c0.1-0.2,0.3-0.4,0.5-0.5s0.4-0.2,0.7-0.3
		c0.2-0.1,0.5-0.1,0.8-0.1s0.6-0.1,0.8-0.1s0.4-0.1,0.4-0.1c0.1-0.1,0.1-0.1,0.1-0.3l0,0c0-0.3-0.1-0.6-0.3-0.7
		c-0.2-0.2-0.4-0.3-0.8-0.3c-0.4,0-0.6,0.1-0.9,0.2c-0.2,0.2-0.3,0.3-0.4,0.5l-1-0.2c0.1-0.3,0.3-0.6,0.5-0.8
		c0.2-0.2,0.5-0.4,0.8-0.5s0.6-0.1,0.9-0.1c0.2,0,0.5,0,0.7,0.1s0.5,0.1,0.7,0.3c0.2,0.1,0.4,0.3,0.5,0.6c0.1,0.2,0.2,0.6,0.2,1v3.6
		h-1v-0.8l0,0c-0.1,0.1-0.2,0.3-0.3,0.4s-0.3,0.2-0.5,0.3C223,330.2,222.7,330.2,222.4,330.2z M222.6,329.4c0.3,0,0.5-0.1,0.8-0.2
		c0.2-0.1,0.4-0.3,0.5-0.5s0.2-0.4,0.2-0.6v-0.7c0,0-0.1,0.1-0.2,0.1c-0.1,0-0.2,0.1-0.4,0.1c-0.1,0-0.3,0-0.4,0.1
		c-0.1,0-0.2,0-0.3,0c-0.2,0-0.4,0.1-0.6,0.1c-0.2,0.1-0.3,0.2-0.4,0.3c-0.1,0.1-0.2,0.3-0.2,0.5c0,0.3,0.1,0.5,0.3,0.6
		C222.1,329.3,222.3,329.4,222.6,329.4z M227.6,322.8v7.3h-1.1v-7.3H227.6z"/>
	<path class="st8" d="M349.8,304.5c-0.5,0-1-0.1-1.4-0.4s-0.7-0.7-0.9-1.3c-0.2-0.6-0.3-1.2-0.3-2s0.1-1.5,0.3-2
		c0.2-0.6,0.5-1,0.9-1.3s0.8-0.4,1.4-0.4c0.5,0,1,0.1,1.4,0.4s0.7,0.7,0.9,1.3c0.2,0.6,0.3,1.2,0.3,2s-0.1,1.5-0.3,2
		c-0.2,0.6-0.5,1-0.9,1.3S350.3,304.5,349.8,304.5z M349.8,303.7c0.5,0,0.9-0.3,1.2-0.8c0.3-0.5,0.4-1.2,0.4-2.2
		c0-0.6-0.1-1.2-0.2-1.6s-0.3-0.8-0.6-1c-0.2-0.2-0.6-0.4-0.9-0.4c-0.5,0-0.9,0.3-1.2,0.8c-0.3,0.5-0.4,1.3-0.4,2.2
		c0,0.6,0.1,1.2,0.2,1.6s0.3,0.8,0.6,1C349.1,303.6,349.4,303.7,349.8,303.7z M356.1,304.5c-0.5,0-1-0.1-1.4-0.4s-0.7-0.7-0.9-1.3
		c-0.2-0.6-0.3-1.2-0.3-2s0.1-1.5,0.3-2c0.2-0.6,0.5-1,0.9-1.3s0.8-0.4,1.4-0.4c0.5,0,1,0.1,1.4,0.4s0.7,0.7,0.9,1.3
		c0.2,0.6,0.3,1.2,0.3,2s-0.1,1.5-0.3,2c-0.2,0.6-0.5,1-0.9,1.3S356.6,304.5,356.1,304.5z M356.1,303.7c0.5,0,0.9-0.3,1.2-0.8
		c0.3-0.5,0.4-1.2,0.4-2.2c0-0.6-0.1-1.2-0.2-1.6s-0.3-0.8-0.6-1c-0.2-0.2-0.6-0.4-0.9-0.4c-0.5,0-0.9,0.3-1.2,0.8
		c-0.3,0.5-0.4,1.3-0.4,2.2c0,0.6,0.1,1.2,0.2,1.6s0.3,0.8,0.6,1C355.4,303.6,355.7,303.7,356.1,303.7z M360.6,303.5
		c-0.2,0-0.3-0.1-0.5-0.2c-0.1-0.1-0.2-0.3-0.2-0.5s0.1-0.3,0.2-0.5c0.1-0.1,0.3-0.2,0.5-0.2s0.3,0.1,0.5,0.2
		c0.1,0.1,0.2,0.3,0.2,0.5c0,0.1,0,0.2-0.1,0.3c-0.1,0.1-0.1,0.2-0.2,0.2C360.8,303.5,360.7,303.5,360.6,303.5z M360.6,299.8
		c-0.2,0-0.3-0.1-0.5-0.2c-0.1-0.1-0.2-0.3-0.2-0.5s0.1-0.3,0.2-0.5c0.1-0.1,0.3-0.2,0.5-0.2s0.3,0.1,0.5,0.2
		c0.1,0.1,0.2,0.3,0.2,0.5c0,0.1,0,0.2-0.1,0.3c-0.1,0.1-0.1,0.2-0.2,0.2C360.8,299.8,360.7,299.8,360.6,299.8z M362.8,304.4v-0.6
		l2.4-2.6c0.3-0.3,0.5-0.6,0.7-0.8c0.2-0.2,0.3-0.4,0.4-0.7c0.1-0.2,0.1-0.4,0.1-0.6c0-0.3-0.1-0.5-0.2-0.7s-0.3-0.3-0.5-0.4
		s-0.5-0.2-0.7-0.2c-0.3,0-0.5,0.1-0.7,0.2s-0.4,0.3-0.5,0.5s-0.2,0.5-0.2,0.7h-0.8c0-0.4,0.1-0.8,0.3-1.1s0.5-0.6,0.8-0.8
		c0.3-0.2,0.7-0.3,1.2-0.3c0.4,0,0.8,0.1,1.1,0.3c0.3,0.2,0.6,0.4,0.8,0.7c0.2,0.3,0.3,0.6,0.3,1c0,0.3,0,0.5-0.1,0.8
		s-0.3,0.5-0.5,0.9c-0.2,0.3-0.6,0.7-1,1.1l-1.6,1.8v0.1h3.4v0.8L362.8,304.4L362.8,304.4z M368.5,302.9v-0.7l3.2-5.1h0.5v1.1h-0.4
		l-2.4,3.8v0.1h4.3v0.8L368.5,302.9L368.5,302.9z M372,304.4v-1.7v-0.3v-5.3h0.8v7.3H372z M375.8,303.5c-0.2,0-0.3-0.1-0.5-0.2
		c-0.1-0.1-0.2-0.3-0.2-0.5s0.1-0.3,0.2-0.5c0.1-0.1,0.3-0.2,0.5-0.2s0.3,0.1,0.5,0.2c0.1,0.1,0.2,0.3,0.2,0.5c0,0.1,0,0.2-0.1,0.3
		c-0.1,0.1-0.1,0.2-0.2,0.2C376,303.5,375.9,303.5,375.8,303.5z M375.8,299.8c-0.2,0-0.3-0.1-0.5-0.2c-0.1-0.1-0.2-0.3-0.2-0.5
		s0.1-0.3,0.2-0.5s0.3-0.2,0.5-0.2s0.3,0.1,0.5,0.2c0.1,0.1,0.2,0.3,0.2,0.5c0,0.1,0,0.2-0.1,0.3c-0.1,0.1-0.1,0.2-0.2,0.2
		C376,299.8,375.9,299.8,375.8,299.8z M380.2,304.5c-0.4,0-0.8-0.1-1.1-0.2c-0.3-0.2-0.6-0.4-0.8-0.7c-0.2-0.3-0.3-0.6-0.3-1h0.9
		c0,0.3,0.2,0.6,0.5,0.8c0.3,0.2,0.6,0.3,1,0.3c0.3,0,0.6-0.1,0.8-0.2c0.2-0.1,0.4-0.3,0.6-0.6c0.1-0.2,0.2-0.5,0.2-0.8
		s-0.1-0.6-0.2-0.9s-0.3-0.5-0.6-0.6c-0.2-0.1-0.5-0.2-0.8-0.2c-0.2,0-0.5,0-0.7,0.1s-0.4,0.2-0.6,0.3l-0.8-0.1l0.4-3.6h3.8v0.8
		h-3.1L379,300l0,0c0.1-0.1,0.3-0.2,0.6-0.3c0.2-0.1,0.5-0.1,0.7-0.1c0.4,0,0.8,0.1,1.2,0.3c0.4,0.2,0.6,0.5,0.8,0.9
		c0.2,0.4,0.3,0.8,0.3,1.3s-0.1,0.9-0.3,1.3c-0.2,0.4-0.5,0.7-0.9,0.9C381.1,304.4,380.7,304.5,380.2,304.5z M384,304.4v-0.6
		l2.4-2.6c0.3-0.3,0.5-0.6,0.7-0.8c0.2-0.2,0.3-0.4,0.4-0.7c0.1-0.2,0.1-0.4,0.1-0.6c0-0.3-0.1-0.5-0.2-0.7s-0.3-0.3-0.5-0.4
		s-0.5-0.2-0.7-0.2c-0.3,0-0.5,0.1-0.7,0.2s-0.4,0.3-0.5,0.5s-0.2,0.5-0.2,0.7H384c0-0.4,0.1-0.8,0.3-1.1s0.5-0.6,0.8-0.8
		c0.3-0.2,0.7-0.3,1.2-0.3c0.4,0,0.8,0.1,1.1,0.3c0.3,0.2,0.6,0.4,0.8,0.7c0.2,0.3,0.3,0.6,0.3,1c0,0.3,0,0.5-0.1,0.8
		s-0.3,0.5-0.5,0.9c-0.2,0.3-0.6,0.7-1,1.1l-1.6,1.8v0.1h3.4v0.8L384,304.4L384,304.4z"/>
	<path d="M180.6,305.4v-8.5h1.5v7.2h3.8v1.3H180.6z M190,305.5c-0.6,0-1.2-0.1-1.7-0.4s-0.8-0.7-1.1-1.1c-0.3-0.5-0.4-1.1-0.4-1.7
		c0-0.7,0.1-1.2,0.4-1.7c0.3-0.5,0.6-0.9,1.1-1.2c0.5-0.3,1-0.4,1.6-0.4c0.4,0,0.8,0.1,1.1,0.2c0.4,0.1,0.7,0.3,0.9,0.6
		c0.3,0.3,0.5,0.6,0.6,1c0.2,0.4,0.2,0.9,0.2,1.5v0.5h-5.3v-1h3.8c0-0.3-0.1-0.5-0.2-0.8c-0.1-0.2-0.3-0.4-0.5-0.5s-0.5-0.2-0.8-0.2
		s-0.6,0.1-0.8,0.2s-0.4,0.3-0.5,0.6c-0.1,0.2-0.2,0.5-0.2,0.8v0.9c0,0.4,0.1,0.7,0.2,1c0.1,0.3,0.3,0.5,0.6,0.6
		c0.2,0.1,0.5,0.2,0.9,0.2c0.2,0,0.4,0,0.6-0.1c0.2-0.1,0.3-0.2,0.5-0.3c0.1-0.1,0.2-0.3,0.3-0.5l1.4,0.2c-0.1,0.4-0.3,0.7-0.5,1
		s-0.6,0.5-1,0.6C191,305.5,190.5,305.5,190,305.5z M196,305.6c-0.4,0-0.8-0.1-1.1-0.2s-0.6-0.4-0.8-0.6c-0.2-0.3-0.3-0.6-0.3-1.1
		c0-0.4,0.1-0.7,0.2-0.9c0.1-0.2,0.3-0.4,0.5-0.6s0.5-0.2,0.8-0.3c0.3-0.1,0.6-0.1,0.9-0.2c0.4,0,0.7-0.1,0.9-0.1s0.4-0.1,0.5-0.1
		c0.1-0.1,0.2-0.2,0.2-0.3l0,0c0-0.3-0.1-0.6-0.3-0.7c-0.2-0.2-0.5-0.3-0.8-0.3c-0.4,0-0.7,0.1-0.9,0.2c-0.2,0.2-0.4,0.4-0.4,0.6
		l-1.4-0.2c0.1-0.4,0.3-0.7,0.5-1c0.3-0.3,0.6-0.5,0.9-0.6c0.4-0.1,0.8-0.2,1.2-0.2c0.3,0,0.6,0,0.9,0.1c0.3,0.1,0.6,0.2,0.8,0.4
		c0.3,0.2,0.5,0.4,0.6,0.7c0.2,0.3,0.2,0.6,0.2,1.1v4.3h-1.5v-0.9h-0.1c-0.1,0.2-0.2,0.3-0.4,0.5s-0.4,0.3-0.6,0.4
		C196.6,305.5,196.3,305.6,196,305.6z M196.4,304.4c0.3,0,0.6-0.1,0.8-0.2s0.4-0.3,0.5-0.5s0.2-0.4,0.2-0.7v-0.8
		c0,0-0.1,0.1-0.2,0.1c-0.1,0-0.2,0.1-0.4,0.1c-0.1,0-0.3,0-0.4,0.1c-0.1,0-0.3,0-0.4,0.1c-0.2,0-0.4,0.1-0.6,0.1
		c-0.2,0.1-0.3,0.2-0.4,0.3c-0.1,0.1-0.2,0.3-0.2,0.5c0,0.3,0.1,0.5,0.3,0.6S196.1,304.4,196.4,304.4z M200.9,305.4V299h1.5v1.1h0.1
		c0.1-0.4,0.3-0.7,0.6-0.9c0.3-0.2,0.6-0.3,1-0.3c0.1,0,0.2,0,0.3,0s0.2,0,0.3,0v1.4c-0.1,0-0.2,0-0.3-0.1c-0.1,0-0.3,0-0.4,0
		c-0.3,0-0.5,0.1-0.7,0.2s-0.4,0.3-0.5,0.5s-0.2,0.4-0.2,0.7v3.8L200.9,305.4L200.9,305.4z M207.1,301.7v3.8h-1.5V299h1.4v1.1h0.1
		c0.1-0.4,0.4-0.6,0.7-0.9c0.3-0.2,0.7-0.3,1.2-0.3c0.4,0,0.8,0.1,1.2,0.3c0.3,0.2,0.6,0.5,0.8,0.8c0.2,0.4,0.3,0.8,0.3,1.3v4.1
		h-1.5v-3.8c0-0.4-0.1-0.8-0.3-1s-0.5-0.4-0.9-0.4c-0.3,0-0.5,0.1-0.7,0.2s-0.4,0.3-0.5,0.5C207.1,301.1,207.1,301.4,207.1,301.7z
		 M215.7,305.4v-8.5h1.5v3.6h4v-3.6h1.6v8.5h-1.6v-3.6h-4v3.6H215.7z M224.1,298.2v-1.3h6.8v1.3h-2.6v7.2h-1.5v-7.2H224.1z
		 M232.2,296.9h1.9l2.5,6.2h0.1l2.5-6.2h1.9v8.5h-1.5v-5.9h-0.1l-2.4,5.8H236l-2.4-5.9h-0.1v5.9H232v-8.4H232.2z M242.8,305.4v-8.5
		h1.5v7.2h3.8v1.3H242.8z M254.9,305.5c-0.6,0-1.1-0.1-1.5-0.3s-0.7-0.5-1-0.9c-0.2-0.4-0.3-0.8-0.3-1.2c0-0.3,0.1-0.6,0.2-0.9
		c0.1-0.3,0.3-0.5,0.6-0.7s0.5-0.4,0.9-0.7l1.5-1c0.2-0.1,0.4-0.3,0.5-0.5s0.2-0.4,0.2-0.6s-0.1-0.4-0.2-0.5
		c-0.2-0.2-0.4-0.2-0.6-0.2c-0.2,0-0.3,0-0.5,0.1c-0.1,0.1-0.2,0.2-0.3,0.3c-0.1,0.1-0.1,0.3-0.1,0.4c0,0.2,0.1,0.4,0.2,0.6
		c0.1,0.2,0.2,0.4,0.4,0.6s0.4,0.4,0.5,0.7l4,4.7h-1.6l-3.3-3.8c-0.2-0.3-0.5-0.6-0.7-0.9s-0.4-0.6-0.6-0.9c-0.1-0.3-0.2-0.6-0.2-1
		s0.1-0.8,0.3-1.1c0.2-0.3,0.4-0.6,0.8-0.8c0.3-0.2,0.7-0.3,1.2-0.3s0.8,0.1,1.2,0.3c0.3,0.2,0.6,0.4,0.7,0.7c0.2,0.3,0.3,0.6,0.3,1
		s-0.1,0.8-0.3,1.1c-0.2,0.3-0.5,0.6-0.8,0.9l-1.7,1.3c-0.3,0.2-0.5,0.4-0.6,0.6s-0.2,0.4-0.2,0.5c0,0.2,0.1,0.4,0.2,0.6
		c0.1,0.2,0.3,0.3,0.5,0.4s0.5,0.2,0.7,0.2c0.3,0,0.6-0.1,0.9-0.2s0.6-0.3,0.8-0.6c0.2-0.3,0.4-0.6,0.6-0.9c0.1-0.4,0.2-0.8,0.2-1.2
		h1.3c0,0.5-0.1,1-0.2,1.4s-0.3,0.7-0.5,1s-0.4,0.5-0.6,0.7c-0.1,0-0.1,0.1-0.2,0.1s-0.1,0.1-0.2,0.1c-0.3,0.3-0.7,0.5-1.1,0.6
		C255.7,305.5,255.3,305.5,254.9,305.5z M270.4,299.8h-1.6c0-0.3-0.1-0.5-0.2-0.7s-0.3-0.4-0.4-0.5s-0.4-0.2-0.6-0.3
		c-0.2-0.1-0.5-0.1-0.7-0.1c-0.5,0-0.9,0.1-1.2,0.3c-0.4,0.2-0.6,0.6-0.8,1c-0.2,0.4-0.3,1-0.3,1.6c0,0.7,0.1,1.2,0.3,1.7
		c0.2,0.4,0.5,0.8,0.8,1c0.4,0.2,0.8,0.3,1.2,0.3c0.3,0,0.5,0,0.7-0.1s0.4-0.2,0.6-0.3c0.2-0.1,0.3-0.3,0.5-0.5
		c0.1-0.2,0.2-0.4,0.3-0.7h1.6c-0.1,0.4-0.2,0.8-0.4,1.1c-0.2,0.4-0.4,0.7-0.8,0.9c-0.3,0.3-0.7,0.5-1.1,0.6s-0.9,0.2-1.4,0.2
		c-0.8,0-1.4-0.2-2-0.5s-1.1-0.8-1.4-1.5s-0.5-1.4-0.5-2.4c0-0.9,0.2-1.7,0.5-2.4c0.3-0.7,0.8-1.2,1.4-1.5s1.3-0.5,2-0.5
		c0.5,0,0.9,0.1,1.3,0.2s0.8,0.3,1.1,0.6c0.3,0.3,0.6,0.6,0.8,0.9C270.2,298.9,270.3,299.3,270.4,299.8z M276.5,299.2
		c0-0.4-0.2-0.6-0.5-0.9c-0.3-0.2-0.7-0.3-1.1-0.3c-0.3,0-0.6,0-0.8,0.1c-0.2,0.1-0.4,0.2-0.5,0.4c-0.1,0.2-0.2,0.4-0.2,0.6
		s0,0.3,0.1,0.5c0.1,0.1,0.2,0.2,0.3,0.3c0.1,0.1,0.3,0.2,0.5,0.2c0.2,0.1,0.3,0.1,0.5,0.2l0.8,0.2c0.3,0.1,0.6,0.2,0.9,0.3
		c0.3,0.1,0.6,0.3,0.8,0.5c0.2,0.2,0.4,0.4,0.6,0.7c0.1,0.3,0.2,0.6,0.2,1c0,0.5-0.1,0.9-0.4,1.3s-0.6,0.7-1.1,0.9
		c-0.5,0.2-1.1,0.3-1.7,0.3c-0.7,0-1.2-0.1-1.7-0.3c-0.5-0.2-0.9-0.5-1.1-0.9c-0.3-0.4-0.4-0.9-0.4-1.4h1.5c0,0.3,0.1,0.5,0.3,0.7
		c0.2,0.2,0.4,0.3,0.6,0.4c0.3,0.1,0.6,0.1,0.9,0.1s0.6-0.1,0.9-0.2s0.5-0.2,0.6-0.4c0.1-0.2,0.2-0.4,0.2-0.6s-0.1-0.4-0.2-0.5
		s-0.3-0.3-0.5-0.4s-0.5-0.2-0.8-0.3l-1-0.3c-0.7-0.2-1.3-0.5-1.7-0.8c-0.4-0.4-0.6-0.9-0.6-1.5c0-0.5,0.1-0.9,0.4-1.3
		s0.6-0.7,1.1-0.9c0.5-0.2,1-0.3,1.6-0.3s1.1,0.1,1.6,0.3c0.5,0.2,0.8,0.5,1.1,0.9c0.3,0.4,0.4,0.8,0.4,1.3L276.5,299.2L276.5,299.2
		z M284.1,299.2c0-0.4-0.2-0.6-0.5-0.9c-0.3-0.2-0.7-0.3-1.1-0.3c-0.3,0-0.6,0-0.8,0.1c-0.2,0.1-0.4,0.2-0.5,0.4
		c-0.1,0.2-0.2,0.4-0.2,0.6s0,0.3,0.1,0.5c0.1,0.1,0.2,0.2,0.3,0.3c0.1,0.1,0.3,0.2,0.5,0.2c0.2,0.1,0.3,0.1,0.5,0.2l0.8,0.2
		c0.3,0.1,0.6,0.2,0.9,0.3c0.3,0.1,0.6,0.3,0.8,0.5c0.2,0.2,0.4,0.4,0.6,0.7s0.2,0.6,0.2,1c0,0.5-0.1,0.9-0.4,1.3s-0.6,0.7-1.1,0.9
		c-0.5,0.2-1.1,0.3-1.7,0.3c-0.7,0-1.2-0.1-1.7-0.3c-0.5-0.2-0.9-0.5-1.1-0.9c-0.3-0.4-0.4-0.9-0.4-1.4h1.5c0,0.3,0.1,0.5,0.3,0.7
		c0.2,0.2,0.4,0.3,0.6,0.4c0.3,0.1,0.6,0.1,0.9,0.1s0.6-0.1,0.9-0.2s0.5-0.2,0.6-0.4c0.1-0.2,0.2-0.4,0.2-0.6s-0.1-0.4-0.2-0.5
		s-0.3-0.3-0.5-0.4s-0.5-0.2-0.8-0.3l-1-0.3c-0.7-0.2-1.3-0.5-1.7-0.8c-0.4-0.4-0.6-0.9-0.6-1.5c0-0.5,0.1-0.9,0.4-1.3
		s0.6-0.7,1.1-0.9c0.5-0.2,1-0.3,1.6-0.3s1.1,0.1,1.6,0.3c0.5,0.2,0.8,0.5,1.1,0.9c0.3,0.4,0.4,0.8,0.4,1.3L284.1,299.2L284.1,299.2
		z"/>
	<circle class="st6" cx="147.9" cy="310.9" r="18.5"/>
	<g>
		<g>
			<defs>
				<rect id="SVGID_1_" x="137.8" y="300.8" width="20.1" height="20.1"/>
			</defs>
			<clipPath id="SVGID_2_">
				<use xlink:href="#SVGID_1_"  style="overflow:visible;"/>
			</clipPath>
			<g class="st9">
				<path class="st2" d="M144.1,316.1c-0.2,0-0.4-0.1-0.5-0.2l-5-4.4c-0.1-0.1-0.2-0.2-0.2-0.3c0-0.1-0.1-0.2-0.1-0.3s0-0.2,0.1-0.3
					c0-0.1,0.1-0.2,0.2-0.3l5-4.4c0.2-0.1,0.4-0.2,0.6-0.2c0.2,0,0.4,0.1,0.6,0.3s0.2,0.4,0.2,0.6s-0.1,0.4-0.3,0.6l-4.3,3.8
					l4.3,3.8c0.1,0.1,0.2,0.3,0.3,0.4s0,0.3,0,0.5c-0.1,0.2-0.2,0.3-0.3,0.4C144.4,316.1,144.3,316.1,144.1,316.1L144.1,316.1z"/>
				<path class="st2" d="M151.7,316.1c-0.2,0-0.3-0.1-0.5-0.1c-0.1-0.1-0.2-0.2-0.3-0.4c-0.1-0.2-0.1-0.3,0-0.5s0.1-0.3,0.3-0.4
					l4.3-3.8l-4.3-3.8c-0.2-0.1-0.3-0.3-0.3-0.6c0-0.2,0.1-0.4,0.2-0.6c0.1-0.2,0.3-0.3,0.6-0.3c0.2,0,0.4,0.1,0.6,0.2l5,4.4
					c0.1,0.1,0.2,0.2,0.2,0.3c0,0.1,0.1,0.2,0.1,0.3s0,0.2-0.1,0.3c0,0.1-0.1,0.2-0.2,0.3l-5,4.4C152,316,151.9,316.1,151.7,316.1
					L151.7,316.1z"/>
				<path class="st2" d="M146,318c-0.1,0-0.3,0-0.4-0.1c-0.1-0.1-0.2-0.1-0.3-0.2s-0.1-0.2-0.2-0.4c0-0.1,0-0.3,0-0.4l3.8-12.6
					c0-0.1,0.1-0.2,0.1-0.3c0.1-0.1,0.2-0.2,0.2-0.2c0.1-0.1,0.2-0.1,0.3-0.1s0.2,0,0.3,0s0.2,0.1,0.3,0.2s0.2,0.2,0.2,0.3
					c0.1,0.1,0.1,0.2,0.1,0.3c0,0.1,0,0.2,0,0.3l-3.8,12.6c-0.1,0.2-0.2,0.3-0.3,0.4C146.3,317.9,146.2,318,146,318L146,318z"/>
			</g>
		</g>
	</g>
	<path class="st3" d="M126.1,196h267.6c5.6,0,10.1,4.5,10.1,10.1v50.3c0,5.6-4.5,10.1-10.1,10.1H126.1c-5.6,0-10.1-4.5-10.1-10.1
		v-50.3C116,200.5,120.5,196,126.1,196z"/>
	<path class="st4" d="M375.4,250.2c-0.2,0-0.5-0.1-0.7-0.2c-0.5-0.3-0.8-0.8-0.8-1.3v-11.4c0-0.6,0.3-1.1,0.8-1.4
		c0.2-0.1,0.5-0.2,0.7-0.2s0.5,0.1,0.7,0.2l9.7,5.8c0.2,0.1,0.4,0.3,0.5,0.5s0.2,0.4,0.2,0.7c0,0.2-0.1,0.5-0.2,0.7
		s-0.3,0.4-0.5,0.5l-9.7,5.8C375.9,250.1,375.7,250.2,375.4,250.2L375.4,250.2z"/>
	<path class="st10" d="M246,232.9h44.4c2.8,0,5,2.3,5,5v10.3c0,2.8-2.3,5-5,5H246c-2.8,0-5-2.3-5-5v-10.3
		C241,235.2,243.3,232.9,246,232.9z"/>
	<path class="st11" d="M249.9,247.1l-2-7.3h1.2l1.4,5.7h0.1l1.5-5.7h1.2l1.5,5.7h0.1l1.4-5.7h1.2l-2,7.3h-1.1l-1.5-5.5h-0.1
		l-1.5,5.5H249.9z M260,247.2c-0.5,0-1-0.1-1.3-0.4c-0.4-0.2-0.7-0.6-0.9-1c-0.2-0.4-0.3-0.9-0.3-1.5s0.1-1.1,0.3-1.5
		c0.2-0.4,0.5-0.8,0.9-1s0.8-0.4,1.3-0.4s1,0.1,1.3,0.4c0.4,0.2,0.7,0.6,0.9,1c0.2,0.4,0.3,0.9,0.3,1.5s-0.1,1.1-0.3,1.5
		c-0.2,0.4-0.5,0.8-0.9,1C261,247.1,260.6,247.2,260,247.2z M260,246.3c0.3,0,0.6-0.1,0.8-0.3c0.2-0.2,0.4-0.4,0.5-0.7
		s0.2-0.6,0.2-1c0-0.3-0.1-0.7-0.2-1s-0.3-0.5-0.5-0.7s-0.5-0.3-0.8-0.3s-0.6,0.1-0.8,0.3c-0.2,0.2-0.4,0.4-0.5,0.7s-0.2,0.6-0.2,1
		s0.1,0.7,0.2,1s0.3,0.5,0.5,0.7C259.4,246.2,259.7,246.3,260,246.3z M263.8,247.1v-5.5h1v0.9h0.1c0.1-0.3,0.3-0.5,0.5-0.7
		c0.3-0.2,0.5-0.3,0.9-0.3c0.1,0,0.1,0,0.2,0s0.2,0,0.2,0v1c0,0-0.1,0-0.2,0s-0.2,0-0.3,0c-0.3,0-0.5,0.1-0.7,0.2
		c-0.2,0.1-0.4,0.3-0.5,0.4c-0.1,0.2-0.2,0.4-0.2,0.6v3.4L263.8,247.1L263.8,247.1z M268.6,245.2v-1.3h0.2l2.2-2.3h1.3l-2.5,2.6
		h-0.2L268.6,245.2z M267.7,247.1v-7.3h1.1v7.3H267.7z M271.1,247.1l-2-2.6l0.7-0.7l2.5,3.4L271.1,247.1L271.1,247.1z M275.4,247.2
		c-0.5,0-1-0.1-1.3-0.4c-0.4-0.2-0.7-0.6-0.9-1c-0.2-0.4-0.3-0.9-0.3-1.5s0.1-1.1,0.3-1.5c0.2-0.4,0.5-0.8,0.9-1s0.8-0.4,1.3-0.4
		s1,0.1,1.3,0.4c0.4,0.2,0.7,0.6,0.9,1c0.2,0.4,0.3,0.9,0.3,1.5s-0.1,1.1-0.3,1.5c-0.2,0.4-0.5,0.8-0.9,1
		C276.3,247.1,275.9,247.2,275.4,247.2z M275.4,246.3c0.3,0,0.6-0.1,0.8-0.3c0.2-0.2,0.4-0.4,0.5-0.7s0.2-0.6,0.2-1
		c0-0.3-0.1-0.7-0.2-1s-0.3-0.5-0.5-0.7s-0.5-0.3-0.8-0.3s-0.6,0.1-0.8,0.3c-0.2,0.2-0.4,0.4-0.5,0.7s-0.2,0.6-0.2,1s0.1,0.7,0.2,1
		s0.3,0.5,0.5,0.7C274.7,246.2,275,246.3,275.4,246.3z M282.6,244.8v-3.2h1.1v5.5h-1.1v-1h-0.1c-0.1,0.3-0.3,0.5-0.6,0.7
		c-0.3,0.2-0.6,0.3-1,0.3s-0.7-0.1-0.9-0.2c-0.3-0.2-0.5-0.4-0.6-0.7c-0.2-0.3-0.2-0.7-0.2-1.1v-3.5h1.1v3.4c0,0.4,0.1,0.7,0.3,0.9
		s0.5,0.3,0.8,0.3c0.2,0,0.4,0,0.6-0.1s0.4-0.3,0.5-0.5C282.5,245.4,282.6,245.1,282.6,244.8z M287.7,241.6v0.9h-3v-0.9H287.7z
		 M285.5,240.3h1.1v5.2c0,0.2,0,0.4,0.1,0.5s0.1,0.2,0.2,0.2s0.2,0.1,0.3,0.1c0.1,0,0.2,0,0.2,0c0.1,0,0.1,0,0.1,0l0.2,0.9
		c-0.1,0-0.1,0-0.3,0.1c-0.1,0-0.3,0-0.4,0c-0.3,0-0.5,0-0.8-0.1c-0.2-0.1-0.4-0.3-0.6-0.5s-0.2-0.5-0.2-0.8L285.5,240.3
		L285.5,240.3z"/>
	<path class="st7" d="M184.8,232.9h45.4c2.8,0,5,2.3,5,5v10.3c0,2.8-2.3,5-5,5h-45.4c-2.8,0-5-2.3-5-5v-10.3
		C179.8,235.2,182,232.9,184.8,232.9z"/>
	<path class="st4" d="M187.3,247.1v-7.3h2.6c0.6,0,1,0.1,1.4,0.3s0.7,0.5,0.8,0.9c0.2,0.4,0.3,0.8,0.3,1.2s-0.1,0.9-0.3,1.2
		c-0.2,0.4-0.5,0.6-0.8,0.9c-0.4,0.2-0.8,0.3-1.4,0.3h-1.8v-0.9h1.7c0.4,0,0.7-0.1,0.9-0.2c0.2-0.1,0.4-0.3,0.5-0.5s0.2-0.5,0.2-0.7
		s-0.1-0.5-0.2-0.7c-0.1-0.2-0.3-0.4-0.5-0.5s-0.5-0.2-0.9-0.2h-1.4v6.4h-1.1V247.1z M195.9,247.2c-0.5,0-1-0.1-1.4-0.3
		s-0.7-0.6-0.9-1s-0.3-0.9-0.3-1.5s0.1-1.1,0.3-1.5s0.5-0.8,0.9-1s0.8-0.4,1.3-0.4c0.3,0,0.6,0.1,0.9,0.2c0.3,0.1,0.6,0.3,0.8,0.5
		s0.4,0.5,0.5,0.9c0.1,0.3,0.2,0.8,0.2,1.3v0.4h-4.4V244h3.3c0-0.3-0.1-0.5-0.2-0.7c-0.1-0.2-0.3-0.4-0.5-0.5s-0.4-0.2-0.7-0.2
		s-0.6,0.1-0.8,0.2c-0.2,0.1-0.4,0.3-0.5,0.6c-0.1,0.2-0.2,0.5-0.2,0.8v0.6c0,0.4,0.1,0.7,0.2,0.9c0.1,0.3,0.3,0.5,0.5,0.6
		s0.5,0.2,0.8,0.2c0.2,0,0.4,0,0.6-0.1c0.2-0.1,0.3-0.1,0.4-0.3c0.1-0.1,0.2-0.3,0.3-0.4l1,0.2c-0.1,0.3-0.2,0.6-0.4,0.8
		s-0.5,0.4-0.8,0.5C196.7,247.2,196.3,247.2,195.9,247.2z M199.5,247.1v-5.5h1v0.9h0.1c0.1-0.3,0.3-0.5,0.5-0.7
		c0.3-0.2,0.5-0.3,0.9-0.3c0.1,0,0.1,0,0.2,0c0.1,0,0.2,0,0.2,0v1c0,0-0.1,0-0.2,0c-0.1,0-0.2,0-0.3,0c-0.3,0-0.5,0.1-0.7,0.2
		c-0.2,0.1-0.4,0.3-0.5,0.4c-0.1,0.2-0.2,0.4-0.2,0.6v3.4L199.5,247.1L199.5,247.1z M207.4,243l-1,0.2c0-0.1-0.1-0.2-0.2-0.4
		c-0.1-0.1-0.2-0.2-0.3-0.3s-0.3-0.1-0.6-0.1s-0.6,0.1-0.8,0.2c-0.2,0.1-0.3,0.3-0.3,0.5s0.1,0.3,0.2,0.4c0.1,0.1,0.4,0.2,0.7,0.3
		l0.9,0.2c0.5,0.1,0.9,0.3,1.1,0.5s0.4,0.6,0.4,0.9c0,0.3-0.1,0.6-0.3,0.9c-0.2,0.3-0.5,0.5-0.8,0.6s-0.7,0.2-1.2,0.2
		c-0.6,0-1.1-0.1-1.5-0.4c-0.4-0.3-0.6-0.6-0.7-1.1l1-0.2c0.1,0.3,0.2,0.5,0.4,0.6s0.5,0.2,0.8,0.2c0.4,0,0.6-0.1,0.8-0.2
		c0.2-0.1,0.3-0.3,0.3-0.5s-0.1-0.3-0.2-0.4c-0.1-0.1-0.3-0.2-0.6-0.3l-0.9-0.2c-0.5-0.1-0.9-0.3-1.1-0.6c-0.2-0.3-0.4-0.6-0.4-1
		c0-0.3,0.1-0.6,0.3-0.9c0.2-0.2,0.4-0.4,0.8-0.6c0.3-0.1,0.7-0.2,1.1-0.2c0.6,0,1.1,0.1,1.4,0.4C207.1,242.2,207.3,242.5,207.4,243
		z M211,247.2c-0.5,0-1-0.1-1.3-0.4c-0.4-0.2-0.7-0.6-0.9-1s-0.3-0.9-0.3-1.5s0.1-1.1,0.3-1.5s0.5-0.8,0.9-1s0.8-0.4,1.3-0.4
		s1,0.1,1.3,0.4c0.4,0.2,0.7,0.6,0.9,1s0.3,0.9,0.3,1.5s-0.1,1.1-0.3,1.5s-0.5,0.8-0.9,1C212,247.1,211.6,247.2,211,247.2z
		 M211,246.3c0.3,0,0.6-0.1,0.8-0.3s0.4-0.4,0.5-0.7s0.2-0.6,0.2-1c0-0.3-0.1-0.7-0.2-1c-0.1-0.3-0.3-0.5-0.5-0.7s-0.5-0.3-0.8-0.3
		s-0.6,0.1-0.8,0.3s-0.4,0.4-0.5,0.7s-0.2,0.6-0.2,1s0.1,0.7,0.2,1c0.1,0.3,0.3,0.5,0.5,0.7S210.7,246.3,211,246.3z M215.9,243.8
		v3.3h-1.1v-5.5h1v0.9h0.1c0.1-0.3,0.3-0.5,0.6-0.7s0.6-0.3,1-0.3s0.7,0.1,1,0.2c0.3,0.2,0.5,0.4,0.7,0.7s0.2,0.7,0.2,1.1v3.5h-1.1
		v-3.4c0-0.4-0.1-0.7-0.3-0.9s-0.5-0.3-0.9-0.3c-0.2,0-0.5,0.1-0.7,0.2c-0.2,0.1-0.3,0.3-0.5,0.5
		C215.9,243.3,215.9,243.6,215.9,243.8z M222.4,247.2c-0.3,0-0.7-0.1-0.9-0.2c-0.3-0.1-0.5-0.3-0.7-0.6c-0.2-0.2-0.2-0.6-0.2-0.9
		c0-0.3,0.1-0.6,0.2-0.8c0.1-0.2,0.3-0.4,0.5-0.5s0.4-0.2,0.7-0.3c0.2-0.1,0.5-0.1,0.8-0.1s0.6-0.1,0.8-0.1s0.4-0.1,0.4-0.1
		c0.1-0.1,0.1-0.2,0.1-0.3l0,0c0-0.3-0.1-0.6-0.3-0.7c-0.2-0.2-0.4-0.3-0.8-0.3c-0.4,0-0.6,0.1-0.9,0.2c-0.2,0.2-0.3,0.3-0.4,0.5
		l-1-0.2c0.1-0.3,0.3-0.6,0.5-0.8s0.5-0.4,0.8-0.4c0.3-0.1,0.6-0.1,0.9-0.1c0.2,0,0.5,0,0.7,0.1s0.5,0.1,0.7,0.3
		c0.2,0.1,0.4,0.3,0.5,0.6c0.1,0.2,0.2,0.6,0.2,1v3.6h-1v-0.8l0,0c-0.1,0.1-0.2,0.3-0.3,0.4c-0.1,0.1-0.3,0.2-0.5,0.3
		C223,247.2,222.7,247.2,222.4,247.2z M222.6,246.4c0.3,0,0.5-0.1,0.8-0.2c0.2-0.1,0.4-0.3,0.5-0.5s0.2-0.4,0.2-0.6v-0.7
		c0,0-0.1,0.1-0.2,0.1c-0.1,0-0.2,0.1-0.4,0.1c-0.1,0-0.3,0-0.4,0.1c-0.1,0-0.2,0-0.3,0c-0.2,0-0.4,0.1-0.6,0.1
		c-0.2,0.1-0.3,0.2-0.4,0.3c-0.1,0.1-0.2,0.3-0.2,0.5c0,0.3,0.1,0.5,0.3,0.6C222.1,246.3,222.3,246.4,222.6,246.4z M227.6,239.8v7.3
		h-1.1v-7.3H227.6z"/>
	<path class="st8" d="M351.5,221.5c-0.5,0-1-0.1-1.4-0.4c-0.4-0.3-0.7-0.7-0.9-1.3c-0.2-0.6-0.3-1.2-0.3-2s0.1-1.5,0.3-2
		c0.2-0.6,0.5-1,0.9-1.3s0.8-0.4,1.4-0.4s1,0.1,1.4,0.4c0.4,0.3,0.7,0.7,0.9,1.3c0.2,0.6,0.3,1.2,0.3,2s-0.1,1.5-0.3,2
		c-0.2,0.6-0.5,1-0.9,1.3C352.5,221.4,352.1,221.5,351.5,221.5z M351.5,220.7c0.5,0,0.9-0.3,1.2-0.8c0.3-0.5,0.4-1.2,0.4-2.2
		c0-0.6-0.1-1.2-0.2-1.6c-0.1-0.4-0.3-0.8-0.6-1c-0.2-0.2-0.6-0.4-0.9-0.4c-0.5,0-0.9,0.3-1.2,0.8c-0.3,0.5-0.4,1.3-0.4,2.2
		c0,0.6,0.1,1.2,0.2,1.6c0.1,0.4,0.3,0.8,0.6,1C350.9,220.6,351.2,220.7,351.5,220.7z M357.8,221.5c-0.5,0-1-0.1-1.4-0.4
		c-0.4-0.3-0.7-0.7-0.9-1.3c-0.2-0.6-0.3-1.2-0.3-2s0.1-1.5,0.3-2c0.2-0.6,0.5-1,0.9-1.3s0.8-0.4,1.4-0.4s1,0.1,1.4,0.4
		c0.4,0.3,0.7,0.7,0.9,1.3c0.2,0.6,0.3,1.2,0.3,2s-0.1,1.5-0.3,2c-0.2,0.6-0.5,1-0.9,1.3C358.8,221.4,358.4,221.5,357.8,221.5z
		 M357.8,220.7c0.5,0,0.9-0.3,1.2-0.8c0.3-0.5,0.4-1.2,0.4-2.2c0-0.6-0.1-1.2-0.2-1.6c-0.1-0.4-0.3-0.8-0.6-1
		c-0.2-0.2-0.6-0.4-0.9-0.4c-0.5,0-0.9,0.3-1.2,0.8c-0.3,0.5-0.4,1.3-0.4,2.2c0,0.6,0.1,1.2,0.2,1.6c0.1,0.4,0.3,0.8,0.6,1
		C357.2,220.6,357.5,220.7,357.8,220.7z M362.4,220.5c-0.2,0-0.3-0.1-0.5-0.2c-0.1-0.1-0.2-0.3-0.2-0.5s0.1-0.3,0.2-0.5
		c0.1-0.1,0.3-0.2,0.5-0.2s0.3,0.1,0.5,0.2c0.1,0.1,0.2,0.3,0.2,0.5c0,0.1,0,0.2-0.1,0.3s-0.1,0.2-0.2,0.2
		C362.6,220.5,362.5,220.5,362.4,220.5z M362.4,216.8c-0.2,0-0.3-0.1-0.5-0.2c-0.1-0.1-0.2-0.3-0.2-0.5s0.1-0.3,0.2-0.5
		c0.1-0.1,0.3-0.2,0.5-0.2s0.3,0.1,0.5,0.2c0.1,0.1,0.2,0.3,0.2,0.5c0,0.1,0,0.2-0.1,0.3s-0.1,0.2-0.2,0.2
		C362.6,216.8,362.5,216.8,362.4,216.8z M367.1,214.1v7.3h-0.9V215l0,0l-1.8,1.2v-0.9l1.8-1.2H367.1z M369,219.9v-0.7l3.2-5.1h0.5
		v1.1h-0.4l-2.4,3.8v0.1h4.3v0.8L369,219.9L369,219.9z M372.4,221.4v-1.7v-0.3v-5.3h0.8v7.3H372.4z M376.3,220.5
		c-0.2,0-0.3-0.1-0.5-0.2c-0.1-0.1-0.2-0.3-0.2-0.5s0.1-0.3,0.2-0.5c0.1-0.1,0.3-0.2,0.5-0.2s0.3,0.1,0.5,0.2
		c0.1,0.1,0.2,0.3,0.2,0.5c0,0.1,0,0.2-0.1,0.3s-0.1,0.2-0.2,0.2C376.5,220.5,376.4,220.5,376.3,220.5z M376.3,216.8
		c-0.2,0-0.3-0.1-0.5-0.2c-0.1-0.1-0.2-0.3-0.2-0.5s0.1-0.3,0.2-0.5c0.1-0.1,0.3-0.2,0.5-0.2s0.3,0.1,0.5,0.2
		c0.1,0.1,0.2,0.3,0.2,0.5c0,0.1,0,0.2-0.1,0.3s-0.1,0.2-0.2,0.2C376.5,216.8,376.4,216.8,376.3,216.8z M380.8,221.5
		c-0.5,0-1-0.1-1.4-0.4c-0.4-0.3-0.7-0.7-0.9-1.3c-0.2-0.6-0.3-1.2-0.3-2s0.1-1.5,0.3-2c0.2-0.6,0.5-1,0.9-1.3s0.8-0.4,1.4-0.4
		s1,0.1,1.4,0.4c0.4,0.3,0.7,0.7,0.9,1.3c0.2,0.6,0.3,1.2,0.3,2s-0.1,1.5-0.3,2c-0.2,0.6-0.5,1-0.9,1.3
		C381.8,221.4,381.3,221.5,380.8,221.5z M380.8,220.7c0.5,0,0.9-0.3,1.2-0.8c0.3-0.5,0.4-1.2,0.4-2.2c0-0.6-0.1-1.2-0.2-1.6
		c-0.1-0.4-0.3-0.8-0.6-1c-0.3-0.2-0.6-0.4-0.9-0.4c-0.5,0-0.9,0.3-1.2,0.8c-0.3,0.5-0.4,1.3-0.4,2.2c0,0.6,0.1,1.2,0.2,1.6
		c0.1,0.4,0.3,0.8,0.6,1C380.1,220.6,380.4,220.7,380.8,220.7z M387.1,221.5c-0.3,0-0.6-0.1-0.9-0.2c-0.3-0.1-0.6-0.3-0.8-0.6
		c-0.2-0.3-0.4-0.6-0.6-1.1c-0.2-0.4-0.2-1-0.2-1.7c0-0.6,0.1-1.2,0.2-1.7s0.3-0.9,0.5-1.3c0.2-0.3,0.5-0.6,0.8-0.8s0.7-0.3,1.1-0.3
		s0.8,0.1,1.1,0.2c0.3,0.2,0.6,0.4,0.8,0.7c0.2,0.3,0.3,0.6,0.4,1h-0.9c-0.1-0.3-0.2-0.6-0.5-0.8c-0.2-0.2-0.5-0.3-0.9-0.3
		c-0.6,0-1,0.2-1.3,0.7s-0.5,1.2-0.5,2.1h0.1c0.1-0.2,0.3-0.4,0.5-0.5s0.4-0.3,0.6-0.3c0.2-0.1,0.5-0.1,0.7-0.1
		c0.4,0,0.8,0.1,1.2,0.3c0.3,0.2,0.6,0.5,0.8,0.9c0.2,0.4,0.3,0.8,0.3,1.3s-0.1,0.9-0.3,1.2c-0.2,0.4-0.5,0.7-0.9,0.9
		C388,221.4,387.6,221.5,387.1,221.5z M387.1,220.7c0.3,0,0.6-0.1,0.8-0.2c0.2-0.2,0.4-0.4,0.6-0.6c0.1-0.3,0.2-0.5,0.2-0.8
		s-0.1-0.6-0.2-0.8s-0.3-0.4-0.6-0.6c-0.2-0.1-0.5-0.2-0.8-0.2c-0.2,0-0.4,0-0.6,0.1s-0.4,0.2-0.5,0.4s-0.3,0.3-0.3,0.5
		c-0.1,0.2-0.1,0.4-0.1,0.6c0,0.3,0.1,0.6,0.2,0.8c0.1,0.3,0.3,0.5,0.6,0.6C386.5,220.7,386.8,220.7,387.1,220.7z"/>
	<path d="M184,213.9v8.5h-1.5v-7h-0.1l-2,1.3v-1.4l2.1-1.4L184,213.9L184,213.9z M189.3,222.6c-0.7,0-1.3-0.2-1.8-0.5
		s-0.9-0.9-1.1-1.5c-0.3-0.7-0.4-1.5-0.4-2.4s0.1-1.7,0.4-2.4c0.3-0.7,0.6-1.2,1.1-1.5s1.1-0.5,1.8-0.5s1.3,0.2,1.8,0.5
		s0.9,0.8,1.1,1.5c0.3,0.7,0.4,1.4,0.4,2.4c0,0.9-0.1,1.7-0.4,2.4c-0.3,0.7-0.6,1.2-1.1,1.5C190.6,222.4,190,222.6,189.3,222.6z
		 M189.3,221.3c0.5,0,1-0.3,1.3-0.8s0.5-1.3,0.5-2.3c0-0.7-0.1-1.2-0.2-1.7c-0.1-0.5-0.3-0.8-0.6-1s-0.6-0.4-0.9-0.4
		c-0.5,0-1,0.3-1.3,0.8s-0.5,1.3-0.5,2.3c0,0.7,0.1,1.3,0.2,1.7c0.1,0.5,0.3,0.8,0.6,1.1C188.7,221.2,189,221.3,189.3,221.3z
		 M197.2,222.6c-0.7,0-1.3-0.2-1.8-0.5s-0.9-0.9-1.1-1.5c-0.3-0.7-0.4-1.5-0.4-2.4s0.1-1.7,0.4-2.4c0.3-0.7,0.6-1.2,1.1-1.5
		s1.1-0.5,1.8-0.5s1.3,0.2,1.8,0.5s0.9,0.8,1.1,1.5c0.3,0.7,0.4,1.4,0.4,2.4c0,0.9-0.1,1.7-0.4,2.4c-0.3,0.7-0.6,1.2-1.1,1.5
		C198.4,222.4,197.8,222.6,197.2,222.6z M197.2,221.3c0.5,0,1-0.3,1.3-0.8s0.5-1.3,0.5-2.3c0-0.7-0.1-1.2-0.2-1.7
		c-0.1-0.5-0.3-0.8-0.6-1s-0.6-0.4-0.9-0.4c-0.5,0-1,0.3-1.3,0.8s-0.5,1.3-0.5,2.3c0,0.7,0.1,1.3,0.2,1.7c0.1,0.5,0.3,0.8,0.6,1.1
		C196.5,221.2,196.8,221.3,197.2,221.3z M203.1,216l1.3,2.4l1.3-2.4h1.6l-1.9,3.2l2,3.2h-1.6l-1.4-2.3l-1.3,2.3h-1.6l2-3.2l-1.9-3.2
		H203.1z M216.1,216.2c0-0.4-0.2-0.6-0.5-0.9c-0.3-0.2-0.7-0.3-1.1-0.3c-0.3,0-0.6,0-0.8,0.1s-0.4,0.2-0.5,0.4s-0.2,0.4-0.2,0.6
		c0,0.2,0,0.3,0.1,0.5c0.1,0.1,0.2,0.2,0.3,0.3s0.3,0.2,0.5,0.2c0.2,0.1,0.3,0.1,0.5,0.2l0.8,0.2c0.3,0.1,0.6,0.2,0.9,0.3
		c0.3,0.1,0.6,0.3,0.8,0.5s0.4,0.4,0.6,0.7c0.1,0.3,0.2,0.6,0.2,1c0,0.5-0.1,0.9-0.4,1.3c-0.3,0.4-0.6,0.7-1.1,0.9s-1.1,0.3-1.7,0.3
		c-0.7,0-1.2-0.1-1.7-0.3s-0.9-0.5-1.1-0.9c-0.3-0.4-0.4-0.9-0.4-1.4h1.5c0,0.3,0.1,0.5,0.3,0.7s0.4,0.3,0.6,0.4
		c0.3,0.1,0.6,0.1,0.9,0.1c0.3,0,0.6-0.1,0.9-0.1c0.3-0.1,0.5-0.2,0.6-0.4s0.2-0.4,0.2-0.6c0-0.2-0.1-0.4-0.2-0.5
		c-0.1-0.1-0.3-0.3-0.5-0.4c-0.2-0.1-0.5-0.2-0.8-0.3l-1-0.3c-0.7-0.2-1.3-0.5-1.7-0.8c-0.4-0.4-0.6-0.9-0.6-1.5
		c0-0.5,0.1-0.9,0.4-1.3c0.3-0.4,0.6-0.7,1.1-0.9s1-0.3,1.6-0.3s1.1,0.1,1.6,0.3s0.8,0.5,1.1,0.9s0.4,0.8,0.4,1.3H216.1z M219,222.4
		V216h1.5v6.4H219z M219.8,215.1c-0.2,0-0.4-0.1-0.6-0.2c-0.2-0.2-0.3-0.4-0.3-0.6c0-0.2,0.1-0.4,0.3-0.6c0.2-0.2,0.4-0.2,0.6-0.2
		c0.2,0,0.4,0.1,0.6,0.2c0.2,0.2,0.3,0.4,0.3,0.6c0,0.2-0.1,0.4-0.3,0.6C220.2,215,220,215.1,219.8,215.1z M225.3,216v1.2h-3.7V216
		H225.3z M222.5,214.5h1.5v6c0,0.2,0,0.4,0.1,0.5s0.1,0.2,0.3,0.2c0.1,0,0.2,0.1,0.3,0.1s0.2,0,0.3,0s0.1,0,0.2,0l0.3,1.2
		c-0.1,0-0.2,0.1-0.3,0.1s-0.3,0.1-0.5,0.1c-0.4,0-0.7,0-1-0.2c-0.3-0.1-0.5-0.3-0.7-0.6s-0.3-0.6-0.3-1v-6.4H222.5z M230.2,218.2
		v1.2h-3.8v-1.2H230.2z M237.2,213.9h1.5v5.6c0,0.6-0.1,1.1-0.4,1.6c-0.3,0.5-0.7,0.8-1.2,1.1s-1.1,0.4-1.8,0.4s-1.3-0.1-1.8-0.4
		c-0.5-0.3-0.9-0.6-1.2-1.1s-0.4-1-0.4-1.6v-5.6h1.5v5.5c0,0.4,0.1,0.7,0.2,1c0.2,0.3,0.4,0.5,0.7,0.7s0.6,0.2,1,0.2s0.7-0.1,1-0.2
		c0.3-0.2,0.5-0.4,0.7-0.7s0.2-0.6,0.2-1V213.9z M240.4,224.8V216h1.5v1.1h0.1c0.1-0.2,0.2-0.3,0.3-0.5s0.3-0.3,0.6-0.5
		c0.2-0.1,0.6-0.2,0.9-0.2c0.5,0,0.9,0.1,1.3,0.4c0.4,0.2,0.7,0.6,1,1.1c0.2,0.5,0.4,1.1,0.4,1.8s-0.1,1.3-0.3,1.8s-0.5,0.9-0.9,1.1
		c-0.4,0.3-0.8,0.4-1.4,0.4c-0.4,0-0.7-0.1-0.9-0.2c-0.2-0.1-0.4-0.3-0.6-0.4c-0.1-0.2-0.3-0.3-0.3-0.5H242v3.4L240.4,224.8
		L240.4,224.8z M241.9,219.2c0,0.4,0.1,0.8,0.2,1.1c0.1,0.3,0.3,0.6,0.5,0.7c0.2,0.2,0.5,0.3,0.8,0.3s0.6-0.1,0.8-0.3
		s0.4-0.4,0.5-0.7s0.2-0.7,0.2-1.1c0-0.4-0.1-0.8-0.2-1.1c-0.1-0.3-0.3-0.6-0.5-0.7c-0.2-0.2-0.5-0.3-0.8-0.3s-0.6,0.1-0.8,0.3
		s-0.4,0.4-0.5,0.7C241.9,218.4,241.9,218.8,241.9,219.2z"/>
	<circle class="st11" cx="147.9" cy="227.9" r="18.5"/>
	<g>
		<g>
			<defs>
				<rect id="SVGID_3_" x="137.8" y="217.8" width="20.1" height="20.1"/>
			</defs>
			<clipPath id="SVGID_4_">
				<use xlink:href="#SVGID_3_"  style="overflow:visible;"/>
			</clipPath>
			<g class="st12">
				<path class="st2" d="M156.2,224.7c-0.2,0-0.4,0-0.6,0.1c-0.2,0.1-0.3,0.2-0.4,0.4l0,0l0,0l0,0l0,0v-1.4c0-0.8-0.6-1.5-1.5-1.5
					c-0.2,0-0.4,0-0.6,0.1c-0.2,0.1-0.4,0.2-0.5,0.3s-0.3,0.3-0.3,0.5c-0.1,0.2-0.1,0.4-0.1,0.6v3.2c0,0,0,0,0,0.1c0,0,0,0-0.1,0
					h-8.2c0,0,0,0-0.1,0c0,0,0,0,0-0.1v-3.2c0-0.8-0.6-1.5-1.5-1.5c-0.2,0-0.4,0-0.6,0.1c-0.2,0.1-0.4,0.2-0.5,0.3s-0.3,0.3-0.3,0.5
					c-0.1,0.2-0.1,0.4-0.1,0.6v1.5l0,0l0,0l0,0l0,0c-0.1-0.2-0.3-0.3-0.4-0.4s-0.4-0.1-0.6-0.1c-0.6,0-1.1,0.6-1.1,1.2v3.9
					c0,0.6,0.5,1.2,1.1,1.2c0.2,0,0.4,0,0.6-0.1c0.2-0.1,0.3-0.2,0.4-0.4l0,0c0,0,0,0,0.1,0l0,0l0,0v1.4c0,0.8,0.6,1.5,1.5,1.5
					c0.2,0,0.4,0,0.6-0.1c0.2-0.1,0.4-0.2,0.5-0.3s0.3-0.3,0.3-0.5c0.1-0.2,0.1-0.4,0.1-0.6v-3.2c0,0,0,0,0-0.1c0,0,0,0,0.1,0h8.2
					c0,0,0,0,0.1,0c0,0,0,0,0,0.1v3.2c0,0.8,0.6,1.5,1.5,1.5c0.2,0,0.4,0,0.6-0.1c0.2-0.1,0.4-0.2,0.5-0.3s0.3-0.3,0.3-0.5
					c0.1-0.2,0.1-0.4,0.1-0.6v-1.5l0,0l0,0l0,0l0,0c0.1,0.2,0.3,0.3,0.4,0.4c0.2,0.1,0.4,0.1,0.6,0.1c0.6,0,1.1-0.6,1.1-1.2v-3.9
					C157.3,225.3,156.8,224.8,156.2,224.7z"/>
			</g>
		</g>
	</g>
	<path class="st3" d="M116,122.1c0-5.6,4.5-10.1,10.1-10.1h267.6c5.6,0,10.1,4.5,10.1,10.1v50.3c0,5.6-4.5,10.1-10.1,10.1H126.1
		c-5.6,0-10.1-4.5-10.1-10.1V122.1z"/>
	<path class="st4" d="M375.4,166.2c-0.2,0-0.5-0.1-0.7-0.2c-0.5-0.3-0.8-0.8-0.8-1.3v-11.4c0-0.6,0.3-1.1,0.8-1.4
		c0.2-0.1,0.5-0.2,0.7-0.2s0.5,0.1,0.7,0.2l9.7,5.8c0.2,0.1,0.4,0.3,0.5,0.5s0.2,0.4,0.2,0.7c0,0.2-0.1,0.5-0.2,0.7
		s-0.3,0.4-0.5,0.5l-9.7,5.8C375.9,166.1,375.7,166.2,375.4,166.2L375.4,166.2z"/>
	<path class="st13" d="M227.6,148.9H300c2.8,0,5,2.3,5,5v10.3c0,2.8-2.3,5-5,5h-72.4c-2.8,0-5-2.3-5-5v-10.3
		C222.5,151.2,224.8,148.9,227.6,148.9z"/>
	<path class="st14" d="M230.1,163.1v-7.3h2.6c0.6,0,1,0.1,1.4,0.3s0.7,0.5,0.8,0.8c0.2,0.3,0.3,0.7,0.3,1.2c0,0.4-0.1,0.8-0.3,1.2
		c-0.2,0.3-0.5,0.6-0.8,0.8c-0.4,0.2-0.8,0.3-1.4,0.3h-2v-1h1.9c0.4,0,0.6-0.1,0.9-0.2c0.2-0.1,0.4-0.3,0.5-0.4
		c0.1-0.2,0.2-0.4,0.2-0.7s-0.1-0.5-0.2-0.7c-0.1-0.2-0.3-0.4-0.5-0.5s-0.5-0.2-0.9-0.2h-1.4v6.4L230.1,163.1L230.1,163.1z
		 M233.7,159.8l1.8,3.3h-1.3l-1.8-3.3H233.7z M238.1,163.2c-0.3,0-0.7-0.1-0.9-0.2c-0.3-0.1-0.5-0.3-0.7-0.6
		c-0.2-0.2-0.2-0.6-0.2-0.9c0-0.3,0.1-0.6,0.2-0.8c0.1-0.2,0.3-0.4,0.5-0.5s0.4-0.2,0.7-0.3c0.2-0.1,0.5-0.1,0.8-0.1
		s0.6-0.1,0.8-0.1s0.4-0.1,0.4-0.1c0.1-0.1,0.1-0.2,0.1-0.3l0,0c0-0.3-0.1-0.6-0.3-0.7c-0.2-0.2-0.4-0.3-0.8-0.3
		c-0.4,0-0.6,0.1-0.9,0.2c-0.2,0.2-0.3,0.3-0.4,0.5l-1-0.2c0.1-0.3,0.3-0.6,0.5-0.8s0.5-0.4,0.8-0.4c0.3-0.1,0.6-0.1,0.9-0.1
		c0.2,0,0.5,0,0.7,0.1s0.5,0.1,0.7,0.3c0.2,0.1,0.4,0.3,0.5,0.6c0.1,0.2,0.2,0.6,0.2,1v3.6h-1v-0.8l0,0c-0.1,0.1-0.2,0.3-0.3,0.4
		c-0.1,0.1-0.3,0.2-0.5,0.3C238.6,163.2,238.4,163.2,238.1,163.2z M238.3,162.4c0.3,0,0.5-0.1,0.8-0.2c0.2-0.1,0.4-0.3,0.5-0.5
		s0.2-0.4,0.2-0.6v-0.7c0,0-0.1,0.1-0.2,0.1c-0.1,0-0.2,0.1-0.4,0.1c-0.1,0-0.3,0-0.4,0.1c-0.1,0-0.2,0-0.3,0
		c-0.2,0-0.4,0.1-0.6,0.1c-0.2,0.1-0.3,0.2-0.4,0.3c-0.1,0.1-0.1,0.3-0.1,0.5c0,0.3,0.1,0.5,0.3,0.6
		C237.7,162.3,238,162.4,238.3,162.4z M246.3,159l-1,0.2c0-0.1-0.1-0.2-0.2-0.4c-0.1-0.1-0.2-0.2-0.3-0.3s-0.3-0.1-0.6-0.1
		s-0.6,0.1-0.8,0.2c-0.2,0.1-0.3,0.3-0.3,0.5s0.1,0.3,0.2,0.4s0.4,0.2,0.7,0.3l0.9,0.2c0.5,0.1,0.9,0.3,1.1,0.5s0.4,0.6,0.4,0.9
		c0,0.3-0.1,0.6-0.3,0.9c-0.2,0.3-0.5,0.5-0.8,0.6s-0.7,0.2-1.2,0.2c-0.6,0-1.1-0.1-1.5-0.4c-0.4-0.3-0.6-0.6-0.7-1.1l1-0.2
		c0.1,0.3,0.2,0.5,0.4,0.6s0.5,0.2,0.8,0.2c0.4,0,0.6-0.1,0.8-0.2c0.2-0.1,0.3-0.3,0.3-0.5s-0.1-0.3-0.2-0.4
		c-0.1-0.1-0.3-0.2-0.6-0.3l-0.9-0.2c-0.5-0.1-0.9-0.3-1.1-0.6c-0.2-0.3-0.4-0.6-0.4-1c0-0.3,0.1-0.6,0.3-0.9
		c0.2-0.2,0.4-0.4,0.8-0.6c0.3-0.1,0.7-0.2,1.1-0.2c0.6,0,1.1,0.1,1.4,0.4C246,158.2,246.2,158.5,246.3,159z M247.6,163.1v-5.5h1.1
		v5.5H247.6z M248.1,156.8c-0.2,0-0.3-0.1-0.5-0.2c-0.1-0.1-0.2-0.3-0.2-0.4c0-0.2,0.1-0.3,0.2-0.5c0.1-0.1,0.3-0.2,0.5-0.2
		s0.3,0.1,0.5,0.2c0.1,0.1,0.2,0.3,0.2,0.5s-0.1,0.3-0.2,0.4C248.5,156.7,248.3,156.8,248.1,156.8z M252.4,163.2
		c-0.5,0-1-0.1-1.3-0.4c-0.4-0.2-0.7-0.6-0.9-1s-0.3-0.9-0.3-1.5s0.1-1.1,0.3-1.5s0.5-0.8,0.9-1s0.8-0.4,1.3-0.4s1,0.1,1.3,0.4
		c0.4,0.2,0.7,0.6,0.9,1s0.3,0.9,0.3,1.5s-0.1,1.1-0.3,1.5s-0.5,0.8-0.9,1C253.4,163.1,252.9,163.2,252.4,163.2z M252.4,162.3
		c0.3,0,0.6-0.1,0.8-0.3s0.4-0.4,0.5-0.7s0.2-0.6,0.2-1c0-0.3-0.1-0.7-0.2-1c-0.1-0.3-0.3-0.5-0.5-0.7s-0.5-0.3-0.8-0.3
		s-0.6,0.1-0.8,0.3s-0.4,0.4-0.5,0.7s-0.2,0.6-0.2,1s0.1,0.7,0.2,1c0.1,0.3,0.3,0.5,0.5,0.7C251.8,162.2,252.1,162.3,252.4,162.3z
		 M257.2,159.8v3.3h-1.1v-5.5h1v0.9h0.1c0.1-0.3,0.3-0.5,0.6-0.7c0.3-0.2,0.6-0.3,1-0.3s0.7,0.1,1,0.2c0.3,0.2,0.5,0.4,0.7,0.7
		s0.2,0.7,0.2,1.1v3.5h-1.1v-3.4c0-0.4-0.1-0.7-0.3-0.9c-0.2-0.2-0.5-0.3-0.9-0.3c-0.2,0-0.5,0.1-0.7,0.2c-0.2,0.1-0.3,0.3-0.5,0.5
		C257.3,159.3,257.2,159.6,257.2,159.8z M264.9,163.1v-7.3h2.6c0.6,0,1,0.1,1.4,0.3s0.7,0.5,0.8,0.9c0.2,0.4,0.3,0.8,0.3,1.2
		s-0.1,0.9-0.3,1.2c-0.2,0.4-0.5,0.6-0.8,0.9c-0.4,0.2-0.8,0.3-1.4,0.3h-1.8v-0.9h1.7c0.4,0,0.7-0.1,0.9-0.2
		c0.2-0.1,0.4-0.3,0.5-0.5s0.2-0.5,0.2-0.7s-0.1-0.5-0.2-0.7s-0.3-0.4-0.5-0.5s-0.5-0.2-0.9-0.2H266v6.4h-1.1V163.1z M271.3,163.1
		v-5.5h1v0.9h0.1c0.1-0.3,0.3-0.5,0.5-0.7c0.3-0.2,0.5-0.3,0.9-0.3c0.1,0,0.1,0,0.2,0s0.2,0,0.2,0v1c0,0-0.1,0-0.2,0s-0.2,0-0.3,0
		c-0.3,0-0.5,0.1-0.7,0.2c-0.2,0.1-0.4,0.3-0.5,0.4c-0.1,0.2-0.2,0.4-0.2,0.6v3.4L271.3,163.1L271.3,163.1z M277.3,163.2
		c-0.5,0-1-0.1-1.3-0.4c-0.4-0.2-0.7-0.6-0.9-1c-0.2-0.4-0.3-0.9-0.3-1.5s0.1-1.1,0.3-1.5c0.2-0.4,0.5-0.8,0.9-1s0.8-0.4,1.3-0.4
		s1,0.1,1.3,0.4c0.4,0.2,0.7,0.6,0.9,1c0.2,0.4,0.3,0.9,0.3,1.5s-0.1,1.1-0.3,1.5c-0.2,0.4-0.5,0.8-0.9,1
		C278.2,163.1,277.8,163.2,277.3,163.2z M277.3,162.3c0.3,0,0.6-0.1,0.8-0.3c0.2-0.2,0.4-0.4,0.5-0.7s0.2-0.6,0.2-1
		c0-0.3-0.1-0.7-0.2-1s-0.3-0.5-0.5-0.7s-0.5-0.3-0.8-0.3s-0.6,0.1-0.8,0.3c-0.2,0.2-0.4,0.4-0.5,0.7s-0.2,0.6-0.2,1s0.1,0.7,0.2,1
		s0.3,0.5,0.5,0.7S276.9,162.3,277.3,162.3z M281,157.6h1.1v5.8c0,0.4-0.1,0.7-0.2,0.9c-0.1,0.3-0.3,0.4-0.6,0.6
		c-0.3,0.1-0.6,0.2-1,0.2h-0.1h-0.1v-0.9h0.1h0.1c0.3,0,0.4-0.1,0.5-0.2c0.1-0.1,0.2-0.3,0.2-0.6V157.6z M281.5,156.8
		c-0.2,0-0.3-0.1-0.5-0.2c-0.1-0.1-0.2-0.3-0.2-0.4c0-0.2,0.1-0.3,0.2-0.5c0.1-0.1,0.3-0.2,0.5-0.2s0.3,0.1,0.5,0.2
		c0.1,0.1,0.2,0.3,0.2,0.5s-0.1,0.3-0.2,0.4S281.7,156.8,281.5,156.8z M285.9,163.2c-0.5,0-1-0.1-1.4-0.3s-0.7-0.6-0.9-1
		c-0.2-0.4-0.3-0.9-0.3-1.5s0.1-1.1,0.3-1.5c0.2-0.4,0.5-0.8,0.9-1s0.8-0.4,1.3-0.4c0.3,0,0.6,0.1,0.9,0.2c0.3,0.1,0.6,0.3,0.8,0.5
		c0.2,0.2,0.4,0.5,0.5,0.9c0.1,0.3,0.2,0.8,0.2,1.3v0.4h-4.4V160h3.3c0-0.3-0.1-0.5-0.2-0.7s-0.3-0.4-0.5-0.5s-0.4-0.2-0.7-0.2
		c-0.3,0-0.6,0.1-0.8,0.2c-0.2,0.1-0.4,0.3-0.5,0.6c-0.1,0.2-0.2,0.5-0.2,0.8v0.6c0,0.4,0.1,0.7,0.2,0.9c0.1,0.3,0.3,0.5,0.5,0.6
		s0.5,0.2,0.8,0.2c0.2,0,0.4,0,0.6-0.1s0.3-0.1,0.4-0.3c0.1-0.1,0.2-0.3,0.3-0.4l1,0.2c-0.1,0.3-0.2,0.6-0.4,0.8
		c-0.2,0.2-0.5,0.4-0.8,0.5C286.6,163.2,286.3,163.2,285.9,163.2z M291.7,163.2c-0.5,0-1-0.1-1.4-0.4c-0.4-0.2-0.7-0.6-0.9-1
		c-0.2-0.4-0.3-0.9-0.3-1.5s0.1-1,0.3-1.5c0.2-0.4,0.5-0.8,0.9-1s0.8-0.4,1.3-0.4c0.4,0,0.8,0.1,1.1,0.2c0.3,0.2,0.6,0.4,0.8,0.6
		c0.2,0.3,0.3,0.6,0.4,1h-1c-0.1-0.3-0.2-0.5-0.4-0.7c-0.2-0.2-0.5-0.3-0.8-0.3s-0.6,0.1-0.8,0.2c-0.2,0.2-0.4,0.4-0.5,0.7
		s-0.2,0.6-0.2,1s0.1,0.7,0.2,1s0.3,0.5,0.5,0.7s0.5,0.2,0.8,0.2c0.2,0,0.4,0,0.6-0.1s0.3-0.2,0.4-0.3s0.2-0.3,0.2-0.5h1
		c0,0.4-0.2,0.7-0.3,1c-0.2,0.3-0.5,0.5-0.8,0.7C292.6,163.1,292.2,163.2,291.7,163.2z M297.7,157.6v0.9h-3v-0.9H297.7z
		 M295.5,156.3h1.1v5.2c0,0.2,0,0.4,0.1,0.5s0.1,0.2,0.2,0.2s0.2,0.1,0.3,0.1c0.1,0,0.2,0,0.2,0c0.1,0,0.1,0,0.2,0l0.2,0.9
		c-0.1,0-0.2,0-0.3,0.1c-0.1,0-0.3,0-0.4,0c-0.3,0-0.5,0-0.8-0.1c-0.2-0.1-0.4-0.3-0.6-0.5s-0.2-0.5-0.2-0.8L295.5,156.3
		L295.5,156.3z"/>
	<path class="st5" d="M184.8,148.9h28.4c2.8,0,5,2.3,5,5v10.3c0,2.8-2.3,5-5,5h-28.4c-2.8,0-5-2.3-5-5v-10.3
		C179.8,151.2,182,148.9,184.8,148.9z"/>
	<path class="st6" d="M188.7,163.1l-2-7.3h1.2l1.4,5.7h0.1l1.5-5.7h1.2l1.5,5.7h0.1l1.4-5.7h1.2l-2,7.3H193l-1.5-5.5h-0.1l-1.5,5.5
		H188.7z M198.8,163.2c-0.5,0-1-0.1-1.3-0.4c-0.4-0.2-0.7-0.6-0.9-1s-0.3-0.9-0.3-1.5s0.1-1.1,0.3-1.5s0.5-0.8,0.9-1
		s0.8-0.4,1.3-0.4s1,0.1,1.3,0.4c0.4,0.2,0.7,0.6,0.9,1s0.3,0.9,0.3,1.5s-0.1,1.1-0.3,1.5s-0.5,0.8-0.9,1
		C199.8,163.1,199.3,163.2,198.8,163.2z M198.8,162.3c0.3,0,0.6-0.1,0.8-0.3s0.4-0.4,0.5-0.7s0.2-0.6,0.2-1c0-0.3-0.1-0.7-0.2-1
		c-0.1-0.3-0.3-0.5-0.5-0.7s-0.5-0.3-0.8-0.3s-0.6,0.1-0.8,0.3s-0.4,0.4-0.5,0.7s-0.2,0.6-0.2,1s0.1,0.7,0.2,1
		c0.1,0.3,0.3,0.5,0.5,0.7S198.5,162.3,198.8,162.3z M202.6,163.1v-5.5h1v0.9h0.1c0.1-0.3,0.3-0.5,0.5-0.7c0.3-0.2,0.5-0.3,0.9-0.3
		c0.1,0,0.1,0,0.2,0c0.1,0,0.2,0,0.2,0v1c0,0-0.1,0-0.2,0c-0.1,0-0.2,0-0.3,0c-0.3,0-0.5,0.1-0.7,0.2c-0.2,0.1-0.4,0.3-0.5,0.4
		c-0.1,0.2-0.2,0.4-0.2,0.6v3.4L202.6,163.1L202.6,163.1z M207.4,161.2v-1.3h0.2l2.2-2.3h1.3l-2.5,2.6h-0.2L207.4,161.2z
		 M206.4,163.1v-7.3h1.1v7.3H206.4z M209.9,163.1l-2-2.6l0.7-0.7l2.5,3.4L209.9,163.1L209.9,163.1z"/>
	<path class="st8" d="M351.9,137.5c-0.5,0-1-0.1-1.4-0.4c-0.4-0.3-0.7-0.7-0.9-1.3c-0.2-0.6-0.3-1.2-0.3-2s0.1-1.5,0.3-2
		c0.2-0.6,0.5-1,0.9-1.3s0.8-0.4,1.4-0.4s1,0.1,1.4,0.4c0.4,0.3,0.7,0.7,0.9,1.3c0.2,0.6,0.3,1.2,0.3,2s-0.1,1.5-0.3,2
		c-0.2,0.6-0.5,1-0.9,1.3C352.9,137.4,352.4,137.5,351.9,137.5z M351.9,136.7c0.5,0,0.9-0.3,1.2-0.8c0.3-0.5,0.4-1.2,0.4-2.2
		c0-0.6-0.1-1.2-0.2-1.6c-0.1-0.4-0.3-0.8-0.6-1c-0.3-0.2-0.6-0.4-0.9-0.4c-0.5,0-0.9,0.3-1.2,0.8c-0.3,0.5-0.4,1.3-0.4,2.2
		c0,0.6,0.1,1.2,0.2,1.6c0.1,0.4,0.3,0.8,0.6,1C351.2,136.6,351.6,136.7,351.9,136.7z M358.2,137.5c-0.5,0-1-0.1-1.4-0.4
		c-0.4-0.3-0.7-0.7-0.9-1.3c-0.2-0.6-0.3-1.2-0.3-2s0.1-1.5,0.3-2c0.2-0.6,0.5-1,0.9-1.3s0.8-0.4,1.4-0.4s1,0.1,1.4,0.4
		c0.4,0.3,0.7,0.7,0.9,1.3c0.2,0.6,0.3,1.2,0.3,2s-0.1,1.5-0.3,2c-0.2,0.6-0.5,1-0.9,1.3C359.2,137.4,358.7,137.5,358.2,137.5z
		 M358.2,136.7c0.5,0,0.9-0.3,1.2-0.8c0.3-0.5,0.4-1.2,0.4-2.2c0-0.6-0.1-1.2-0.2-1.6c-0.1-0.4-0.3-0.8-0.6-1
		c-0.3-0.2-0.6-0.4-0.9-0.4c-0.5,0-0.9,0.3-1.2,0.8c-0.3,0.5-0.4,1.3-0.4,2.2c0,0.6,0.1,1.2,0.2,1.6c0.1,0.4,0.3,0.8,0.6,1
		C357.5,136.6,357.8,136.7,358.2,136.7z M362.7,136.5c-0.2,0-0.3-0.1-0.5-0.2c-0.1-0.1-0.2-0.3-0.2-0.5s0.1-0.3,0.2-0.5
		c0.1-0.1,0.3-0.2,0.5-0.2s0.3,0.1,0.5,0.2c0.1,0.1,0.2,0.3,0.2,0.5c0,0.1,0,0.2-0.1,0.3s-0.1,0.2-0.2,0.2
		C363,136.5,362.9,136.5,362.7,136.5z M362.7,132.8c-0.2,0-0.3-0.1-0.5-0.2c-0.1-0.1-0.2-0.3-0.2-0.5s0.1-0.3,0.2-0.5
		c0.1-0.1,0.3-0.2,0.5-0.2s0.3,0.1,0.5,0.2c0.1,0.1,0.2,0.3,0.2,0.5c0,0.1,0,0.2-0.1,0.3s-0.1,0.2-0.2,0.2
		C363,132.8,362.9,132.8,362.7,132.8z M364.7,135.9v-0.7l3.2-5.1h0.5v1.1H368l-2.4,3.8v0.1h4.3v0.8L364.7,135.9L364.7,135.9z
		 M368.2,137.4v-1.7v-0.3v-5.3h0.8v7.3H368.2z M371.3,137.4v-0.6l2.4-2.6c0.3-0.3,0.5-0.6,0.7-0.8s0.3-0.4,0.4-0.7
		c0.1-0.2,0.1-0.4,0.1-0.6c0-0.3-0.1-0.5-0.2-0.7s-0.3-0.3-0.5-0.4c-0.2-0.1-0.5-0.2-0.7-0.2c-0.3,0-0.5,0.1-0.7,0.2
		c-0.2,0.1-0.4,0.3-0.5,0.5s-0.2,0.5-0.2,0.7h-0.8c0-0.4,0.1-0.8,0.3-1.1c0.2-0.3,0.5-0.6,0.8-0.8s0.7-0.3,1.2-0.3
		c0.4,0,0.8,0.1,1.1,0.3c0.3,0.2,0.6,0.4,0.8,0.7c0.2,0.3,0.3,0.6,0.3,1c0,0.3,0,0.5-0.1,0.8s-0.3,0.5-0.5,0.9
		c-0.2,0.3-0.6,0.7-1,1.1l-1.6,1.8v0.1h3.4v0.8L371.3,137.4L371.3,137.4z M378.1,136.5c-0.2,0-0.3-0.1-0.5-0.2
		c-0.1-0.1-0.2-0.3-0.2-0.5s0.1-0.3,0.2-0.5c0.1-0.1,0.3-0.2,0.5-0.2s0.3,0.1,0.5,0.2c0.1,0.1,0.2,0.3,0.2,0.5c0,0.1,0,0.2-0.1,0.3
		s-0.1,0.2-0.2,0.2C378.3,136.5,378.2,136.5,378.1,136.5z M378.1,132.8c-0.2,0-0.3-0.1-0.5-0.2c-0.1-0.1-0.2-0.3-0.2-0.5
		s0.1-0.3,0.2-0.5c0.1-0.1,0.3-0.2,0.5-0.2s0.3,0.1,0.5,0.2c0.1,0.1,0.2,0.3,0.2,0.5c0,0.1,0,0.2-0.1,0.3s-0.1,0.2-0.2,0.2
		C378.3,132.8,378.2,132.8,378.1,132.8z M380.2,137.4v-0.6l2.4-2.6c0.3-0.3,0.5-0.6,0.7-0.8s0.3-0.4,0.4-0.7
		c0.1-0.2,0.1-0.4,0.1-0.6c0-0.3-0.1-0.5-0.2-0.7s-0.3-0.3-0.5-0.4c-0.2-0.1-0.5-0.2-0.7-0.2c-0.3,0-0.5,0.1-0.7,0.2
		c-0.2,0.1-0.4,0.3-0.5,0.5s-0.2,0.5-0.2,0.7h-0.8c0-0.4,0.1-0.8,0.3-1.1c0.2-0.3,0.5-0.6,0.8-0.8s0.7-0.3,1.2-0.3
		c0.4,0,0.8,0.1,1.1,0.3c0.3,0.2,0.6,0.4,0.8,0.7c0.2,0.3,0.3,0.6,0.3,1c0,0.3,0,0.5-0.1,0.8s-0.3,0.5-0.5,0.9
		c-0.2,0.3-0.6,0.7-1,1.1l-1.6,1.8v0.1h3.4v0.8L380.2,137.4L380.2,137.4z M388.9,130.1v7.3H388V131l0,0l-1.8,1.2v-0.9l1.8-1.2H388.9
		z"/>
	<path d="M186,129.9h1.5v5.6c0,0.6-0.1,1.1-0.4,1.6c-0.3,0.5-0.7,0.8-1.2,1.1s-1.1,0.4-1.8,0.4s-1.3-0.1-1.8-0.4
		c-0.5-0.3-0.9-0.6-1.2-1.1s-0.4-1-0.4-1.6v-5.6h1.5v5.5c0,0.4,0.1,0.7,0.2,1c0.2,0.3,0.4,0.5,0.7,0.7s0.6,0.2,1,0.2s0.7-0.1,1-0.2
		c0.3-0.2,0.5-0.4,0.7-0.7s0.2-0.6,0.2-1V129.9z M190.8,129.9v8.5h-1.5v-8.5H190.8z M198.2,138.4h-2.9v-8.5h3c0.8,0,1.6,0.2,2.2,0.5
		c0.6,0.3,1.1,0.8,1.4,1.5c0.3,0.6,0.5,1.4,0.5,2.3c0,0.9-0.2,1.7-0.5,2.3s-0.8,1.1-1.4,1.5C199.9,138.3,199.1,138.4,198.2,138.4z
		 M196.9,137.1h1.3c0.6,0,1.1-0.1,1.5-0.3s0.7-0.5,0.9-1c0.2-0.4,0.3-1,0.3-1.6c0-0.7-0.1-1.2-0.3-1.6c-0.2-0.4-0.5-0.8-0.9-1
		s-0.9-0.3-1.5-0.3h-1.3V137.1z M206.6,138.5c-0.6,0-1.2-0.1-1.7-0.4c-0.5-0.3-0.8-0.7-1.1-1.1c-0.3-0.5-0.4-1.1-0.4-1.7
		c0-0.7,0.1-1.2,0.4-1.7c0.3-0.5,0.6-0.9,1.1-1.2s1-0.4,1.6-0.4c0.4,0,0.8,0.1,1.1,0.2c0.4,0.1,0.7,0.3,0.9,0.6
		c0.3,0.3,0.5,0.6,0.6,1c0.2,0.4,0.2,0.9,0.2,1.5v0.5H204v-1h3.8c0-0.3-0.1-0.5-0.2-0.8c-0.1-0.2-0.3-0.4-0.5-0.5s-0.5-0.2-0.8-0.2
		s-0.6,0.1-0.8,0.2c-0.2,0.1-0.4,0.3-0.5,0.6c-0.1,0.2-0.2,0.5-0.2,0.8v0.9c0,0.4,0.1,0.7,0.2,1c0.1,0.3,0.3,0.5,0.6,0.6
		c0.2,0.1,0.5,0.2,0.9,0.2c0.2,0,0.4,0,0.6-0.1c0.2-0.1,0.3-0.2,0.5-0.3c0.1-0.1,0.2-0.3,0.3-0.5l1.4,0.2c-0.1,0.4-0.3,0.7-0.5,1
		s-0.6,0.5-1,0.6C207.6,138.5,207.1,138.5,206.6,138.5z M215.8,133.7l-1.4,0.1c0-0.1-0.1-0.3-0.2-0.4c-0.1-0.1-0.2-0.2-0.4-0.3
		s-0.4-0.1-0.6-0.1c-0.3,0-0.6,0.1-0.8,0.2c-0.2,0.1-0.3,0.3-0.3,0.5s0.1,0.3,0.2,0.5c0.1,0.1,0.4,0.2,0.7,0.3l1.1,0.2
		c0.6,0.1,1.1,0.3,1.4,0.6c0.3,0.3,0.4,0.7,0.5,1.1c0,0.4-0.1,0.8-0.4,1.1c-0.2,0.3-0.6,0.5-1,0.7s-0.9,0.3-1.4,0.3
		c-0.8,0-1.4-0.2-1.9-0.5s-0.8-0.8-0.9-1.4l1.5-0.1c0.1,0.3,0.2,0.5,0.4,0.7c0.2,0.1,0.5,0.2,0.8,0.2c0.4,0,0.6-0.1,0.9-0.2
		c0.2-0.1,0.3-0.3,0.3-0.5s-0.1-0.3-0.2-0.5c-0.1-0.1-0.4-0.2-0.7-0.3l-1.1-0.2c-0.6-0.1-1.1-0.3-1.4-0.6c-0.3-0.3-0.4-0.7-0.4-1.2
		c0-0.4,0.1-0.7,0.3-1s0.5-0.5,0.9-0.7s0.8-0.2,1.4-0.2c0.8,0,1.3,0.2,1.8,0.5C215.4,132.7,215.7,133.2,215.8,133.7z M217.2,138.4
		V132h1.5v6.4H217.2z M218,131.1c-0.2,0-0.4-0.1-0.6-0.2c-0.2-0.2-0.3-0.4-0.3-0.6c0-0.2,0.1-0.4,0.3-0.6c0.2-0.2,0.4-0.2,0.6-0.2
		c0.2,0,0.4,0.1,0.6,0.2c0.2,0.2,0.3,0.4,0.3,0.6c0,0.2-0.1,0.4-0.3,0.6C218.4,131,218.2,131.1,218,131.1z M223.1,141
		c-0.5,0-1-0.1-1.4-0.2c-0.4-0.1-0.7-0.3-0.9-0.6c-0.2-0.2-0.4-0.5-0.5-0.8l1.4-0.3c0.1,0.1,0.2,0.2,0.3,0.4
		c0.1,0.1,0.3,0.2,0.5,0.3s0.5,0.1,0.8,0.1c0.4,0,0.8-0.1,1.1-0.3s0.4-0.5,0.4-1v-1.2h-0.1c-0.1,0.2-0.2,0.3-0.3,0.5
		s-0.3,0.3-0.6,0.4c-0.2,0.1-0.5,0.2-0.9,0.2c-0.5,0-0.9-0.1-1.3-0.3c-0.4-0.2-0.7-0.6-1-1c-0.2-0.5-0.4-1-0.4-1.7s0.1-1.3,0.4-1.8
		c0.2-0.5,0.6-0.9,1-1.1c0.4-0.3,0.8-0.4,1.3-0.4c0.4,0,0.7,0.1,0.9,0.2c0.2,0.1,0.4,0.3,0.6,0.5c0.1,0.2,0.3,0.3,0.3,0.5h0.1V132
		h1.5v6.5c0,0.5-0.1,1-0.4,1.4c-0.3,0.4-0.6,0.6-1.1,0.8C224.1,140.9,223.6,141,223.1,141z M223.1,137.1c0.3,0,0.6-0.1,0.8-0.2
		c0.2-0.2,0.4-0.4,0.5-0.7s0.2-0.6,0.2-1.1c0-0.4-0.1-0.8-0.2-1.1c-0.1-0.3-0.3-0.5-0.5-0.7s-0.5-0.3-0.8-0.3s-0.6,0.1-0.8,0.3
		s-0.4,0.4-0.5,0.7s-0.2,0.6-0.2,1s0.1,0.7,0.2,1c0.1,0.3,0.3,0.5,0.5,0.7C222.5,137.1,222.7,137.1,223.1,137.1z M229.1,134.7v3.8
		h-1.5V132h1.4v1.1h0.1c0.1-0.4,0.4-0.6,0.7-0.9c0.3-0.2,0.7-0.3,1.2-0.3c0.4,0,0.8,0.1,1.2,0.3c0.3,0.2,0.6,0.5,0.8,0.8
		c0.2,0.4,0.3,0.8,0.3,1.3v4.1h-1.5v-3.8c0-0.4-0.1-0.8-0.3-1s-0.5-0.4-0.9-0.4c-0.3,0-0.5,0.1-0.7,0.2c-0.2,0.1-0.4,0.3-0.5,0.5
		C229.2,134.1,229.1,134.4,229.1,134.7z"/>
	<circle class="st14" cx="147.9" cy="143.9" r="18.5"/>
	<g>
		<g>
			<defs>
				<rect id="SVGID_5_" x="137.8" y="133.8" width="20.1" height="20.1"/>
			</defs>
			<clipPath id="SVGID_6_">
				<use xlink:href="#SVGID_5_"  style="overflow:visible;"/>
			</clipPath>
			<g class="st15">
				<path class="st16" d="M155.4,136.3h-15.1c-0.7,0-1.3,0.6-1.3,1.3v10.1c0,0.7,0.6,1.3,1.3,1.3h15.1c0.7,0,1.3-0.6,1.3-1.3v-10.1
					C156.7,136.9,156.1,136.3,155.4,136.3z"/>
				<path class="st17" d="M149.8,151.4l-0.3-2.5h-3.1l-0.3,2.5H149.8z"/>
				<path class="st18" d="M152.3,151.4h-8.8"/>
				<path class="st2" d="M139.1,145.8v1.9c0,0.3,0.1,0.7,0.4,0.9c0.2,0.2,0.6,0.4,0.9,0.4h15.1c0.3,0,0.7-0.1,0.9-0.4
					c0.2-0.2,0.4-0.6,0.4-0.9v-1.9H139.1z M147.9,148.3c-0.1,0-0.2,0-0.3-0.1s-0.2-0.2-0.2-0.3s-0.1-0.2,0-0.4
					c0-0.1,0.1-0.2,0.2-0.3c0.1-0.1,0.2-0.1,0.3-0.2c0.1,0,0.2,0,0.4,0c0.1,0,0.2,0.1,0.3,0.2c0.1,0.1,0.1,0.2,0.1,0.3
					c0,0.2-0.1,0.3-0.2,0.4C148.2,148.2,148,148.3,147.9,148.3z"/>
			</g>
		</g>
	</g>
	<path class="st3" d="M126.1,363h267.6c5.6,0,10.1,4.5,10.1,10.1V426c0,5.6-4.5,10.1-10.1,10.1H126.1c-5.6,0-10.1-4.5-10.1-10.1
		v-52.9C116,367.5,120.5,363,126.1,363z"/>
	<path class="st4" d="M375.4,419.7c-0.2,0-0.5-0.1-0.7-0.2c-0.5-0.3-0.8-0.8-0.8-1.4v-11.4c0-0.6,0.3-1.1,0.8-1.4
		c0.2-0.1,0.5-0.2,0.7-0.2s0.5,0.1,0.7,0.2l9.7,5.8c0.2,0.1,0.4,0.3,0.5,0.5s0.2,0.4,0.2,0.7s-0.1,0.5-0.2,0.7s-0.3,0.4-0.5,0.5
		l-9.7,5.8C375.9,419.7,375.7,419.7,375.4,419.7L375.4,419.7z"/>
	<path class="st19" d="M246,402.4h43.4c2.8,0,5,2.3,5,5v10.3c0,2.8-2.3,5-5,5H246c-2.8,0-5-2.3-5-5v-10.3
		C241,404.7,243.3,402.4,246,402.4z"/>
	<path class="st20" d="M248.5,416.6v-7.3h2.6c0.6,0,1,0.1,1.4,0.3c0.4,0.2,0.7,0.5,0.8,0.8c0.2,0.3,0.3,0.7,0.3,1.2
		c0,0.4-0.1,0.8-0.3,1.2c-0.2,0.3-0.5,0.6-0.8,0.8c-0.4,0.2-0.8,0.3-1.4,0.3h-2v-1h1.9c0.4,0,0.6-0.1,0.9-0.2
		c0.2-0.1,0.4-0.3,0.5-0.4c0.1-0.2,0.2-0.4,0.2-0.7c0-0.3-0.1-0.5-0.2-0.7c-0.1-0.2-0.3-0.4-0.5-0.5s-0.5-0.2-0.9-0.2h-1.4v6.4
		L248.5,416.6L248.5,416.6z M252.1,413.3l1.8,3.3h-1.3l-1.8-3.3H252.1z M257.2,416.7c-0.5,0-1-0.1-1.4-0.3c-0.4-0.2-0.7-0.6-0.9-1
		s-0.3-0.9-0.3-1.5s0.1-1.1,0.3-1.5s0.5-0.8,0.9-1s0.8-0.4,1.3-0.4c0.3,0,0.6,0.1,0.9,0.2s0.6,0.3,0.8,0.5c0.2,0.2,0.4,0.5,0.5,0.9
		c0.1,0.3,0.2,0.8,0.2,1.3v0.4h-4.4v-0.8h3.3c0-0.3-0.1-0.5-0.2-0.7s-0.3-0.4-0.5-0.5s-0.4-0.2-0.7-0.2c-0.3,0-0.6,0.1-0.8,0.2
		c-0.2,0.1-0.4,0.3-0.5,0.6c-0.1,0.2-0.2,0.5-0.2,0.8v0.6c0,0.4,0.1,0.7,0.2,0.9c0.1,0.3,0.3,0.5,0.5,0.6c0.2,0.1,0.5,0.2,0.8,0.2
		c0.2,0,0.4,0,0.6-0.1s0.3-0.1,0.4-0.3c0.1-0.1,0.2-0.3,0.3-0.4l1,0.2c-0.1,0.3-0.2,0.6-0.4,0.8c-0.2,0.2-0.5,0.4-0.8,0.5
		C258,416.7,257.6,416.7,257.2,416.7z M262.4,416.7c-0.3,0-0.7-0.1-0.9-0.2c-0.3-0.1-0.5-0.3-0.7-0.6c-0.2-0.2-0.2-0.6-0.2-0.9
		s0.1-0.6,0.2-0.8c0.1-0.2,0.3-0.4,0.5-0.5s0.4-0.2,0.7-0.3c0.2-0.1,0.5-0.1,0.8-0.1s0.6-0.1,0.8-0.1c0.2,0,0.4-0.1,0.4-0.1
		c0.1-0.1,0.1-0.2,0.1-0.3l0,0c0-0.3-0.1-0.6-0.3-0.7c-0.2-0.2-0.4-0.3-0.8-0.3s-0.6,0.1-0.9,0.2c-0.2,0.2-0.3,0.3-0.4,0.5l-1-0.2
		c0.1-0.3,0.3-0.6,0.5-0.8c0.2-0.2,0.5-0.4,0.8-0.5s0.6-0.1,0.9-0.1c0.2,0,0.5,0,0.7,0.1c0.2,0,0.5,0.1,0.7,0.3
		c0.2,0.1,0.4,0.3,0.5,0.6c0.1,0.2,0.2,0.6,0.2,1v3.6h-1v-0.8l0,0c-0.1,0.1-0.2,0.3-0.3,0.4c-0.1,0.1-0.3,0.2-0.5,0.3
		C262.9,416.7,262.7,416.7,262.4,416.7z M262.6,415.9c0.3,0,0.5-0.1,0.8-0.2c0.2-0.1,0.4-0.3,0.5-0.5s0.2-0.4,0.2-0.6v-0.7
		c0,0-0.1,0.1-0.2,0.1s-0.2,0.1-0.4,0.1c-0.1,0-0.3,0-0.4,0.1c-0.1,0-0.2,0-0.3,0c-0.2,0-0.4,0.1-0.6,0.1c-0.2,0.1-0.3,0.2-0.4,0.3
		c-0.1,0.1-0.1,0.3-0.1,0.5c0,0.3,0.1,0.5,0.3,0.6C262,415.8,262.3,415.9,262.6,415.9z M268.5,416.7c-0.4,0-0.8-0.1-1.2-0.3
		c-0.3-0.2-0.6-0.6-0.8-1c-0.2-0.4-0.3-0.9-0.3-1.5s0.1-1.1,0.3-1.5c0.2-0.4,0.5-0.7,0.8-1c0.3-0.2,0.7-0.3,1.2-0.3
		c0.3,0,0.6,0.1,0.8,0.2c0.2,0.1,0.4,0.2,0.5,0.4c0.1,0.1,0.2,0.3,0.3,0.4h0.1v-2.7h1.1v7.3h-1v-0.9h-0.1c-0.1,0.1-0.2,0.2-0.3,0.4
		c-0.1,0.1-0.3,0.3-0.5,0.4C269.2,416.7,268.9,416.7,268.5,416.7z M268.8,415.8c0.3,0,0.6-0.1,0.8-0.2c0.2-0.2,0.4-0.4,0.5-0.7
		c0.1-0.3,0.2-0.6,0.2-1s-0.1-0.7-0.2-1s-0.3-0.5-0.5-0.7s-0.5-0.2-0.8-0.2s-0.6,0.1-0.8,0.2c-0.2,0.2-0.4,0.4-0.5,0.7
		c-0.1,0.3-0.2,0.6-0.2,1s0.1,0.7,0.2,1s0.3,0.5,0.5,0.7C268.2,415.7,268.5,415.8,268.8,415.8z M272.8,416.6v-5.5h1.1v5.5H272.8z
		 M273.3,410.3c-0.2,0-0.3-0.1-0.5-0.2c-0.1-0.1-0.2-0.3-0.2-0.5s0.1-0.3,0.2-0.4s0.3-0.2,0.5-0.2s0.3,0.1,0.5,0.2
		c0.1,0.1,0.2,0.3,0.2,0.4c0,0.2-0.1,0.3-0.2,0.5C273.7,410.2,273.5,410.3,273.3,410.3z M276.4,413.4v3.3h-1.1v-5.5h1v0.9h0.1
		c0.1-0.3,0.3-0.5,0.6-0.7c0.3-0.2,0.6-0.3,1-0.3s0.7,0.1,1,0.2c0.3,0.2,0.5,0.4,0.7,0.7s0.2,0.7,0.2,1.1v3.5h-1.1v-3.4
		c0-0.4-0.1-0.7-0.3-0.9c-0.2-0.2-0.5-0.3-0.9-0.3c-0.2,0-0.5,0.1-0.7,0.2s-0.3,0.3-0.5,0.5C276.4,412.8,276.4,413.1,276.4,413.4z
		 M283.6,418.8c-0.4,0-0.8-0.1-1.1-0.2c-0.3-0.1-0.6-0.3-0.8-0.5s-0.3-0.4-0.4-0.6l0.9-0.4c0.1,0.1,0.1,0.2,0.3,0.3
		c0.1,0.1,0.3,0.2,0.4,0.3c0.2,0.1,0.4,0.1,0.7,0.1c0.4,0,0.7-0.1,1-0.3c0.3-0.2,0.4-0.5,0.4-0.9v-1.1l0,0c-0.1,0.1-0.2,0.2-0.3,0.4
		c-0.1,0.1-0.3,0.3-0.5,0.4s-0.5,0.2-0.8,0.2c-0.4,0-0.8-0.1-1.2-0.3c-0.3-0.2-0.6-0.5-0.8-0.9c-0.2-0.4-0.3-0.9-0.3-1.5
		s0.1-1.1,0.3-1.5c0.2-0.4,0.5-0.7,0.8-1c0.3-0.2,0.7-0.3,1.2-0.3c0.3,0,0.6,0.1,0.8,0.2c0.2,0.1,0.4,0.2,0.5,0.4
		c0.1,0.1,0.2,0.3,0.3,0.4h0.1v-0.9h1v5.6c0,0.5-0.1,0.9-0.3,1.2c-0.2,0.3-0.5,0.5-0.9,0.7C284.5,418.7,284.1,418.8,283.6,418.8z
		 M283.6,415.7c0.3,0,0.6-0.1,0.8-0.2c0.2-0.1,0.4-0.4,0.5-0.6c0.1-0.3,0.2-0.6,0.2-1s-0.1-0.7-0.2-1s-0.3-0.5-0.5-0.7
		s-0.5-0.2-0.8-0.2s-0.6,0.1-0.8,0.2c-0.2,0.2-0.4,0.4-0.5,0.7c-0.1,0.3-0.2,0.6-0.2,1s0.1,0.7,0.2,0.9c0.1,0.3,0.3,0.5,0.5,0.6
		C283,415.6,283.3,415.7,283.6,415.7z"/>
	<path class="st7" d="M184.8,402.4h45.4c2.8,0,5,2.3,5,5v10.3c0,2.8-2.3,5-5,5h-45.4c-2.8,0-5-2.3-5-5v-10.3
		C179.8,404.7,182,402.4,184.8,402.4z"/>
	<path class="st4" d="M187.3,416.6v-7.3h2.6c0.6,0,1,0.1,1.4,0.3c0.4,0.2,0.7,0.5,0.8,0.8c0.2,0.4,0.3,0.8,0.3,1.2
		c0,0.4-0.1,0.9-0.3,1.2c-0.2,0.4-0.5,0.6-0.8,0.9c-0.4,0.2-0.8,0.3-1.4,0.3h-1.8v-0.9h1.7c0.4,0,0.7-0.1,0.9-0.2s0.4-0.3,0.5-0.5
		s0.2-0.5,0.2-0.7c0-0.3-0.1-0.5-0.2-0.7c-0.1-0.2-0.3-0.4-0.5-0.5s-0.5-0.2-0.9-0.2h-1.4v6.4L187.3,416.6L187.3,416.6z
		 M195.9,416.7c-0.5,0-1-0.1-1.4-0.3c-0.4-0.2-0.7-0.6-0.9-1s-0.3-0.9-0.3-1.5s0.1-1.1,0.3-1.5s0.5-0.8,0.9-1s0.8-0.4,1.3-0.4
		c0.3,0,0.6,0.1,0.9,0.2c0.3,0.1,0.6,0.3,0.8,0.5s0.4,0.5,0.5,0.9c0.1,0.3,0.2,0.8,0.2,1.3v0.4h-4.4v-0.8h3.3c0-0.3-0.1-0.5-0.2-0.7
		c-0.1-0.2-0.3-0.4-0.5-0.5s-0.4-0.2-0.7-0.2s-0.6,0.1-0.8,0.2s-0.4,0.3-0.5,0.6c-0.1,0.2-0.2,0.5-0.2,0.8v0.6
		c0,0.4,0.1,0.7,0.2,0.9c0.1,0.3,0.3,0.5,0.5,0.6s0.5,0.2,0.8,0.2c0.2,0,0.4,0,0.6-0.1c0.2-0.1,0.3-0.1,0.4-0.3
		c0.1-0.1,0.2-0.3,0.3-0.4l1,0.2c-0.1,0.3-0.2,0.6-0.4,0.8c-0.2,0.2-0.5,0.4-0.8,0.5C196.7,416.7,196.3,416.7,195.9,416.7z
		 M199.5,416.6v-5.5h1v0.9h0.1c0.1-0.3,0.3-0.5,0.5-0.7c0.3-0.2,0.5-0.3,0.9-0.3c0.1,0,0.1,0,0.2,0c0.1,0,0.2,0,0.2,0v1
		c0,0-0.1,0-0.2,0c-0.1,0-0.2,0-0.3,0c-0.3,0-0.5,0.1-0.7,0.2s-0.4,0.3-0.5,0.4c-0.1,0.2-0.2,0.4-0.2,0.6v3.4H199.5z M207.4,412.5
		l-1,0.2c0-0.1-0.1-0.2-0.2-0.4c-0.1-0.1-0.2-0.2-0.3-0.3c-0.1-0.1-0.3-0.1-0.6-0.1s-0.6,0.1-0.8,0.2s-0.3,0.3-0.3,0.5
		s0.1,0.3,0.2,0.4c0.1,0.1,0.4,0.2,0.7,0.3l0.9,0.2c0.5,0.1,0.9,0.3,1.1,0.5c0.2,0.2,0.4,0.6,0.4,0.9s-0.1,0.6-0.3,0.9
		s-0.5,0.5-0.8,0.6s-0.7,0.2-1.2,0.2c-0.6,0-1.1-0.1-1.5-0.4s-0.6-0.6-0.7-1.1l1-0.2c0.1,0.3,0.2,0.5,0.4,0.6s0.5,0.2,0.8,0.2
		c0.4,0,0.6-0.1,0.8-0.2s0.3-0.3,0.3-0.5s-0.1-0.3-0.2-0.4c-0.1-0.1-0.3-0.2-0.6-0.3l-0.9-0.2c-0.5-0.1-0.9-0.3-1.1-0.6
		c-0.2-0.3-0.4-0.6-0.4-1c0-0.3,0.1-0.6,0.3-0.9c0.2-0.2,0.4-0.4,0.8-0.6c0.3-0.1,0.7-0.2,1.1-0.2c0.6,0,1.1,0.1,1.4,0.4
		C207.1,411.7,207.3,412,207.4,412.5z M211,416.7c-0.5,0-1-0.1-1.3-0.4c-0.4-0.2-0.7-0.6-0.9-1s-0.3-0.9-0.3-1.5s0.1-1.1,0.3-1.5
		s0.5-0.8,0.9-1s0.8-0.4,1.3-0.4s1,0.1,1.3,0.4c0.4,0.2,0.7,0.6,0.9,1s0.3,0.9,0.3,1.5s-0.1,1.1-0.3,1.5s-0.5,0.8-0.9,1
		C212,416.6,211.6,416.7,211,416.7z M211,415.8c0.3,0,0.6-0.1,0.8-0.3c0.2-0.2,0.4-0.4,0.5-0.7c0.1-0.3,0.2-0.6,0.2-1
		s-0.1-0.7-0.2-1c-0.1-0.3-0.3-0.5-0.5-0.7s-0.5-0.3-0.8-0.3s-0.6,0.1-0.8,0.3c-0.2,0.2-0.4,0.4-0.5,0.7c-0.1,0.3-0.2,0.6-0.2,1
		s0.1,0.7,0.2,1c0.1,0.3,0.3,0.5,0.5,0.7S210.7,415.8,211,415.8z M215.9,413.4v3.3h-1.1v-5.5h1v0.9h0.1c0.1-0.3,0.3-0.5,0.6-0.7
		s0.6-0.3,1-0.3s0.7,0.1,1,0.2c0.3,0.2,0.5,0.4,0.7,0.7s0.2,0.7,0.2,1.1v3.5h-1.1v-3.4c0-0.4-0.1-0.7-0.3-0.9
		c-0.2-0.2-0.5-0.3-0.9-0.3c-0.2,0-0.5,0.1-0.7,0.2s-0.3,0.3-0.5,0.5C215.9,412.8,215.9,413.1,215.9,413.4z M222.4,416.7
		c-0.3,0-0.7-0.1-0.9-0.2c-0.3-0.1-0.5-0.3-0.7-0.6c-0.2-0.2-0.2-0.6-0.2-0.9s0.1-0.6,0.2-0.8c0.1-0.2,0.3-0.4,0.5-0.5
		s0.4-0.2,0.7-0.3c0.2-0.1,0.5-0.1,0.8-0.1s0.6-0.1,0.8-0.1s0.4-0.1,0.4-0.1c0.1-0.1,0.1-0.2,0.1-0.3l0,0c0-0.3-0.1-0.6-0.3-0.7
		c-0.2-0.2-0.4-0.3-0.8-0.3c-0.4,0-0.6,0.1-0.9,0.2c-0.2,0.2-0.3,0.3-0.4,0.5l-1-0.2c0.1-0.3,0.3-0.6,0.5-0.8
		c0.2-0.2,0.5-0.4,0.8-0.5s0.6-0.1,0.9-0.1c0.2,0,0.5,0,0.7,0.1c0.2,0,0.5,0.1,0.7,0.3c0.2,0.1,0.4,0.3,0.5,0.6
		c0.1,0.2,0.2,0.6,0.2,1v3.6h-1v-0.8l0,0c-0.1,0.1-0.2,0.3-0.3,0.4s-0.3,0.2-0.5,0.3C223,416.7,222.7,416.7,222.4,416.7z
		 M222.6,415.9c0.3,0,0.5-0.1,0.8-0.2c0.2-0.1,0.4-0.3,0.5-0.5s0.2-0.4,0.2-0.6v-0.7c0,0-0.1,0.1-0.2,0.1c-0.1,0-0.2,0.1-0.4,0.1
		c-0.1,0-0.3,0-0.4,0.1c-0.1,0-0.2,0-0.3,0c-0.2,0-0.4,0.1-0.6,0.1c-0.2,0.1-0.3,0.2-0.4,0.3c-0.1,0.1-0.2,0.3-0.2,0.5
		c0,0.3,0.1,0.5,0.3,0.6C222.1,415.8,222.3,415.9,222.6,415.9z M227.6,409.3v7.3h-1.1v-7.3H227.6z"/>
	<path class="st8" d="M351.9,391c-0.5,0-1-0.1-1.4-0.4s-0.7-0.7-0.9-1.3c-0.2-0.6-0.3-1.2-0.3-2s0.1-1.5,0.3-2
		c0.2-0.6,0.5-1,0.9-1.3s0.8-0.4,1.4-0.4c0.5,0,1,0.1,1.4,0.4s0.7,0.7,0.9,1.3c0.2,0.6,0.3,1.2,0.3,2s-0.1,1.5-0.3,2
		c-0.2,0.6-0.5,1-0.9,1.3S352.4,391,351.9,391z M351.9,390.3c0.5,0,0.9-0.3,1.2-0.8c0.3-0.5,0.4-1.2,0.4-2.2c0-0.6-0.1-1.2-0.2-1.6
		s-0.3-0.8-0.6-1c-0.2-0.2-0.6-0.4-0.9-0.4c-0.5,0-0.9,0.3-1.2,0.8c-0.3,0.5-0.4,1.3-0.4,2.2c0,0.6,0.1,1.2,0.2,1.6s0.3,0.8,0.6,1
		C351.2,390.1,351.5,390.3,351.9,390.3z M358.2,391c-0.5,0-1-0.1-1.4-0.4s-0.7-0.7-0.9-1.3c-0.2-0.6-0.3-1.2-0.3-2s0.1-1.5,0.3-2
		c0.2-0.6,0.5-1,0.9-1.3s0.8-0.4,1.4-0.4c0.5,0,1,0.1,1.4,0.4s0.7,0.7,0.9,1.3c0.2,0.6,0.3,1.2,0.3,2s-0.1,1.5-0.3,2
		c-0.2,0.6-0.5,1-0.9,1.3S358.7,391,358.2,391z M358.2,390.3c0.5,0,0.9-0.3,1.2-0.8c0.3-0.5,0.4-1.2,0.4-2.2c0-0.6-0.1-1.2-0.2-1.6
		s-0.3-0.8-0.6-1c-0.2-0.2-0.6-0.4-0.9-0.4c-0.5,0-0.9,0.3-1.2,0.8c-0.3,0.5-0.4,1.3-0.4,2.2c0,0.6,0.1,1.2,0.2,1.6s0.3,0.8,0.6,1
		C357.5,390.1,357.8,390.3,358.2,390.3z M362.7,390c-0.2,0-0.3-0.1-0.5-0.2c-0.1-0.1-0.2-0.3-0.2-0.5s0.1-0.3,0.2-0.5
		c0.1-0.1,0.3-0.2,0.5-0.2s0.3,0.1,0.5,0.2c0.1,0.1,0.2,0.3,0.2,0.5c0,0.1,0,0.2-0.1,0.3c-0.1,0.1-0.1,0.2-0.2,0.2
		C362.9,390,362.8,390,362.7,390z M362.7,386.3c-0.2,0-0.3-0.1-0.5-0.2c-0.1-0.1-0.2-0.3-0.2-0.5s0.1-0.3,0.2-0.5
		c0.1-0.1,0.3-0.2,0.5-0.2s0.3,0.1,0.5,0.2c0.1,0.1,0.2,0.3,0.2,0.5c0,0.1,0,0.2-0.1,0.3c-0.1,0.1-0.1,0.2-0.2,0.2
		C362.9,386.3,362.8,386.3,362.7,386.3z M364.9,390.9v-0.6l2.4-2.6c0.3-0.3,0.5-0.6,0.7-0.8c0.2-0.2,0.3-0.4,0.4-0.7
		c0.1-0.2,0.1-0.4,0.1-0.6c0-0.3-0.1-0.5-0.2-0.7s-0.3-0.3-0.5-0.4s-0.5-0.2-0.7-0.2c-0.3,0-0.5,0.1-0.7,0.2s-0.4,0.3-0.5,0.5
		s-0.2,0.5-0.2,0.7h-0.8c0-0.4,0.1-0.8,0.3-1.1c0.2-0.3,0.5-0.6,0.8-0.8c0.3-0.2,0.7-0.3,1.2-0.3c0.4,0,0.8,0.1,1.1,0.3
		c0.3,0.2,0.6,0.4,0.8,0.7c0.2,0.3,0.3,0.6,0.3,1c0,0.3,0,0.5-0.1,0.8s-0.3,0.5-0.5,0.9c-0.2,0.3-0.6,0.7-1,1.1l-1.6,1.8v0.1h3.4
		v0.8L364.9,390.9L364.9,390.9z M373.5,383.6v7.3h-0.9v-6.4l0,0l-1.8,1.2v-0.9l1.8-1.2H373.5z M376.3,390c-0.2,0-0.3-0.1-0.5-0.2
		c-0.1-0.1-0.2-0.3-0.2-0.5s0.1-0.3,0.2-0.5c0.1-0.1,0.3-0.2,0.5-0.2s0.3,0.1,0.5,0.2c0.1,0.1,0.2,0.3,0.2,0.5c0,0.1,0,0.2-0.1,0.3
		c-0.1,0.1-0.1,0.2-0.2,0.2C376.5,390,376.4,390,376.3,390z M376.3,386.3c-0.2,0-0.3-0.1-0.5-0.2c-0.1-0.1-0.2-0.3-0.2-0.5
		s0.1-0.3,0.2-0.5c0.1-0.1,0.3-0.2,0.5-0.2s0.3,0.1,0.5,0.2c0.1,0.1,0.2,0.3,0.2,0.5c0,0.1,0,0.2-0.1,0.3c-0.1,0.1-0.1,0.2-0.2,0.2
		C376.5,386.3,376.4,386.3,376.3,386.3z M380.8,391c-0.5,0-1-0.1-1.4-0.4s-0.7-0.7-0.9-1.3c-0.2-0.6-0.3-1.2-0.3-2s0.1-1.5,0.3-2
		c0.2-0.6,0.5-1,0.9-1.3s0.8-0.4,1.4-0.4s1,0.1,1.4,0.4s0.7,0.7,0.9,1.3c0.2,0.6,0.3,1.2,0.3,2s-0.1,1.5-0.3,2
		c-0.2,0.6-0.5,1-0.9,1.3S381.3,391,380.8,391z M380.8,390.3c0.5,0,0.9-0.3,1.2-0.8c0.3-0.5,0.4-1.2,0.4-2.2c0-0.6-0.1-1.2-0.2-1.6
		s-0.3-0.8-0.6-1c-0.3-0.2-0.6-0.4-0.9-0.4c-0.5,0-0.9,0.3-1.2,0.8c-0.3,0.5-0.4,1.3-0.4,2.2c0,0.6,0.1,1.2,0.2,1.6s0.3,0.8,0.6,1
		C380.1,390.1,380.4,390.3,380.8,390.3z M387,383.5c0.3,0,0.6,0.1,0.9,0.2s0.6,0.3,0.8,0.6c0.2,0.3,0.4,0.6,0.6,1.1
		c0.1,0.4,0.2,1,0.2,1.7c0,0.6-0.1,1.2-0.2,1.7s-0.3,0.9-0.5,1.3c-0.2,0.3-0.5,0.6-0.8,0.8c-0.3,0.2-0.7,0.3-1.1,0.3
		s-0.8-0.1-1.1-0.2c-0.3-0.2-0.6-0.4-0.8-0.7c-0.2-0.3-0.3-0.6-0.4-1h0.9c0.1,0.3,0.2,0.6,0.5,0.8c0.2,0.2,0.5,0.3,0.9,0.3
		c0.6,0,1-0.2,1.3-0.7s0.5-1.2,0.5-2.1h-0.1c-0.1,0.2-0.3,0.4-0.5,0.5s-0.4,0.3-0.6,0.3c-0.2,0.1-0.5,0.1-0.7,0.1
		c-0.4,0-0.8-0.1-1.2-0.3c-0.3-0.2-0.6-0.5-0.8-0.9c-0.2-0.4-0.3-0.8-0.3-1.3c0-0.4,0.1-0.9,0.3-1.2c0.2-0.4,0.5-0.7,0.9-0.9
		C386.1,383.6,386.5,383.5,387,383.5z M387,384.3c-0.3,0-0.6,0.1-0.8,0.2c-0.2,0.1-0.4,0.3-0.6,0.6c-0.1,0.3-0.2,0.5-0.2,0.8
		s0.1,0.6,0.2,0.8c0.1,0.2,0.3,0.4,0.6,0.6c0.2,0.1,0.5,0.2,0.8,0.2c0.2,0,0.4,0,0.6-0.1s0.4-0.2,0.5-0.4c0.1-0.2,0.3-0.3,0.3-0.5
		c0.1-0.2,0.1-0.4,0.1-0.6c0-0.3-0.1-0.6-0.2-0.8c-0.1-0.3-0.3-0.5-0.6-0.6C387.6,384.4,387.3,384.3,387,384.3z"/>
	<path d="M180.6,391.9v-8.5h3.2c0.7,0,1.2,0.1,1.7,0.3c0.4,0.2,0.8,0.5,1,1c0.2,0.4,0.3,0.9,0.3,1.4s-0.1,1-0.4,1.4
		c-0.2,0.4-0.6,0.7-1,0.9c-0.4,0.2-1,0.3-1.7,0.3h-2.3v-1.3h2.1c0.4,0,0.7-0.1,0.9-0.2s0.4-0.3,0.5-0.5s0.2-0.5,0.2-0.8
		s-0.1-0.6-0.2-0.8c-0.1-0.2-0.3-0.4-0.5-0.5s-0.6-0.2-0.9-0.2h-1.4v7.2h-1.5V391.9z M185,388.1l2.1,3.9h-1.7l-2.1-3.9H185z
		 M190.9,392.1c-0.6,0-1.2-0.1-1.7-0.4s-0.8-0.6-1.1-1.1c-0.2-0.5-0.4-1.1-0.4-1.7c0-0.7,0.1-1.2,0.4-1.7c0.3-0.5,0.6-0.9,1.1-1.2
		c0.5-0.3,1-0.4,1.6-0.4c0.4,0,0.8,0.1,1.1,0.2c0.4,0.1,0.7,0.3,0.9,0.6c0.3,0.3,0.5,0.6,0.6,1c0.2,0.4,0.2,0.9,0.2,1.5v0.5h-5.3v-1
		h3.8c0-0.3-0.1-0.5-0.2-0.8c-0.1-0.2-0.3-0.4-0.5-0.5s-0.5-0.2-0.8-0.2s-0.6,0.1-0.8,0.2s-0.4,0.3-0.5,0.6
		c-0.1,0.2-0.2,0.5-0.2,0.8v0.9c0,0.4,0.1,0.7,0.2,1c0.1,0.3,0.3,0.5,0.6,0.6c0.2,0.1,0.5,0.2,0.9,0.2c0.2,0,0.4,0,0.6-0.1
		c0.2-0.1,0.3-0.2,0.5-0.3c0.1-0.1,0.2-0.3,0.3-0.5l1.4,0.2c-0.1,0.4-0.3,0.7-0.5,1s-0.6,0.5-1,0.6
		C191.9,392,191.4,392.1,190.9,392.1z M196.9,392.1c-0.4,0-0.8-0.1-1.1-0.2s-0.6-0.4-0.8-0.7c-0.2-0.3-0.3-0.6-0.3-1.1
		c0-0.4,0.1-0.7,0.2-0.9c0.1-0.2,0.3-0.4,0.5-0.6c0.2-0.1,0.5-0.2,0.8-0.3c0.3-0.1,0.6-0.1,0.9-0.2c0.4,0,0.7-0.1,0.9-0.1
		s0.4-0.1,0.5-0.1c0.1-0.1,0.2-0.2,0.2-0.3l0,0c0-0.3-0.1-0.6-0.3-0.7c-0.2-0.2-0.5-0.3-0.8-0.3c-0.4,0-0.7,0.1-0.9,0.2
		c-0.2,0.2-0.4,0.4-0.4,0.6l-1.4-0.2c0.1-0.4,0.3-0.7,0.6-1s0.6-0.5,0.9-0.6c0.4-0.1,0.8-0.2,1.2-0.2c0.3,0,0.6,0,0.9,0.1
		c0.3,0.1,0.6,0.2,0.8,0.4c0.3,0.2,0.5,0.4,0.6,0.7c0.2,0.3,0.2,0.6,0.2,1.1v4.3h-1.5v-0.9l0,0c-0.1,0.2-0.2,0.3-0.4,0.5
		s-0.4,0.3-0.6,0.4C197.5,392,197.2,392.1,196.9,392.1z M197.3,391c0.3,0,0.6-0.1,0.8-0.2s0.4-0.3,0.5-0.5s0.2-0.4,0.2-0.7v-0.8
		c0,0-0.1,0.1-0.2,0.1c-0.1,0-0.2,0.1-0.4,0.1c-0.1,0-0.3,0-0.4,0.1c-0.1,0-0.3,0-0.4,0.1c-0.2,0-0.4,0.1-0.6,0.2
		c-0.2,0.1-0.3,0.2-0.4,0.3c-0.1,0.1-0.2,0.3-0.2,0.5c0,0.3,0.1,0.5,0.3,0.6C196.7,390.9,197,391,197.3,391z M204.2,392.1
		c-0.5,0-1-0.1-1.4-0.4s-0.7-0.6-0.9-1.1s-0.3-1.1-0.3-1.8c0-0.7,0.1-1.3,0.4-1.8c0.2-0.5,0.6-0.9,1-1.1c0.4-0.3,0.8-0.4,1.3-0.4
		c0.4,0,0.7,0.1,0.9,0.2s0.4,0.3,0.6,0.5c0.1,0.2,0.3,0.3,0.3,0.5h0.1v-3.2h1.5v8.5h-1.5v-1H206c-0.1,0.2-0.2,0.3-0.3,0.5
		s-0.3,0.3-0.6,0.4C204.8,392,204.5,392.1,204.2,392.1z M204.6,390.8c0.3,0,0.6-0.1,0.8-0.3c0.2-0.2,0.4-0.4,0.5-0.7
		c0.1-0.3,0.2-0.7,0.2-1.1s-0.1-0.8-0.2-1.1c-0.1-0.3-0.3-0.5-0.5-0.7s-0.5-0.3-0.8-0.3s-0.6,0.1-0.8,0.3c-0.2,0.2-0.4,0.4-0.5,0.7
		s-0.2,0.7-0.2,1.1s0.1,0.8,0.2,1.1c0.1,0.3,0.3,0.6,0.5,0.7C204,390.7,204.3,390.8,204.6,390.8z M215.6,383.4v8.5H214v-7l0,0
		l-2,1.3v-1.4l2.1-1.4H215.6z M220.9,392.1c-0.7,0-1.3-0.2-1.8-0.5c-0.5-0.4-0.9-0.9-1.1-1.5c-0.3-0.7-0.4-1.5-0.4-2.4
		s0.1-1.7,0.4-2.4c0.3-0.7,0.6-1.2,1.1-1.5s1.1-0.5,1.8-0.5s1.3,0.2,1.8,0.5s0.9,0.8,1.1,1.5c0.3,0.7,0.4,1.4,0.4,2.4
		c0,0.9-0.1,1.7-0.4,2.4c-0.3,0.7-0.6,1.2-1.1,1.5S221.6,392.1,220.9,392.1z M220.9,390.8c0.5,0,1-0.3,1.3-0.8s0.5-1.3,0.5-2.3
		c0-0.7-0.1-1.2-0.2-1.7c-0.1-0.5-0.3-0.8-0.6-1s-0.6-0.4-0.9-0.4c-0.5,0-1,0.3-1.3,0.8s-0.5,1.3-0.5,2.3c0,0.7,0.1,1.3,0.2,1.7
		c0.1,0.5,0.3,0.8,0.6,1.1C220.2,390.7,220.5,390.8,220.9,390.8z M228.5,394.3v-8.8h1.5v1.1h0.1c0.1-0.2,0.2-0.3,0.3-0.5
		s0.3-0.3,0.6-0.5c0.2-0.1,0.6-0.2,0.9-0.2c0.5,0,0.9,0.1,1.3,0.4c0.4,0.3,0.7,0.6,1,1.1c0.2,0.5,0.4,1.1,0.4,1.8
		c0,0.7-0.1,1.3-0.3,1.8s-0.5,0.9-0.9,1.1c-0.4,0.3-0.8,0.4-1.4,0.4c-0.4,0-0.7-0.1-0.9-0.2s-0.4-0.3-0.6-0.4
		c-0.1-0.2-0.3-0.3-0.3-0.5H230v3.4L228.5,394.3L228.5,394.3z M230,388.7c0,0.4,0.1,0.8,0.2,1.1c0.1,0.3,0.3,0.6,0.5,0.7
		c0.2,0.2,0.5,0.3,0.8,0.3s0.6-0.1,0.8-0.3c0.2-0.2,0.4-0.4,0.5-0.7c0.1-0.3,0.2-0.7,0.2-1.1s-0.1-0.8-0.2-1.1s-0.3-0.6-0.5-0.7
		c-0.2-0.2-0.5-0.3-0.8-0.3s-0.6,0.1-0.8,0.3c-0.2,0.2-0.4,0.4-0.5,0.7C230,388,230,388.3,230,388.7z M237.7,392.1
		c-0.4,0-0.8-0.1-1.1-0.2s-0.6-0.4-0.8-0.7c-0.2-0.3-0.3-0.6-0.3-1.1c0-0.4,0.1-0.7,0.2-0.9c0.1-0.2,0.3-0.4,0.5-0.6
		c0.2-0.1,0.5-0.2,0.8-0.3c0.3-0.1,0.6-0.1,0.9-0.2c0.4,0,0.7-0.1,0.9-0.1s0.4-0.1,0.5-0.1c0.1-0.1,0.2-0.2,0.2-0.3l0,0
		c0-0.3-0.1-0.6-0.3-0.7c-0.2-0.2-0.5-0.3-0.8-0.3c-0.4,0-0.7,0.1-0.9,0.2c-0.2,0.2-0.4,0.4-0.4,0.6l-1.4-0.2c0.1-0.4,0.3-0.7,0.5-1
		c0.3-0.3,0.6-0.5,0.9-0.6c0.4-0.1,0.8-0.2,1.2-0.2c0.3,0,0.6,0,0.9,0.1c0.3,0.1,0.6,0.2,0.8,0.4c0.3,0.2,0.5,0.4,0.6,0.7
		c0.2,0.3,0.2,0.6,0.2,1.1v4.3h-1.5v-0.9h-0.1c-0.1,0.2-0.2,0.3-0.4,0.5s-0.4,0.3-0.6,0.4C238.3,392,238,392.1,237.7,392.1z
		 M238.1,391c0.3,0,0.6-0.1,0.8-0.2s0.4-0.3,0.5-0.5s0.2-0.4,0.2-0.7v-0.8c0,0-0.1,0.1-0.2,0.1c-0.1,0-0.2,0.1-0.4,0.1
		c-0.1,0-0.3,0-0.4,0.1c-0.1,0-0.3,0-0.4,0.1c-0.2,0-0.4,0.1-0.6,0.2c-0.2,0.1-0.3,0.2-0.4,0.3c-0.1,0.1-0.2,0.3-0.2,0.5
		c0,0.3,0.1,0.5,0.3,0.6S237.8,391,238.1,391z M245.4,394.5c-0.5,0-1-0.1-1.4-0.2s-0.7-0.3-0.9-0.6c-0.2-0.2-0.4-0.5-0.5-0.8
		l1.4-0.3c0.1,0.1,0.2,0.2,0.3,0.4c0.1,0.1,0.3,0.2,0.5,0.3c0.2,0.1,0.5,0.1,0.8,0.1c0.4,0,0.8-0.1,1.1-0.3c0.3-0.2,0.4-0.5,0.4-1
		v-1.2H247c-0.1,0.2-0.2,0.3-0.3,0.5s-0.3,0.3-0.6,0.4c-0.2,0.1-0.5,0.2-0.9,0.2c-0.5,0-0.9-0.1-1.3-0.3c-0.4-0.2-0.7-0.6-1-1
		c-0.2-0.5-0.3-1-0.3-1.7s0.1-1.3,0.3-1.8s0.6-0.9,1-1.1c0.4-0.3,0.8-0.4,1.3-0.4c0.4,0,0.7,0.1,0.9,0.2s0.4,0.3,0.6,0.5
		c0.1,0.2,0.3,0.3,0.3,0.5h0.1v-1.1h1.5v6.5c0,0.5-0.1,1-0.4,1.4c-0.3,0.4-0.6,0.6-1.1,0.8C246.4,394.4,245.9,394.5,245.4,394.5z
		 M245.4,390.7c0.3,0,0.6-0.1,0.8-0.2c0.2-0.2,0.4-0.4,0.5-0.7c0.1-0.3,0.2-0.6,0.2-1.1c0-0.4-0.1-0.8-0.2-1.1
		c-0.1-0.3-0.3-0.5-0.5-0.7s-0.5-0.3-0.8-0.3s-0.6,0.1-0.8,0.3c-0.2,0.2-0.4,0.4-0.5,0.7c-0.1,0.3-0.2,0.6-0.2,1s0.1,0.7,0.2,1
		c0.1,0.3,0.3,0.5,0.5,0.7C244.8,390.6,245,390.7,245.4,390.7z M252.8,392.1c-0.6,0-1.2-0.1-1.7-0.4s-0.8-0.6-1.1-1.1
		c-0.2-0.5-0.4-1.1-0.4-1.7c0-0.7,0.1-1.2,0.4-1.7c0.3-0.5,0.6-0.9,1.1-1.2c0.5-0.3,1-0.4,1.6-0.4c0.4,0,0.8,0.1,1.1,0.2
		c0.4,0.1,0.7,0.3,0.9,0.6c0.3,0.3,0.5,0.6,0.6,1c0.2,0.4,0.2,0.9,0.2,1.5v0.5h-5.3v-1h3.8c0-0.3-0.1-0.5-0.2-0.8
		c-0.1-0.2-0.3-0.4-0.5-0.5s-0.5-0.2-0.8-0.2s-0.6,0.1-0.8,0.2s-0.4,0.3-0.5,0.6c-0.1,0.2-0.2,0.5-0.2,0.8v0.9c0,0.4,0.1,0.7,0.2,1
		c0.1,0.3,0.3,0.5,0.6,0.6c0.2,0.1,0.5,0.2,0.9,0.2c0.2,0,0.4,0,0.6-0.1c0.2-0.1,0.3-0.2,0.5-0.3c0.1-0.1,0.2-0.3,0.3-0.5l1.4,0.2
		c-0.1,0.4-0.3,0.7-0.5,1s-0.6,0.5-1,0.6C253.7,392,253.2,392.1,252.8,392.1z M261.9,387.2l-1.4,0.2c0-0.1-0.1-0.3-0.2-0.4
		s-0.2-0.2-0.4-0.3c-0.2-0.1-0.4-0.1-0.6-0.1c-0.3,0-0.6,0.1-0.8,0.2c-0.2,0.1-0.3,0.3-0.3,0.5s0.1,0.3,0.2,0.5
		c0.1,0.1,0.4,0.2,0.7,0.3l1.1,0.2c0.6,0.1,1.1,0.3,1.4,0.6c0.3,0.3,0.4,0.7,0.4,1.1s-0.1,0.8-0.4,1.1c-0.2,0.3-0.6,0.5-1,0.7
		s-0.9,0.3-1.4,0.3c-0.8,0-1.4-0.2-1.9-0.5s-0.8-0.8-0.9-1.4l1.5-0.1c0.1,0.3,0.2,0.5,0.4,0.7c0.2,0.1,0.5,0.2,0.8,0.2
		c0.4,0,0.6-0.1,0.9-0.2c0.2-0.1,0.3-0.3,0.3-0.5s-0.1-0.3-0.2-0.5c-0.1-0.1-0.4-0.2-0.6-0.3l-1.1-0.2c-0.6-0.1-1.1-0.3-1.4-0.6
		c-0.3-0.3-0.4-0.7-0.4-1.2c0-0.4,0.1-0.7,0.3-1c0.2-0.3,0.5-0.5,0.9-0.7s0.8-0.2,1.4-0.2c0.8,0,1.3,0.2,1.8,0.5
		C261.6,386.2,261.8,386.7,261.9,387.2z M269,392.1c-0.6,0-1.2-0.1-1.6-0.4c-0.5-0.3-0.8-0.7-1.1-1.2c-0.3-0.5-0.4-1.1-0.4-1.7
		c0-0.7,0.1-1.2,0.4-1.7s0.6-0.9,1.1-1.2c0.5-0.3,1-0.4,1.6-0.4s1.2,0.1,1.6,0.4c0.5,0.3,0.8,0.7,1.1,1.2c0.3,0.5,0.4,1.1,0.4,1.7
		c0,0.7-0.1,1.2-0.4,1.7c-0.2,0.5-0.6,0.9-1.1,1.2C270.2,391.9,269.7,392.1,269,392.1z M269,390.9c0.3,0,0.6-0.1,0.9-0.3
		c0.2-0.2,0.4-0.4,0.5-0.8c0.1-0.3,0.2-0.7,0.2-1.1s-0.1-0.7-0.2-1.1c-0.1-0.3-0.3-0.6-0.5-0.8c-0.2-0.2-0.5-0.3-0.9-0.3
		c-0.3,0-0.6,0.1-0.9,0.3c-0.2,0.2-0.4,0.4-0.5,0.8c-0.1,0.3-0.2,0.7-0.2,1.1s0.1,0.7,0.2,1.1c0.1,0.3,0.3,0.6,0.5,0.8
		C268.4,390.8,268.7,390.9,269,390.9z M276.6,385.5v1.2h-3.8v-1.2H276.6z M273.8,391.9v-7c0-0.4,0.1-0.8,0.3-1.1
		c0.2-0.3,0.4-0.5,0.7-0.6c0.3-0.1,0.6-0.2,1-0.2c0.3,0,0.5,0,0.7,0.1s0.4,0.1,0.5,0.1l-0.3,1.2c-0.1,0-0.1,0-0.2-0.1
		c-0.1,0-0.2,0-0.3,0c-0.3,0-0.5,0.1-0.6,0.2s-0.2,0.3-0.2,0.6v6.9h-1.6V391.9z M280.8,391.9v-8.5h1.5v3.2h0.1
		c0.1-0.2,0.2-0.3,0.3-0.5c0.1-0.2,0.3-0.3,0.6-0.5c0.2-0.1,0.6-0.2,0.9-0.2c0.5,0,0.9,0.1,1.3,0.4s0.7,0.6,1,1.1
		c0.2,0.5,0.4,1.1,0.4,1.8c0,0.7-0.1,1.3-0.3,1.8c-0.2,0.5-0.5,0.9-0.9,1.1c-0.4,0.3-0.8,0.4-1.4,0.4c-0.4,0-0.7-0.1-0.9-0.2
		c-0.2-0.1-0.4-0.3-0.6-0.4c-0.1-0.2-0.3-0.3-0.3-0.5h-0.1v1L280.8,391.9L280.8,391.9z M282.3,388.7c0,0.4,0.1,0.8,0.2,1.1
		c0.1,0.3,0.3,0.6,0.5,0.7c0.2,0.2,0.5,0.3,0.8,0.3s0.6-0.1,0.8-0.3c0.2-0.2,0.4-0.4,0.5-0.7c0.1-0.3,0.2-0.7,0.2-1.1
		s-0.1-0.8-0.2-1.1c-0.1-0.3-0.3-0.6-0.5-0.7c-0.2-0.2-0.5-0.3-0.8-0.3s-0.6,0.1-0.8,0.3c-0.2,0.2-0.4,0.4-0.5,0.7
		C282.3,388,282.3,388.3,282.3,388.7z M290.9,392.1c-0.6,0-1.2-0.1-1.6-0.4c-0.5-0.3-0.8-0.7-1.1-1.2c-0.2-0.5-0.4-1.1-0.4-1.7
		c0-0.7,0.1-1.2,0.4-1.7s0.6-0.9,1.1-1.2c0.5-0.3,1-0.4,1.6-0.4s1.2,0.1,1.6,0.4c0.5,0.3,0.8,0.7,1.1,1.2c0.3,0.5,0.4,1.1,0.4,1.7
		c0,0.7-0.1,1.2-0.4,1.7c-0.2,0.5-0.6,0.9-1.1,1.2C292.1,391.9,291.5,392.1,290.9,392.1z M290.9,390.9c0.3,0,0.6-0.1,0.9-0.3
		c0.2-0.2,0.4-0.4,0.5-0.8c0.1-0.3,0.2-0.7,0.2-1.1s-0.1-0.7-0.2-1.1c-0.1-0.3-0.3-0.6-0.5-0.8c-0.2-0.2-0.5-0.3-0.9-0.3
		c-0.3,0-0.6,0.1-0.9,0.3c-0.2,0.2-0.4,0.4-0.5,0.8c-0.1,0.3-0.2,0.7-0.2,1.1s0.1,0.7,0.2,1.1c0.1,0.3,0.3,0.6,0.5,0.8
		C290.3,390.8,290.6,390.9,290.9,390.9z M298.1,392.1c-0.6,0-1.2-0.1-1.6-0.4c-0.5-0.3-0.8-0.7-1.1-1.2c-0.2-0.5-0.4-1.1-0.4-1.7
		c0-0.7,0.1-1.2,0.4-1.7s0.6-0.9,1.1-1.2c0.5-0.3,1-0.4,1.6-0.4s1.2,0.1,1.6,0.4c0.5,0.3,0.8,0.7,1.1,1.2c0.3,0.5,0.4,1.1,0.4,1.7
		c0,0.7-0.1,1.2-0.4,1.7c-0.2,0.5-0.6,0.9-1.1,1.2C299.2,391.9,298.7,392.1,298.1,392.1z M298.1,390.9c0.3,0,0.6-0.1,0.9-0.3
		c0.2-0.2,0.4-0.4,0.5-0.8c0.1-0.3,0.2-0.7,0.2-1.1s-0.1-0.7-0.2-1.1c-0.1-0.3-0.3-0.6-0.5-0.8c-0.2-0.2-0.5-0.3-0.9-0.3
		c-0.3,0-0.6,0.1-0.9,0.3c-0.2,0.2-0.4,0.4-0.5,0.8c-0.1,0.3-0.2,0.7-0.2,1.1s0.1,0.7,0.2,1.1c0.1,0.3,0.3,0.6,0.5,0.8
		C297.4,390.8,297.7,390.9,298.1,390.9z M303.8,389.9v-1.8h0.2l2.3-2.6h1.8l-2.8,3.2H305L303.8,389.9z M302.4,391.9v-8.5h1.5v8.5
		H302.4z M306.4,391.9l-2.1-2.9l1-1.1l2.9,4H306.4z"/>
	<circle class="st20" cx="147.9" cy="394.9" r="18.5"/>
	<g>
		<g>
			<defs>
				<rect id="SVGID_7_" x="137.8" y="384.8" width="20.1" height="20.1"/>
			</defs>
			<clipPath id="SVGID_8_">
				<use xlink:href="#SVGID_7_"  style="overflow:visible;"/>
			</clipPath>
			<g class="st21">
				<path class="st18" d="M147.9,391.1c0.6-2.5,3-3.8,8.2-3.8c0.1,0,0.2,0,0.2,0c0.1,0,0.1,0.1,0.2,0.1c0.1,0.1,0.1,0.1,0.1,0.2
					s0,0.2,0,0.2v11.3c0,0.2-0.1,0.3-0.2,0.4c-0.1,0.1-0.3,0.2-0.4,0.2c-5,0-7,1-8.2,2.5c-1.2-1.5-3.1-2.5-8.2-2.5
					c-0.4,0-0.6-0.3-0.6-0.7v-11c0-0.1,0-0.2,0-0.2c0-0.1,0.1-0.1,0.1-0.2c0.1-0.1,0.1-0.1,0.2-0.1c0.1,0,0.2,0,0.2,0
					C144.9,387.4,147.2,388.6,147.9,391.1z"/>
				<path class="st18" d="M147.9,391.1v11.3"/>
			</g>
		</g>
	</g>
	<path class="st22" d="M367.1,85.7c-0.1-0.5-0.3-0.9-0.7-1.1c-0.4-0.3-0.9-0.4-1.5-0.4c-0.4,0-0.8,0.1-1.1,0.2
		c-0.3,0.1-0.6,0.3-0.8,0.6c-0.2,0.2-0.3,0.5-0.3,0.8s0.1,0.5,0.2,0.7s0.3,0.3,0.5,0.5c0.2,0.1,0.4,0.2,0.6,0.3
		c0.2,0.1,0.4,0.1,0.6,0.2l1,0.3c0.3,0.1,0.5,0.2,0.8,0.3c0.3,0.1,0.6,0.3,0.9,0.5s0.5,0.5,0.7,0.8s0.3,0.7,0.3,1.2s-0.1,1-0.4,1.4
		s-0.7,0.8-1.2,1c-0.5,0.3-1.2,0.4-1.9,0.4c-0.7,0-1.3-0.1-1.8-0.3c-0.5-0.2-0.9-0.5-1.2-0.9c-0.3-0.4-0.5-0.9-0.5-1.4h1.2
		c0,0.4,0.2,0.7,0.4,0.9c0.2,0.2,0.5,0.4,0.8,0.5s0.7,0.2,1.1,0.2c0.5,0,0.9-0.1,1.2-0.2c0.4-0.1,0.6-0.4,0.9-0.6
		c0.2-0.3,0.3-0.6,0.3-0.9s-0.1-0.6-0.3-0.8c-0.2-0.2-0.4-0.4-0.7-0.5c-0.3-0.1-0.6-0.2-1-0.3l-1.2-0.3c-0.8-0.2-1.4-0.5-1.8-0.9
		s-0.7-0.9-0.7-1.6c0-0.5,0.1-1,0.4-1.4s0.7-0.7,1.2-1c0.5-0.2,1.1-0.3,1.7-0.3s1.2,0.1,1.7,0.3c0.5,0.2,0.9,0.5,1.2,0.9
		c0.3,0.4,0.4,0.8,0.5,1.3h-1.1V85.7z M373.3,93.2c-0.7,0-1.3-0.2-1.8-0.5s-0.9-0.8-1.2-1.3c-0.3-0.6-0.4-1.2-0.4-2
		c0-0.7,0.1-1.4,0.4-2s0.7-1,1.2-1.3s1.1-0.5,1.7-0.5c0.4,0,0.8,0.1,1.1,0.2c0.4,0.1,0.7,0.3,1,0.6c0.3,0.3,0.5,0.7,0.7,1.1
		c0.2,0.5,0.3,1,0.3,1.7v0.5h-5.6v-1h4.5c0-0.4-0.1-0.8-0.2-1.1c-0.2-0.3-0.4-0.6-0.7-0.8c-0.3-0.2-0.7-0.3-1.1-0.3
		s-0.8,0.1-1.2,0.3c-0.3,0.2-0.6,0.5-0.7,0.9c-0.2,0.4-0.3,0.7-0.3,1.1v0.6c0,0.6,0.1,1,0.3,1.4c0.2,0.4,0.5,0.7,0.8,0.9
		c0.3,0.2,0.7,0.3,1.2,0.3c0.3,0,0.6,0,0.8-0.1c0.2-0.1,0.4-0.2,0.6-0.4c0.2-0.2,0.3-0.4,0.4-0.6l1.1,0.3c-0.1,0.4-0.3,0.7-0.6,1
		c-0.3,0.3-0.6,0.5-1,0.6C374.2,93.1,373.8,93.2,373.3,93.2z M381.1,93.2c-0.7,0-1.3-0.2-1.8-0.5s-0.9-0.8-1.2-1.3
		c-0.3-0.6-0.4-1.2-0.4-2c0-0.7,0.1-1.4,0.4-2s0.7-1,1.2-1.3s1.1-0.5,1.7-0.5c0.4,0,0.8,0.1,1.1,0.2c0.4,0.1,0.7,0.3,1,0.6
		c0.3,0.3,0.5,0.7,0.7,1.1c0.2,0.5,0.3,1,0.3,1.7v0.5h-5.6v-1h4.5c0-0.4-0.1-0.8-0.2-1.1c-0.2-0.3-0.4-0.6-0.7-0.8
		c-0.3-0.2-0.7-0.3-1.1-0.3s-0.8,0.1-1.2,0.3c-0.3,0.2-0.6,0.5-0.7,0.9c-0.2,0.4-0.3,0.7-0.3,1.1v0.6c0,0.6,0.1,1,0.3,1.4
		c0.2,0.4,0.5,0.7,0.8,0.9c0.3,0.2,0.7,0.3,1.2,0.3c0.3,0,0.6,0,0.8-0.1c0.2-0.1,0.5-0.2,0.6-0.4c0.2-0.2,0.3-0.4,0.4-0.6l1.1,0.3
		c-0.1,0.4-0.3,0.7-0.6,1c-0.3,0.3-0.6,0.5-1,0.6C382,93.1,381.6,93.2,381.1,93.2z M390.1,93h-1.2l3.6-9.8h1.2l3.6,9.8h-1.2
		l-2.9-8.2h-0.1L390.1,93z M390.6,89.2h5v1h-5V89.2z M399.8,83.2V93h-1.1v-9.8H399.8z M403,83.2V93h-1.1v-9.8H403z"/>
	<path class="st23" d="M116.7,83.7v-1.9h9.7v1.9h-3.8V94h-2.2V83.7H116.7z M130.9,94.2c-0.9,0-1.7-0.2-2.3-0.6
		c-0.7-0.4-1.2-0.9-1.5-1.7c-0.4-0.7-0.5-1.5-0.5-2.5c0-0.9,0.2-1.8,0.5-2.5c0.4-0.7,0.9-1.3,1.5-1.7c0.7-0.4,1.4-0.6,2.3-0.6
		c0.9,0,1.7,0.2,2.3,0.6c0.7,0.4,1.2,0.9,1.5,1.7c0.4,0.7,0.5,1.5,0.5,2.5c0,0.9-0.2,1.8-0.5,2.5c-0.4,0.7-0.9,1.3-1.5,1.7
		C132.5,94,131.7,94.2,130.9,94.2z M130.9,92.5c0.5,0,0.9-0.1,1.2-0.4s0.6-0.6,0.7-1.1c0.2-0.5,0.2-1,0.2-1.5c0-0.6-0.1-1.1-0.2-1.5
		c-0.2-0.5-0.4-0.8-0.7-1.1c-0.3-0.3-0.7-0.4-1.2-0.4s-0.9,0.1-1.2,0.4s-0.6,0.6-0.7,1.1c-0.2,0.5-0.2,1-0.2,1.5
		c0,0.6,0.1,1.1,0.2,1.5c0.2,0.5,0.4,0.8,0.7,1.1C130,92.3,130.4,92.5,130.9,92.5z M140.5,94.2c-0.7,0-1.4-0.2-1.9-0.6
		c-0.6-0.4-1-0.9-1.3-1.6s-0.5-1.6-0.5-2.6s0.2-1.9,0.5-2.6s0.8-1.2,1.4-1.6c0.6-0.4,1.2-0.5,1.9-0.5c0.5,0,1,0.1,1.3,0.3
		c0.3,0.2,0.6,0.4,0.8,0.6c0.2,0.3,0.4,0.5,0.5,0.7h0.1v-4.6h2.2V94h-2.1v-1.4h-0.1c-0.1,0.2-0.3,0.5-0.5,0.7s-0.5,0.5-0.8,0.6
		C141.4,94.1,141,94.2,140.5,94.2z M141.1,92.4c0.5,0,0.8-0.1,1.2-0.4c0.3-0.3,0.6-0.6,0.7-1c0.2-0.4,0.2-1,0.2-1.6
		s-0.1-1.1-0.2-1.5c-0.2-0.4-0.4-0.8-0.7-1s-0.7-0.4-1.2-0.4s-0.9,0.1-1.2,0.4s-0.6,0.6-0.7,1c-0.2,0.4-0.2,0.9-0.2,1.5
		s0.1,1.1,0.2,1.5c0.2,0.4,0.4,0.8,0.7,1.1C140.2,92.3,140.6,92.4,141.1,92.4z M150.3,94.2c-0.6,0-1.1-0.1-1.6-0.3
		c-0.5-0.2-0.8-0.5-1.1-0.9s-0.4-0.9-0.4-1.5c0-0.5,0.1-0.9,0.3-1.3c0.2-0.3,0.5-0.6,0.8-0.8c0.3-0.2,0.7-0.4,1.1-0.5
		c0.4-0.1,0.8-0.2,1.3-0.2c0.5-0.1,1-0.1,1.3-0.1s0.6-0.1,0.7-0.2c0.2-0.1,0.2-0.3,0.2-0.5l0,0c0-0.4-0.1-0.8-0.4-1
		c-0.3-0.2-0.7-0.4-1.2-0.4s-0.9,0.1-1.3,0.3c-0.3,0.2-0.5,0.5-0.6,0.8l-2-0.3c0.2-0.6,0.4-1,0.8-1.4c0.4-0.4,0.8-0.7,1.3-0.8
		c0.5-0.2,1.1-0.3,1.8-0.3c0.4,0,0.9,0.1,1.3,0.2c0.4,0.1,0.8,0.3,1.2,0.5s0.7,0.6,0.9,1s0.3,0.9,0.3,1.5v6h-2v-1.3l0,0
		c-0.1,0.3-0.3,0.5-0.6,0.7c-0.2,0.2-0.5,0.4-0.9,0.5C151.2,94.1,150.7,94.2,150.3,94.2z M150.8,92.6c0.4,0,0.8-0.1,1.1-0.3
		c0.3-0.2,0.6-0.4,0.7-0.7c0.2-0.3,0.3-0.6,0.3-0.9v-1.1c-0.1,0.1-0.2,0.1-0.3,0.2c-0.2,0-0.3,0.1-0.5,0.1s-0.4,0.1-0.6,0.1
		c-0.2,0-0.4,0.1-0.5,0.1c-0.3,0-0.6,0.1-0.9,0.2c-0.3,0.1-0.5,0.2-0.6,0.4c-0.1,0.2-0.2,0.4-0.2,0.7c0,0.4,0.1,0.7,0.4,0.9
		C150,92.5,150.4,92.6,150.8,92.6z M158.3,97.4c-0.3,0-0.6,0-0.8-0.1c-0.2,0-0.4-0.1-0.6-0.2l0.5-1.7c0.3,0.1,0.6,0.1,0.8,0.1
		s0.5-0.1,0.6-0.2c0.2-0.1,0.4-0.4,0.5-0.7l0.2-0.5l-3.3-9.3h2.3l2.1,6.9h0.1l2.1-6.9h2.3l-3.7,10.3c-0.2,0.5-0.4,0.9-0.7,1.2
		c-0.3,0.3-0.6,0.6-1,0.8C159.3,97.3,158.8,97.4,158.3,97.4z"/>
	<g>
		
			<image style="overflow:visible;opacity:0.15;" width="947" height="380" xlink:href="1D27F6A5.png"  transform="matrix(0.24 0 0 0.24 329.88 87)">
		</image>
		<g>
			<g>
				<path class="st2" d="M361,94h161c13.3,0,24,10.7,24,24v25c0,13.3-10.7,24-24,24H361c-13.3,0-24-10.7-24-24v-25
					C337,104.7,347.7,94,361,94z"/>
			</g>
		</g>
	</g>
	<path d="M399.2,137v-11.9h4.5c0.9,0,1.7,0.2,2.3,0.5c0.6,0.3,1.1,0.8,1.4,1.3c0.3,0.6,0.5,1.2,0.5,2c0,0.8-0.2,1.4-0.5,2
		s-0.8,1-1.4,1.3s-1.4,0.5-2.3,0.5h-3.2v-1.8h2.9c0.5,0,1-0.1,1.3-0.2c0.3-0.2,0.6-0.4,0.8-0.7c0.2-0.3,0.2-0.6,0.2-1.1
		c0-0.4-0.1-0.8-0.2-1.1c-0.2-0.3-0.4-0.5-0.8-0.7c-0.3-0.2-0.8-0.2-1.3-0.2h-2V137H399.2z M405.3,131.6l3,5.4h-2.4l-2.9-5.4H405.3z
		 M413.6,137.2c-0.9,0-1.7-0.2-2.3-0.6c-0.6-0.4-1.1-0.9-1.5-1.6c-0.3-0.7-0.5-1.5-0.5-2.4s0.2-1.7,0.5-2.4c0.4-0.7,0.8-1.2,1.5-1.6
		c0.6-0.4,1.4-0.6,2.2-0.6c0.6,0,1.1,0.1,1.6,0.3s0.9,0.4,1.3,0.8c0.4,0.4,0.7,0.8,0.9,1.4c0.2,0.6,0.3,1.2,0.3,2v0.6h-7.3v-1.4h5.3
		c0-0.4-0.1-0.8-0.3-1.1c-0.2-0.3-0.4-0.6-0.7-0.8c-0.3-0.2-0.7-0.3-1.1-0.3s-0.8,0.1-1.1,0.3c-0.3,0.2-0.6,0.5-0.8,0.8
		c-0.2,0.3-0.3,0.7-0.3,1.1v1.2c0,0.5,0.1,1,0.3,1.3c0.2,0.4,0.5,0.7,0.8,0.9s0.7,0.3,1.2,0.3c0.3,0,0.6,0,0.8-0.1
		c0.2-0.1,0.5-0.2,0.6-0.4c0.2-0.2,0.3-0.4,0.4-0.6l2,0.2c-0.1,0.5-0.4,1-0.7,1.4c-0.3,0.4-0.8,0.7-1.3,0.9
		C414.9,137.1,414.3,137.2,413.6,137.2z M419.4,140.4V128h2.1v1.5h0.1c0.1-0.2,0.3-0.4,0.5-0.7c0.2-0.2,0.5-0.5,0.8-0.6
		c0.3-0.2,0.8-0.3,1.3-0.3c0.7,0,1.3,0.2,1.9,0.5s1,0.9,1.3,1.6c0.3,0.7,0.5,1.5,0.5,2.5s-0.2,1.8-0.5,2.5s-0.8,1.2-1.3,1.6
		c-0.6,0.4-1.2,0.5-1.9,0.5c-0.5,0-0.9-0.1-1.3-0.3c-0.3-0.2-0.6-0.4-0.8-0.6c-0.2-0.2-0.4-0.5-0.5-0.7h-0.1v4.8L419.4,140.4
		L419.4,140.4z M421.4,132.5c0,0.6,0.1,1.1,0.2,1.5c0.2,0.4,0.4,0.8,0.7,1c0.3,0.2,0.7,0.4,1.1,0.4c0.5,0,0.9-0.1,1.2-0.4
		c0.3-0.3,0.6-0.6,0.7-1c0.2-0.4,0.2-0.9,0.2-1.5s-0.1-1-0.2-1.5c-0.2-0.4-0.4-0.8-0.7-1c-0.3-0.2-0.7-0.4-1.2-0.4s-0.8,0.1-1.1,0.4
		s-0.6,0.6-0.7,1S421.4,131.9,421.4,132.5z M433.5,137.2c-0.9,0-1.6-0.2-2.3-0.6c-0.6-0.4-1.1-0.9-1.5-1.6c-0.3-0.7-0.5-1.5-0.5-2.4
		s0.2-1.7,0.5-2.4c0.4-0.7,0.9-1.2,1.5-1.6c0.6-0.4,1.4-0.6,2.3-0.6s1.6,0.2,2.3,0.6c0.6,0.4,1.1,0.9,1.5,1.6
		c0.4,0.7,0.5,1.5,0.5,2.4s-0.2,1.7-0.5,2.4c-0.4,0.7-0.8,1.2-1.5,1.6C435.2,137,434.4,137.2,433.5,137.2z M433.5,135.5
		c0.5,0,0.9-0.1,1.2-0.4c0.3-0.3,0.6-0.6,0.7-1.1c0.2-0.4,0.2-0.9,0.2-1.5c0-0.5-0.1-1-0.2-1.5c-0.2-0.4-0.4-0.8-0.7-1.1
		c-0.3-0.3-0.7-0.4-1.2-0.4s-0.9,0.1-1.2,0.4c-0.3,0.3-0.6,0.6-0.7,1.1c-0.2,0.4-0.2,0.9-0.2,1.5c0,0.5,0.1,1,0.2,1.5
		c0.2,0.4,0.4,0.8,0.7,1.1C432.6,135.4,433,135.5,433.5,135.5z M439.6,137v-9h2v1.5h0.1c0.2-0.5,0.4-0.9,0.8-1.2s0.9-0.4,1.4-0.4
		c0.1,0,0.2,0,0.4,0c0.1,0,0.3,0,0.4,0v1.9c-0.1,0-0.2-0.1-0.4-0.1c-0.2,0-0.4,0-0.6,0c-0.4,0-0.7,0.1-1,0.3s-0.5,0.4-0.7,0.7
		s-0.3,0.6-0.3,1v5.3H439.6z M451.1,128v1.6H446V128H451.1z M447.2,125.9h2.1v8.4c0,0.3,0,0.5,0.1,0.7c0.1,0.1,0.2,0.2,0.3,0.3
		c0.1,0.1,0.3,0.1,0.5,0.1c0.1,0,0.3,0,0.4,0s0.2,0,0.3-0.1l0.4,1.6c-0.1,0-0.3,0.1-0.5,0.1s-0.5,0.1-0.8,0.1c-0.5,0-1-0.1-1.4-0.2
		c-0.4-0.2-0.8-0.5-1-0.8c-0.2-0.4-0.4-0.8-0.4-1.4V125.9z M459.5,137.2c-0.6,0-1.1-0.1-1.5-0.3s-0.8-0.5-1.1-0.9
		c-0.3-0.4-0.4-0.9-0.4-1.5c0-0.5,0.1-0.9,0.3-1.3c0.2-0.3,0.4-0.6,0.8-0.8c0.3-0.2,0.7-0.3,1.1-0.4c0.4-0.1,0.8-0.2,1.3-0.2
		c0.5-0.1,1-0.1,1.3-0.1s0.6-0.1,0.7-0.2c0.2-0.1,0.2-0.2,0.2-0.4l0,0c0-0.4-0.1-0.8-0.4-1s-0.6-0.4-1.1-0.4s-0.9,0.1-1.2,0.3
		c-0.3,0.2-0.5,0.5-0.6,0.8l-2-0.3c0.2-0.5,0.4-1,0.8-1.4s0.8-0.6,1.3-0.8s1.1-0.3,1.7-0.3c0.4,0,0.9,0.1,1.3,0.2
		c0.4,0.1,0.8,0.3,1.2,0.5c0.4,0.2,0.6,0.5,0.9,0.9c0.2,0.4,0.3,0.9,0.3,1.5v6h-2v-1.2h-0.1c-0.1,0.2-0.3,0.5-0.5,0.7
		s-0.5,0.4-0.9,0.5C460.3,137.1,459.9,137.2,459.5,137.2z M460,135.6c0.4,0,0.8-0.1,1.1-0.2c0.3-0.2,0.5-0.4,0.7-0.7
		s0.3-0.6,0.3-0.9v-1.1c-0.1,0.1-0.2,0.1-0.3,0.2c-0.2,0-0.3,0.1-0.5,0.1s-0.4,0.1-0.6,0.1s-0.4,0.1-0.5,0.1c-0.3,0-0.6,0.1-0.8,0.2
		c-0.2,0.1-0.4,0.2-0.6,0.4c-0.1,0.2-0.2,0.4-0.2,0.7c0,0.4,0.1,0.7,0.4,0.9C459.2,135.5,459.6,135.6,460,135.6z M468.4,131.8v5.2
		h-2.1v-9h2v1.5h0.1c0.2-0.5,0.5-0.9,1-1.2s1-0.4,1.7-0.4c0.6,0,1.2,0.1,1.6,0.4c0.5,0.3,0.8,0.6,1.1,1.1c0.3,0.5,0.4,1.1,0.4,1.8
		v5.7h-2.1v-5.4c0-0.6-0.2-1.1-0.5-1.4c-0.3-0.3-0.7-0.5-1.3-0.5c-0.4,0-0.7,0.1-1,0.2c-0.3,0.2-0.5,0.4-0.7,0.7
		C468.5,131,468.4,131.3,468.4,131.8z M478.9,137.2c-0.6,0-1.1-0.1-1.5-0.3c-0.5-0.2-0.8-0.5-1.1-0.9c-0.3-0.4-0.4-0.9-0.4-1.5
		c0-0.5,0.1-0.9,0.3-1.3c0.2-0.3,0.4-0.6,0.8-0.8c0.3-0.2,0.7-0.3,1.1-0.4c0.4-0.1,0.8-0.2,1.3-0.2c0.5-0.1,1-0.1,1.3-0.1
		s0.6-0.1,0.7-0.2c0.2-0.1,0.2-0.2,0.2-0.4l0,0c0-0.4-0.1-0.8-0.4-1s-0.6-0.4-1.1-0.4s-0.9,0.1-1.2,0.3c-0.3,0.2-0.5,0.5-0.6,0.8
		l-2-0.3c0.2-0.5,0.4-1,0.8-1.4s0.8-0.6,1.3-0.8s1.1-0.3,1.7-0.3c0.4,0,0.9,0.1,1.3,0.2c0.4,0.1,0.8,0.3,1.2,0.5
		c0.4,0.2,0.6,0.5,0.9,0.9c0.2,0.4,0.3,0.9,0.3,1.5v6h-2v-1.2h-0.1c-0.1,0.2-0.3,0.5-0.5,0.7s-0.5,0.4-0.9,0.5
		C479.8,137.1,479.4,137.2,478.9,137.2z M479.4,135.6c0.4,0,0.8-0.1,1.1-0.2c0.3-0.2,0.5-0.4,0.7-0.7s0.3-0.6,0.3-0.9v-1.1
		c-0.1,0.1-0.2,0.1-0.3,0.2c-0.2,0-0.3,0.1-0.5,0.1s-0.4,0.1-0.6,0.1s-0.4,0.1-0.5,0.1c-0.3,0-0.6,0.1-0.8,0.2
		c-0.2,0.1-0.4,0.2-0.6,0.4c-0.1,0.2-0.2,0.4-0.2,0.7c0,0.4,0.1,0.7,0.4,0.9C478.6,135.5,479,135.6,479.4,135.6z M487.9,125.1V137
		h-2.1v-11.9H487.9z M491.3,140.4c-0.3,0-0.6,0-0.8-0.1c-0.2,0-0.4-0.1-0.6-0.2l0.5-1.6c0.3,0.1,0.6,0.1,0.8,0.1s0.5-0.1,0.6-0.2
		c0.2-0.1,0.3-0.4,0.5-0.7l0.2-0.5l-3.2-9.1h2.2l2.1,6.8h0.1l2.1-6.8h2.2l-3.6,10c-0.2,0.5-0.4,0.9-0.7,1.2c-0.3,0.3-0.6,0.6-1,0.8
		C492.4,140.3,491.9,140.4,491.3,140.4z M506.6,130.4l-1.9,0.2c-0.1-0.2-0.1-0.4-0.3-0.5c-0.1-0.2-0.3-0.3-0.5-0.4
		c-0.2-0.1-0.5-0.2-0.8-0.2c-0.4,0-0.8,0.1-1.1,0.3c-0.3,0.2-0.4,0.4-0.4,0.7s0.1,0.5,0.3,0.6c0.2,0.2,0.5,0.3,1,0.4l1.5,0.3
		c0.8,0.2,1.5,0.5,1.9,0.9s0.6,0.9,0.6,1.6c0,0.6-0.2,1.1-0.5,1.5s-0.8,0.8-1.3,1c-0.6,0.2-1.2,0.4-2,0.4c-1.1,0-2-0.2-2.6-0.7
		c-0.7-0.5-1.1-1.1-1.2-1.9l2.1-0.2c0.1,0.4,0.3,0.7,0.6,0.9c0.3,0.2,0.7,0.3,1.2,0.3s0.9-0.1,1.2-0.3c0.3-0.2,0.5-0.5,0.5-0.8
		s-0.1-0.5-0.3-0.6c-0.2-0.2-0.5-0.3-0.9-0.4l-1.5-0.3c-0.9-0.2-1.5-0.5-1.9-0.9s-0.6-1-0.6-1.6s0.1-1,0.4-1.4s0.7-0.7,1.3-0.9
		c0.5-0.2,1.2-0.3,1.9-0.3c1,0,1.9,0.2,2.5,0.7C506,129,506.4,129.7,506.6,130.4z M508.5,137v-9h2.1v9H508.5z M509.5,126.8
		c-0.3,0-0.6-0.1-0.9-0.3c-0.2-0.2-0.4-0.5-0.4-0.8s0.1-0.6,0.4-0.8c0.2-0.2,0.5-0.3,0.9-0.3c0.3,0,0.6,0.1,0.9,0.3
		c0.2,0.2,0.4,0.5,0.4,0.8s-0.1,0.6-0.4,0.8C510.2,126.7,509.9,126.8,509.5,126.8z M519.8,130.4l-1.9,0.2c-0.1-0.2-0.2-0.4-0.3-0.5
		c-0.1-0.2-0.3-0.3-0.5-0.4c-0.2-0.1-0.5-0.2-0.8-0.2c-0.4,0-0.8,0.1-1.1,0.3s-0.4,0.4-0.4,0.7s0.1,0.5,0.3,0.6
		c0.2,0.2,0.5,0.3,1,0.4l1.5,0.3c0.8,0.2,1.5,0.5,1.9,0.9s0.6,0.9,0.6,1.6c0,0.6-0.2,1.1-0.5,1.5s-0.8,0.8-1.3,1
		c-0.6,0.2-1.2,0.4-2,0.4c-1.1,0-2-0.2-2.6-0.7c-0.7-0.5-1.1-1.1-1.2-1.9l2.1-0.2c0.1,0.4,0.3,0.7,0.6,0.9s0.7,0.3,1.2,0.3
		s0.9-0.1,1.2-0.3s0.5-0.5,0.5-0.8s-0.1-0.5-0.3-0.6c-0.2-0.2-0.5-0.3-0.9-0.4l-1.5-0.3c-0.9-0.2-1.5-0.5-1.9-0.9s-0.6-1-0.6-1.6
		s0.1-1,0.4-1.4c0.3-0.4,0.7-0.7,1.3-0.9c0.5-0.2,1.2-0.3,1.9-0.3c1,0,1.9,0.2,2.5,0.7C519.3,129,519.7,129.7,519.8,130.4z"/>
	<path class="st24" d="M362.8,118.7h7.5c0.3,0,0.6,0.1,0.9,0.3l5.3,4.5c0.3,0.3,0.5,0.6,0.5,1v13.6c0,1.9,0,2.1-2,2.1h-12.2
		c-2,0-2-0.1-2-2.1v-17.4C360.8,118.8,360.9,118.7,362.8,118.7z M365,131.9c0-0.5,0.4-0.9,0.9-0.9h8.2c0.5,0,0.9,0.4,0.9,0.9v0.2
		c0,0.5-0.4,0.9-0.9,0.9h-8.2c-0.5,0-0.9-0.4-0.9-0.9V131.9z M365.9,135c-0.5,0-0.9,0.4-0.9,0.9v0.2c0,0.5,0.4,0.9,0.9,0.9h3.2
		c0.5,0,0.9-0.4,0.9-0.9v-0.2c0-0.5-0.4-0.9-0.9-0.9H365.9z"/>
	<path class="st25" d="M365,120.9h8.6c0.3,0,0.6,0.1,0.9,0.3l5.3,4.5c0.3,0.3,0.5,0.6,0.5,1v13.6c0,1.9,0,2.1-2,2.1H365
		c-2,0-2-0.1-2-2.1v-17.4C363,121,363,120.9,365,120.9z M365,131.9c0-0.5,0.4-0.9,0.9-0.9h8.2c0.5,0,0.9,0.4,0.9,0.9v0.2
		c0,0.5-0.4,0.9-0.9,0.9h-8.2c-0.5,0-0.9-0.4-0.9-0.9V131.9z M365.9,135c-0.5,0-0.9,0.4-0.9,0.9v0.2c0,0.5,0.4,0.9,0.9,0.9h3.2
		c0.5,0,0.9-0.4,0.9-0.9v-0.2c0-0.5-0.4-0.9-0.9-0.9H365.9z"/>
	<g>
		
			<image style="overflow:visible;opacity:0.15;" width="947" height="380" xlink:href="1D27F6A3.png"  transform="matrix(0.24 0 0 0.24 389.88 177)">
		</image>
		<g>
			<g>
				<path class="st2" d="M421,184h161c13.3,0,24,10.7,24,24v25c0,13.3-10.7,24-24,24H421c-13.3,0-24-10.7-24-24v-25
					C397,194.7,407.7,184,421,184z"/>
			</g>
		</g>
	</g>
	<path d="M451.7,216.9v-1.8h9.5v1.8h-3.7V227h-2.1v-10.1H451.7z M462.9,227v-9h2.1v9H462.9z M464,216.8c-0.3,0-0.6-0.1-0.9-0.3
		c-0.2-0.2-0.4-0.5-0.4-0.8s0.1-0.6,0.4-0.8c0.2-0.2,0.5-0.3,0.9-0.3c0.3,0,0.6,0.1,0.9,0.3c0.2,0.2,0.4,0.5,0.4,0.8
		s-0.1,0.6-0.4,0.8S464.3,216.8,464,216.8z M467.2,227v-9h2v1.5h0.1c0.2-0.5,0.5-0.9,0.9-1.2s0.9-0.4,1.5-0.4s1.1,0.1,1.5,0.4
		c0.4,0.3,0.7,0.7,0.9,1.2h0.1c0.2-0.5,0.5-0.9,1-1.2s1-0.4,1.7-0.4c0.8,0,1.5,0.3,2,0.8s0.8,1.3,0.8,2.3v6h-2.1v-5.7
		c0-0.6-0.1-1-0.4-1.2c-0.3-0.3-0.7-0.4-1.1-0.4c-0.5,0-0.9,0.2-1.2,0.5c-0.3,0.3-0.4,0.7-0.4,1.2v5.6h-2.1v-5.8
		c0-0.5-0.1-0.8-0.4-1.1s-0.6-0.4-1.1-0.4c-0.3,0-0.6,0.1-0.8,0.2c-0.2,0.2-0.4,0.4-0.6,0.6c-0.1,0.3-0.2,0.6-0.2,1v5.4L467.2,227
		L467.2,227z M485.9,227.2c-0.9,0-1.7-0.2-2.3-0.6c-0.6-0.4-1.1-0.9-1.5-1.6c-0.4-0.7-0.5-1.5-0.5-2.4s0.2-1.7,0.5-2.4
		c0.4-0.7,0.8-1.2,1.5-1.6c0.6-0.4,1.4-0.6,2.2-0.6c0.6,0,1.1,0.1,1.6,0.3s0.9,0.4,1.3,0.8c0.4,0.4,0.7,0.8,0.9,1.4
		c0.2,0.6,0.3,1.2,0.3,2v0.6h-7.3v-1.4h5.3c0-0.4-0.1-0.8-0.3-1.1c-0.2-0.3-0.4-0.6-0.7-0.8c-0.3-0.2-0.7-0.3-1.1-0.3
		s-0.8,0.1-1.1,0.3c-0.3,0.2-0.6,0.5-0.8,0.8c-0.2,0.3-0.3,0.7-0.3,1.1v1.2c0,0.5,0.1,1,0.3,1.3c0.2,0.4,0.5,0.7,0.8,0.9
		s0.7,0.3,1.2,0.3c0.3,0,0.6,0,0.8-0.1c0.2-0.1,0.5-0.2,0.6-0.4c0.2-0.2,0.3-0.4,0.4-0.6l2,0.2c-0.1,0.5-0.4,1-0.7,1.4
		c-0.3,0.4-0.8,0.7-1.3,0.9C487.2,227.1,486.6,227.2,485.9,227.2z M498.7,220.4l-1.9,0.2c-0.1-0.2-0.1-0.4-0.3-0.5
		c-0.1-0.2-0.3-0.3-0.5-0.4s-0.5-0.2-0.8-0.2c-0.4,0-0.8,0.1-1.1,0.3c-0.3,0.2-0.4,0.4-0.4,0.7s0.1,0.5,0.3,0.6
		c0.2,0.2,0.5,0.3,1,0.4l1.5,0.3c0.8,0.2,1.5,0.5,1.9,0.9s0.6,0.9,0.6,1.6c0,0.6-0.2,1.1-0.5,1.5s-0.8,0.8-1.3,1
		c-0.6,0.2-1.2,0.4-2,0.4c-1.1,0-2-0.2-2.6-0.7c-0.7-0.5-1.1-1.1-1.2-1.9l2.1-0.2c0.1,0.4,0.3,0.7,0.6,0.9c0.3,0.2,0.7,0.3,1.2,0.3
		s0.9-0.1,1.2-0.3c0.3-0.2,0.5-0.5,0.5-0.8s-0.1-0.5-0.3-0.6c-0.2-0.2-0.5-0.3-0.9-0.4l-1.5-0.3c-0.9-0.2-1.5-0.5-1.9-0.9
		s-0.6-1-0.6-1.6s0.1-1,0.4-1.4s0.7-0.7,1.3-0.9c0.5-0.2,1.2-0.3,1.9-0.3c1,0,1.9,0.2,2.5,0.7C498.2,219,498.6,219.7,498.7,220.4z
		 M502.8,221.8v5.2h-2.1v-11.9h2.1v4.5h0.1c0.2-0.5,0.5-0.9,1-1.2c0.4-0.3,1-0.4,1.7-0.4c0.6,0,1.2,0.1,1.6,0.4
		c0.5,0.3,0.8,0.6,1.1,1.1c0.3,0.5,0.4,1.1,0.4,1.8v5.7h-2.1v-5.4c0-0.6-0.2-1.1-0.5-1.4c-0.3-0.3-0.7-0.5-1.3-0.5
		c-0.4,0-0.7,0.1-1,0.2c-0.3,0.2-0.5,0.4-0.7,0.7C502.9,221,502.8,221.3,502.8,221.8z M514.7,227.2c-0.9,0-1.7-0.2-2.3-0.6
		c-0.6-0.4-1.1-0.9-1.5-1.6c-0.3-0.7-0.5-1.5-0.5-2.4s0.2-1.7,0.5-2.4c0.4-0.7,0.8-1.2,1.5-1.6c0.6-0.4,1.4-0.6,2.2-0.6
		c0.6,0,1.1,0.1,1.6,0.3s0.9,0.4,1.3,0.8c0.4,0.4,0.7,0.8,0.9,1.4c0.2,0.6,0.3,1.2,0.3,2v0.6h-7.3v-1.4h5.3c0-0.4-0.1-0.8-0.3-1.1
		s-0.4-0.6-0.7-0.8s-0.7-0.3-1.1-0.3c-0.4,0-0.8,0.1-1.1,0.3s-0.6,0.5-0.8,0.8s-0.3,0.7-0.3,1.1v1.2c0,0.5,0.1,1,0.3,1.3
		c0.2,0.4,0.5,0.7,0.8,0.9s0.7,0.3,1.2,0.3c0.3,0,0.6,0,0.8-0.1s0.5-0.2,0.6-0.4c0.2-0.2,0.3-0.4,0.4-0.6l2,0.2
		c-0.1,0.5-0.4,1-0.7,1.4s-0.8,0.7-1.3,0.9C516,227.1,515.4,227.2,514.7,227.2z M524.4,227.2c-0.9,0-1.7-0.2-2.3-0.6
		c-0.6-0.4-1.1-0.9-1.5-1.6c-0.3-0.7-0.5-1.5-0.5-2.4s0.2-1.7,0.5-2.4c0.4-0.7,0.8-1.2,1.5-1.6c0.6-0.4,1.4-0.6,2.2-0.6
		c0.6,0,1.1,0.1,1.6,0.3s0.9,0.4,1.3,0.8c0.4,0.4,0.7,0.8,0.9,1.4c0.2,0.6,0.3,1.2,0.3,2v0.6h-7.3v-1.4h5.3c0-0.4-0.1-0.8-0.3-1.1
		s-0.4-0.6-0.7-0.8s-0.7-0.3-1.1-0.3c-0.4,0-0.8,0.1-1.1,0.3s-0.6,0.5-0.8,0.8s-0.3,0.7-0.3,1.1v1.2c0,0.5,0.1,1,0.3,1.3
		c0.2,0.4,0.5,0.7,0.8,0.9s0.7,0.3,1.2,0.3c0.3,0,0.6,0,0.8-0.1s0.5-0.2,0.6-0.4c0.2-0.2,0.3-0.4,0.4-0.6l2,0.2
		c-0.1,0.5-0.4,1-0.7,1.4s-0.8,0.7-1.3,0.9C525.7,227.1,525.1,227.2,524.4,227.2z M534.7,218v1.6h-5.1V218H534.7z M530.8,215.9h2.1
		v8.4c0,0.3,0,0.5,0.1,0.7c0.1,0.1,0.2,0.2,0.3,0.3s0.3,0.1,0.5,0.1c0.1,0,0.3,0,0.4,0c0.1,0,0.2,0,0.3-0.1l0.4,1.6
		c-0.1,0-0.3,0.1-0.5,0.1s-0.5,0.1-0.8,0.1c-0.5,0-1-0.1-1.4-0.2c-0.4-0.2-0.8-0.5-1-0.8c-0.2-0.4-0.4-0.8-0.4-1.4L530.8,215.9
		L530.8,215.9z M543.4,220.4l-1.9,0.2c-0.1-0.2-0.1-0.4-0.3-0.5c-0.1-0.2-0.3-0.3-0.5-0.4c-0.2-0.1-0.5-0.2-0.8-0.2
		c-0.4,0-0.8,0.1-1.1,0.3s-0.4,0.4-0.4,0.7s0.1,0.5,0.3,0.6c0.2,0.2,0.5,0.3,1,0.4l1.5,0.3c0.8,0.2,1.5,0.5,1.9,0.9s0.6,0.9,0.6,1.6
		c0,0.6-0.2,1.1-0.5,1.5s-0.8,0.8-1.3,1c-0.6,0.2-1.2,0.4-2,0.4c-1.1,0-2-0.2-2.6-0.7c-0.7-0.5-1.1-1.1-1.2-1.9l2.1-0.2
		c0.1,0.4,0.3,0.7,0.6,0.9s0.7,0.3,1.2,0.3s0.9-0.1,1.2-0.3s0.5-0.5,0.5-0.8s-0.1-0.5-0.3-0.6c-0.2-0.2-0.5-0.3-0.9-0.4l-1.5-0.3
		c-0.9-0.2-1.5-0.5-1.9-0.9s-0.6-1-0.6-1.6s0.1-1,0.4-1.4c0.3-0.4,0.7-0.7,1.3-0.9c0.5-0.2,1.2-0.3,1.9-0.3c1,0,1.9,0.2,2.5,0.7
		C542.9,219,543.2,219.7,543.4,220.4z M452.1,247v-9h2v1.5h0.1c0.2-0.5,0.5-0.9,0.9-1.2s0.9-0.4,1.5-0.4s1.1,0.1,1.5,0.4
		c0.4,0.3,0.7,0.7,0.9,1.2h0.1c0.2-0.5,0.5-0.9,1-1.2s1-0.4,1.7-0.4c0.8,0,1.5,0.3,2,0.8s0.8,1.3,0.8,2.3v6h-2.1v-5.7
		c0-0.6-0.1-1-0.4-1.2c-0.3-0.3-0.7-0.4-1.1-0.4c-0.5,0-0.9,0.2-1.2,0.5c-0.3,0.3-0.4,0.7-0.4,1.2v5.6h-2.1v-5.8
		c0-0.5-0.1-0.8-0.4-1.1s-0.6-0.4-1.1-0.4c-0.3,0-0.6,0.1-0.8,0.2c-0.2,0.2-0.4,0.4-0.6,0.6c-0.1,0.3-0.2,0.6-0.2,1v5.4L452.1,247
		L452.1,247z M469.4,247.2c-0.6,0-1.1-0.1-1.5-0.3c-0.5-0.2-0.8-0.5-1.1-0.9c-0.3-0.4-0.4-0.9-0.4-1.5c0-0.5,0.1-0.9,0.3-1.3
		c0.2-0.3,0.4-0.6,0.8-0.8c0.3-0.2,0.7-0.3,1.1-0.4c0.4-0.1,0.8-0.2,1.3-0.2c0.5-0.1,1-0.1,1.3-0.1s0.6-0.1,0.7-0.2
		c0.2-0.1,0.2-0.2,0.2-0.4l0,0c0-0.4-0.1-0.8-0.4-1s-0.6-0.4-1.1-0.4s-0.9,0.1-1.2,0.3c-0.3,0.2-0.5,0.5-0.6,0.8l-2-0.3
		c0.2-0.5,0.4-1,0.8-1.4s0.8-0.6,1.3-0.8s1.1-0.3,1.7-0.3c0.4,0,0.9,0.1,1.3,0.2c0.4,0.1,0.8,0.3,1.2,0.5c0.4,0.2,0.6,0.5,0.9,0.9
		c0.2,0.4,0.3,0.9,0.3,1.5v6h-2v-1.2H472c-0.1,0.2-0.3,0.5-0.5,0.7s-0.5,0.4-0.9,0.5C470.3,247.1,469.9,247.2,469.4,247.2z
		 M469.9,245.6c0.4,0,0.8-0.1,1.1-0.2c0.3-0.2,0.5-0.4,0.7-0.7s0.3-0.6,0.3-0.9v-1.1c-0.1,0.1-0.2,0.1-0.3,0.2
		c-0.2,0-0.3,0.1-0.5,0.1s-0.4,0.1-0.6,0.1s-0.4,0.1-0.5,0.1c-0.3,0-0.6,0.1-0.8,0.2c-0.2,0.1-0.4,0.2-0.6,0.4
		c-0.1,0.2-0.2,0.4-0.2,0.7c0,0.4,0.1,0.7,0.4,0.9C469.1,245.5,469.5,245.6,469.9,245.6z M478.2,244.2v-2.5h0.3l3.2-3.6h2.5l-4,4.4
		h-0.4L478.2,244.2z M476.2,247v-11.9h2.1V247H476.2z M481.9,247l-2.9-4.1l1.4-1.5l4,5.6H481.9z M489.2,247.2
		c-0.9,0-1.7-0.2-2.3-0.6c-0.6-0.4-1.1-0.9-1.5-1.6c-0.3-0.7-0.5-1.5-0.5-2.4s0.2-1.7,0.5-2.4c0.4-0.7,0.8-1.2,1.5-1.6
		c0.6-0.4,1.4-0.6,2.2-0.6c0.6,0,1.1,0.1,1.6,0.3s0.9,0.4,1.3,0.8c0.4,0.4,0.7,0.8,0.9,1.4c0.2,0.6,0.3,1.2,0.3,2v0.6h-7.3v-1.4h5.3
		c0-0.4-0.1-0.8-0.3-1.1c-0.2-0.3-0.4-0.6-0.7-0.8c-0.3-0.2-0.7-0.3-1.1-0.3s-0.8,0.1-1.1,0.3c-0.3,0.2-0.6,0.5-0.8,0.8
		c-0.2,0.3-0.3,0.7-0.3,1.1v1.2c0,0.5,0.1,1,0.3,1.3c0.2,0.4,0.5,0.7,0.8,0.9s0.7,0.3,1.2,0.3c0.3,0,0.6,0,0.8-0.1
		c0.2-0.1,0.5-0.2,0.6-0.4c0.2-0.2,0.3-0.4,0.4-0.6l2,0.2c-0.1,0.5-0.4,1-0.7,1.4c-0.3,0.4-0.8,0.7-1.3,0.9
		C490.5,247.1,489.9,247.2,489.2,247.2z"/>
	<path class="st26" d="M423.3,216.5c0-0.2,0.2-0.4,0.5-0.4h0.2c0.2,0,0.4,0.2,0.5,0.4l0.5,5l3.6,2c0.1,0.1,0.2,0.2,0.2,0.4v0.2
		c0,0.3-0.3,0.5-0.6,0.4l-5-1.4c-0.2-0.1-0.4-0.3-0.3-0.5L423.3,216.5z"/>
	<path class="st27" d="M418.6,209.4c-0.2-0.3-0.7-0.2-0.8,0.2l-1.3,5.4c-0.1,0.3,0.2,0.6,0.5,0.6l5.6-0.3c0.4,0,0.6-0.5,0.3-0.7
		l-1.4-1.7c0.9-0.3,2-0.5,3-0.5c5.1,0,9.2,4.1,9.2,9.2c0,5.1-4.1,9.2-9.2,9.2s-9.2-4.1-9.2-9.2c0-0.9,0.1-1.7,0.3-2.5l-2.1-0.6
		c-0.3,1-0.4,2-0.4,3.1c0,6.3,5.1,11.4,11.4,11.4s11.4-5.1,11.4-11.4s-5.1-11.4-11.4-11.4c-1.6,0-3.1,0.3-4.5,0.9L418.6,209.4z"/>
</g>
</svg>
