<svg width="891" height="854" viewBox="0 0 891 854" fill="none" xmlns="http://www.w3.org/2000/svg">
<path d="M677.408 -606.348C735.206 -664.146 828.914 -664.146 886.712 -606.348L1396.22 -96.8355C1473.67 -19.3875 1443.08 112.433 1339.44 147.861L485.784 439.664C432.358 457.926 373.197 444.2 333.27 404.279L104.668 175.712C46.8626 117.916 46.859 24.2011 104.66 -33.5996L677.408 -606.348Z" fill="#6640FF"/>
<path d="M1458.43 -327.088C1526.51 -287.779 1551.98 -202.098 1516.43 -131.98L1225.59 441.565C1162.73 565.519 947.908 551.123 882.718 428.379C843.304 354.167 794.677 271.868 735 184C594.789 -22.4453 485.582 -158.501 417.928 -237.007C373.684 -288.348 364.015 -363.079 397.898 -421.777L548.004 -681.813C588.87 -752.607 679.391 -776.866 750.182 -735.994L1458.43 -327.088Z" fill="#5730F6"/>
</svg>
