<svg width="37" height="37" viewBox="0 0 37 37" fill="none" xmlns="http://www.w3.org/2000/svg">
<path fill-rule="evenodd" clip-rule="evenodd" d="M7.89483 3.32111C6.57422 4.24452 5.38003 5.33629 4.34337 6.56529C8.57965 6.172 13.9617 6.8142 20.2102 9.9385C26.8828 13.2747 32.2558 13.3875 35.9952 12.6662C35.6559 11.6389 35.2287 10.6516 34.7227 9.713C30.4421 10.1644 24.9545 9.5668 18.559 6.36921C14.4978 4.33863 10.918 3.50216 7.89483 3.32111ZM32.2222 6.15383C28.8418 2.37692 23.9293 0 18.4615 0C16.8558 0 15.2979 0.205022 13.8126 0.590286C15.8242 1.13916 17.9611 1.94214 20.2102 3.06671C24.8926 5.40787 28.9351 6.16169 32.2222 6.15383ZM36.7947 16.2721C32.2771 17.1641 26.0389 16.9809 18.559 13.241C11.5661 9.7445 6.0004 9.7886 2.24667 10.6228C2.05292 10.6658 1.86373 10.711 1.6791 10.7581C1.18765 11.8269 0.795354 12.9508 0.513879 14.118C0.81451 14.0377 1.12516 13.9613 1.44568 13.8901C5.9996 12.8781 12.4339 12.922 20.2102 16.8102C27.2032 20.3067 32.7689 20.2626 36.5226 19.4284C36.6512 19.3999 36.778 19.3704 36.9026 19.3399C36.9162 19.0489 36.9231 18.756 36.9231 18.4615C36.9231 17.7208 36.8795 16.9901 36.7947 16.2721ZM36.2998 23.236C31.8261 24.0181 25.7695 23.7179 18.559 20.1127C11.5661 16.6163 6.0004 16.6603 2.24667 17.4945C1.41346 17.6796 0.663913 17.9051 0.0027046 18.1432C0.000901898 18.249 0 18.3552 0 18.4615C0 28.6576 8.2655 36.9231 18.4615 36.9231C27.0065 36.9231 34.1957 31.1177 36.2998 23.236Z" fill="#6640FF"/>
</svg>
